<svg xmlns="http://www.w3.org/2000/svg" width="601" height="242"><defs><marker orient="auto" refY="0" refX="0" id="a" style="overflow:visible"><path d="m0 0 5-5-17.5 5L5 5 0 0z" style="fill-rule:evenodd;stroke:#000;stroke-width:1pt" transform="matrix(-.4 0 0 -.4 -4 0)"/></marker><marker orient="auto" refY="0" refX="0" id="b" style="overflow:visible"><path d="m0 0 5-5-17.5 5L5 5 0 0z" style="fill-rule:evenodd;stroke:#000;stroke-width:1pt" transform="matrix(-.4 0 0 -.4 -4 0)"/></marker></defs><g style="display:inline"><text xml:space="preserve" style="font-size:16px;font-style:normal;font-variant:normal;font-weight:400;font-stretch:normal;text-align:center;line-height:125%;letter-spacing:0;word-spacing:0;writing-mode:lr-tb;text-anchor:middle;fill:#000;fill-opacity:1;stroke:none;font-family:DejaVu Sans;-inkscape-font-specification:DejaVu Sans" x="310.738" y="226"><tspan x="310.738" y="226">Cipher Block Chaining (CBC) mode encryption</tspan></text><text y="904.673" x="137.961" style="font-size:12px;font-style:normal;font-variant:normal;font-weight:400;font-stretch:normal;text-align:center;line-height:125%;letter-spacing:0;word-spacing:0;writing-mode:lr-tb;text-anchor:middle;fill:#000;fill-opacity:1;stroke:none;font-family:DejaVu Sans;-inkscape-font-specification:DejaVu Sans" xml:space="preserve" transform="translate(20 -790.362)"><tspan y="904.673" x="137.961">block cipher</tspan><tspan y="919.673" x="137.961" style="font-weight:400">encryption</tspan></text><path style="fill:none;stroke:#000;stroke-width:1;stroke-linecap:square;stroke-miterlimit:4;stroke-opacity:1;stroke-dasharray:none;stroke-dashoffset:0" d="M89.5 80.5h98v36h-98z" transform="translate(20 20)"/><path style="fill:none;stroke:#000;stroke-width:1;stroke-linecap:square;stroke-miterlimit:4;stroke-opacity:1;stroke-dasharray:none;stroke-dashoffset:0" d="M88.5 48.5h8v10h-8zM96.5 48.5h8v10h-8zM104.5 48.5h8v10h-8zM112.5 48.5h8v10h-8zM120.5 48.5h8v10h-8zM128.5 48.5h8v10h-8zM136.5 48.5h8v10h-8zM144.5 48.5h8v10h-8zM152.5 48.5h8v10h-8zM160.5 48.5h8v10h-8zM168.5 48.5h8v10h-8zM176.5 48.5h8v10h-8zM184.5 48.5h8v10h-8z" transform="translate(18 -12)"/><text xml:space="preserve" style="font-size:12px;font-style:normal;font-variant:normal;font-weight:400;font-stretch:normal;text-align:start;line-height:125%;letter-spacing:0;word-spacing:0;text-anchor:start;fill:#000;fill-opacity:1;stroke:none;font-family:DejaVu Sans;-inkscape-font-specification:Sans" x="51.643" y="121.626"><tspan x="51.643" y="121.626">Key</tspan></text><path style="fill:none;stroke:#000;stroke-width:1;stroke-linecap:square;stroke-miterlimit:4;stroke-opacity:1;stroke-dasharray:none;stroke-dashoffset:0" d="M88.5 48.5h8v10h-8zM96.5 48.5h8v10h-8zM104.5 48.5h8v10h-8zM112.5 48.5h8v10h-8zM120.5 48.5h8v10h-8zM128.5 48.5h8v10h-8zM136.5 48.5h8v10h-8zM144.5 48.5h8v10h-8zM152.5 48.5h8v10h-8zM160.5 48.5h8v10h-8zM168.5 48.5h8v10h-8zM176.5 48.5h8v10h-8zM184.5 48.5h8v10h-8z" transform="translate(18 117)"/><text xml:space="preserve" style="font-size:12px;font-style:normal;font-variant:normal;font-weight:400;font-stretch:normal;text-align:start;line-height:125%;letter-spacing:0;word-spacing:0;text-anchor:start;fill:#000;fill-opacity:1;stroke:none;font-family:DejaVu Sans;-inkscape-font-specification:Sans" x="158.31" y="190.5"><tspan x="158.31" y="190.5" style="text-align:center;text-anchor:middle">Ciphertext</tspan></text><path style="fill:none;stroke:#000;stroke-width:1px;stroke-linecap:butt;stroke-linejoin:miter;stroke-opacity:1;marker-end:url(#a)" d="M158.5 49.5v47"/><path style="fill:none;stroke:#000;stroke-width:1px;stroke-linecap:butt;stroke-linejoin:miter;stroke-opacity:1;marker-end:url(#a)" d="M77.5 118.5h27"/><path style="fill:none;stroke:#000;stroke-width:1px;stroke-linecap:butt;stroke-linejoin:miter;stroke-opacity:1;marker-end:url(#a)" d="M158.5 141.5v19"/><text xml:space="preserve" style="font-size:12px;font-style:normal;font-variant:normal;font-weight:400;font-stretch:normal;text-align:center;line-height:125%;letter-spacing:0;word-spacing:0;writing-mode:lr-tb;text-anchor:middle;fill:#000;fill-opacity:1;stroke:none;display:inline;font-family:DejaVu Sans;-inkscape-font-specification:DejaVu Sans" x="158.058" y="27.5"><tspan x="158.058" y="27.5" style="font-size:12px;font-style:normal;font-variant:normal;font-weight:400;font-stretch:normal;text-align:center;line-height:125%;writing-mode:lr-tb;text-anchor:middle;font-family:DejaVu Sans;-inkscape-font-specification:DejaVu Sans">Plaintext</tspan></text><g style="display:inline"><path transform="translate(18 -54)" d="M146.5 133.5a6 6 0 1 1-12 0 6 6 0 0 1 12 0z" style="fill:none;stroke:#000;stroke-width:1;stroke-linecap:square;stroke-miterlimit:4;stroke-opacity:1;stroke-dasharray:none;stroke-dashoffset:0"/><path d="M132.5 133.5h12" style="fill:none;stroke:#000;stroke-width:1px;stroke-linecap:butt;stroke-linejoin:miter;stroke-opacity:1" transform="translate(20 -54)"/></g><g style="display:inline"><text y="904.673" x="137.961" style="font-size:12px;font-style:normal;font-variant:normal;font-weight:400;font-stretch:normal;text-align:center;line-height:125%;letter-spacing:0;word-spacing:0;writing-mode:lr-tb;text-anchor:middle;fill:#000;fill-opacity:1;stroke:none;font-family:DejaVu Sans;-inkscape-font-specification:DejaVu Sans" xml:space="preserve" transform="translate(204 -790.362)"><tspan y="904.673" x="137.961">block cipher</tspan><tspan y="919.673" x="137.961" style="font-weight:400">encryption</tspan></text><path style="fill:none;stroke:#000;stroke-width:1;stroke-linecap:square;stroke-miterlimit:4;stroke-opacity:1;stroke-dasharray:none;stroke-dashoffset:0" d="M89.5 80.5h98v36h-98z" transform="translate(204 20)"/></g><g style="display:inline"><path style="fill:none;stroke:#000;stroke-width:1;stroke-linecap:square;stroke-miterlimit:4;stroke-opacity:1;stroke-dasharray:none;stroke-dashoffset:0" d="M88.5 48.5h8v10h-8zM96.5 48.5h8v10h-8zM104.5 48.5h8v10h-8zM112.5 48.5h8v10h-8zM120.5 48.5h8v10h-8zM128.5 48.5h8v10h-8zM136.5 48.5h8v10h-8zM144.5 48.5h8v10h-8zM152.5 48.5h8v10h-8zM160.5 48.5h8v10h-8zM168.5 48.5h8v10h-8zM176.5 48.5h8v10h-8zM184.5 48.5h8v10h-8z" transform="translate(202 -12)"/></g><text xml:space="preserve" style="font-size:12px;font-style:normal;font-variant:normal;font-weight:400;font-stretch:normal;text-align:start;line-height:125%;letter-spacing:0;word-spacing:0;text-anchor:start;fill:#000;fill-opacity:1;stroke:none;display:inline;font-family:DejaVu Sans;-inkscape-font-specification:Sans" x="235.643" y="121.626"><tspan x="235.643" y="121.626">Key</tspan></text><g style="display:inline"><path style="fill:none;stroke:#000;stroke-width:1;stroke-linecap:square;stroke-miterlimit:4;stroke-opacity:1;stroke-dasharray:none;stroke-dashoffset:0" d="M88.5 48.5h8v10h-8zM96.5 48.5h8v10h-8zM104.5 48.5h8v10h-8zM112.5 48.5h8v10h-8zM120.5 48.5h8v10h-8zM128.5 48.5h8v10h-8zM136.5 48.5h8v10h-8zM144.5 48.5h8v10h-8zM152.5 48.5h8v10h-8zM160.5 48.5h8v10h-8zM168.5 48.5h8v10h-8zM176.5 48.5h8v10h-8zM184.5 48.5h8v10h-8z" transform="translate(202 117)"/></g><text xml:space="preserve" style="font-size:12px;font-style:normal;font-variant:normal;font-weight:400;font-stretch:normal;text-align:start;line-height:125%;letter-spacing:0;word-spacing:0;text-anchor:start;fill:#000;fill-opacity:1;stroke:none;display:inline;font-family:DejaVu Sans;-inkscape-font-specification:Sans" x="342.31" y="190.5"><tspan x="342.31" y="190.5" style="text-align:center;text-anchor:middle">Ciphertext</tspan></text><path style="fill:none;stroke:#000;stroke-width:1px;stroke-linecap:butt;stroke-linejoin:miter;stroke-opacity:1;marker-end:url(#a);display:inline" d="M342.5 49.5v47"/><path style="fill:none;stroke:#000;stroke-width:1px;stroke-linecap:butt;stroke-linejoin:miter;stroke-opacity:1;marker-end:url(#a);display:inline" d="M261.5 118.5h27"/><path style="fill:none;stroke:#000;stroke-width:1px;stroke-linecap:butt;stroke-linejoin:miter;stroke-opacity:1;marker-end:url(#a);display:inline" d="M342.5 141.5v19"/><text xml:space="preserve" style="font-size:12px;font-style:normal;font-variant:normal;font-weight:400;font-stretch:normal;text-align:center;line-height:125%;letter-spacing:0;word-spacing:0;writing-mode:lr-tb;text-anchor:middle;fill:#000;fill-opacity:1;stroke:none;display:inline;font-family:DejaVu Sans;-inkscape-font-specification:DejaVu Sans" x="342.058" y="27.5"><tspan x="342.058" y="27.5" style="font-size:12px;font-style:normal;font-variant:normal;font-weight:400;font-stretch:normal;text-align:center;line-height:125%;writing-mode:lr-tb;text-anchor:middle;font-family:DejaVu Sans;-inkscape-font-specification:DejaVu Sans">Plaintext</tspan></text><g style="display:inline"><path transform="translate(202 -54)" d="M146.5 133.5a6 6 0 1 1-12 0 6 6 0 0 1 12 0z" style="fill:none;stroke:#000;stroke-width:1;stroke-linecap:square;stroke-miterlimit:4;stroke-opacity:1;stroke-dasharray:none;stroke-dashoffset:0"/><path d="M132.5 133.5h12" style="fill:none;stroke:#000;stroke-width:1px;stroke-linecap:butt;stroke-linejoin:miter;stroke-opacity:1" transform="translate(204 -54)"/></g><g style="display:inline"><text y="904.673" x="137.961" style="font-size:12px;font-style:normal;font-variant:normal;font-weight:400;font-stretch:normal;text-align:center;line-height:125%;letter-spacing:0;word-spacing:0;writing-mode:lr-tb;text-anchor:middle;fill:#000;fill-opacity:1;stroke:none;font-family:DejaVu Sans;-inkscape-font-specification:DejaVu Sans" xml:space="preserve" transform="translate(388 -790.362)"><tspan y="904.673" x="137.961">block cipher</tspan><tspan y="919.673" x="137.961" style="font-weight:400">encryption</tspan></text><path style="fill:none;stroke:#000;stroke-width:1;stroke-linecap:square;stroke-miterlimit:4;stroke-opacity:1;stroke-dasharray:none;stroke-dashoffset:0" d="M89.5 80.5h98v36h-98z" transform="translate(388 20)"/></g><g style="display:inline"><path style="fill:none;stroke:#000;stroke-width:1;stroke-linecap:square;stroke-miterlimit:4;stroke-opacity:1;stroke-dasharray:none;stroke-dashoffset:0" d="M88.5 48.5h8v10h-8zM96.5 48.5h8v10h-8zM104.5 48.5h8v10h-8zM112.5 48.5h8v10h-8zM120.5 48.5h8v10h-8zM128.5 48.5h8v10h-8zM136.5 48.5h8v10h-8zM144.5 48.5h8v10h-8zM152.5 48.5h8v10h-8zM160.5 48.5h8v10h-8zM168.5 48.5h8v10h-8zM176.5 48.5h8v10h-8zM184.5 48.5h8v10h-8z" transform="translate(386 -12)"/></g><text xml:space="preserve" style="font-size:12px;font-style:normal;font-variant:normal;font-weight:400;font-stretch:normal;text-align:start;line-height:125%;letter-spacing:0;word-spacing:0;text-anchor:start;fill:#000;fill-opacity:1;stroke:none;display:inline;font-family:DejaVu Sans;-inkscape-font-specification:Sans" x="419.643" y="121.626"><tspan x="419.643" y="121.626">Key</tspan></text><g style="display:inline"><path style="fill:none;stroke:#000;stroke-width:1;stroke-linecap:square;stroke-miterlimit:4;stroke-opacity:1;stroke-dasharray:none;stroke-dashoffset:0" d="M88.5 48.5h8v10h-8zM96.5 48.5h8v10h-8zM104.5 48.5h8v10h-8zM112.5 48.5h8v10h-8zM120.5 48.5h8v10h-8zM128.5 48.5h8v10h-8zM136.5 48.5h8v10h-8zM144.5 48.5h8v10h-8zM152.5 48.5h8v10h-8zM160.5 48.5h8v10h-8zM168.5 48.5h8v10h-8zM176.5 48.5h8v10h-8zM184.5 48.5h8v10h-8z" transform="translate(386 117)"/></g><text xml:space="preserve" style="font-size:12px;font-style:normal;font-variant:normal;font-weight:400;font-stretch:normal;text-align:start;line-height:125%;letter-spacing:0;word-spacing:0;text-anchor:start;fill:#000;fill-opacity:1;stroke:none;display:inline;font-family:DejaVu Sans;-inkscape-font-specification:Sans" x="526.31" y="190.5"><tspan x="526.31" y="190.5" style="text-align:center;text-anchor:middle">Ciphertext</tspan></text><path style="fill:none;stroke:#000;stroke-width:1px;stroke-linecap:butt;stroke-linejoin:miter;stroke-opacity:1;marker-end:url(#a);display:inline" d="M526.5 49.5v47"/><path style="fill:none;stroke:#000;stroke-width:1px;stroke-linecap:butt;stroke-linejoin:miter;stroke-opacity:1;marker-end:url(#a);display:inline" d="M445.5 118.5h27"/><path style="fill:none;stroke:#000;stroke-width:1px;stroke-linecap:butt;stroke-linejoin:miter;stroke-opacity:1;marker-end:url(#a);display:inline" d="M526.5 141.5v19"/><text xml:space="preserve" style="font-size:12px;font-style:normal;font-variant:normal;font-weight:400;font-stretch:normal;text-align:center;line-height:125%;letter-spacing:0;word-spacing:0;writing-mode:lr-tb;text-anchor:middle;fill:#000;fill-opacity:1;stroke:none;display:inline;font-family:DejaVu Sans;-inkscape-font-specification:DejaVu Sans" x="526.058" y="27.5"><tspan x="526.058" y="27.5" style="font-size:12px;font-style:normal;font-variant:normal;font-weight:400;font-stretch:normal;text-align:center;line-height:125%;writing-mode:lr-tb;text-anchor:middle;font-family:DejaVu Sans;-inkscape-font-specification:DejaVu Sans">Plaintext</tspan></text><g style="display:inline"><path transform="translate(386 -54)" d="M146.5 133.5a6 6 0 1 1-12 0 6 6 0 0 1 12 0z" style="fill:none;stroke:#000;stroke-width:1;stroke-linecap:square;stroke-miterlimit:4;stroke-opacity:1;stroke-dasharray:none;stroke-dashoffset:0"/><path d="M132.5 133.5h12" style="fill:none;stroke:#000;stroke-width:1px;stroke-linecap:butt;stroke-linejoin:miter;stroke-opacity:1" transform="translate(388 -54)"/></g><g style="display:inline"><path style="fill:none;stroke:#000;stroke-width:1;stroke-linecap:square;stroke-miterlimit:4;stroke-opacity:1;stroke-dasharray:none;stroke-dashoffset:0" d="M88.5 48.5h8v10h-8zM96.5 48.5h8v10h-8zM104.5 48.5h8v10h-8zM112.5 48.5h8v10h-8zM120.5 48.5h8v10h-8zM128.5 48.5h8v10h-8zM136.5 48.5h8v10h-8zM144.5 48.5h8v10h-8zM152.5 48.5h8v10h-8zM160.5 48.5h8v10h-8zM168.5 48.5h8v10h-8zM176.5 48.5h8v10h-8zM184.5 48.5h8v10h-8z" transform="translate(-82 26)"/></g><text xml:space="preserve" style="font-size:12px;font-style:normal;font-variant:normal;font-weight:400;font-stretch:normal;text-align:start;line-height:125%;letter-spacing:0;word-spacing:0;text-anchor:start;fill:#000;fill-opacity:1;stroke:none;font-family:DejaVu Sans;-inkscape-font-specification:Sans" x="4.822" y="65.25"><tspan x="4.822" y="65.25">Initialization Vector (IV)</tspan></text><path style="fill:none;stroke:#000;stroke-width:1px;stroke-linecap:butt;stroke-linejoin:miter;stroke-opacity:1;marker-end:url(#b)" d="M114.5 79.5h34"/><path style="fill:none;stroke:#000;stroke-width:1px;stroke-linecap:butt;stroke-linejoin:miter;stroke-opacity:1;marker-end:url(#b)" d="M158.5 149.5h64v-70h109"/><path style="fill:none;stroke:#000;stroke-width:1px;stroke-linecap:butt;stroke-linejoin:miter;stroke-opacity:1;marker-end:url(#b);display:inline" d="M342.5 149.5h64v-70h109"/></g></svg>