<svg xmlns="http://www.w3.org/2000/svg" xmlns:xlink="http://www.w3.org/1999/xlink" width="403.485" height="410.488"><defs><marker id="am" orient="auto" overflow="visible"><path d="M-10 0l-4 4L0 0l-14-4 4 4z" fill-rule="evenodd" stroke="#000" stroke-width=".8pt"/></marker><marker id="al" orient="auto" overflow="visible"><path d="M10 0l4-4L0 0l14 4-4-4z" fill-rule="evenodd" stroke="#000" stroke-width=".8pt"/></marker><marker id="aw" orient="auto" overflow="visible"><path d="M-10 0l-4 4L0 0l-14-4 4 4z" fill="#999" fill-rule="evenodd" stroke="#999" stroke-width=".8pt"/></marker><marker id="av" orient="auto" overflow="visible"><path d="M10 0l4-4L0 0l14 4-4-4z" fill="#999" fill-rule="evenodd" stroke="#999" stroke-width=".8pt"/></marker><radialGradient id="d" cx="64.569" cy="7.227" r="104.221" fx="64.569" fy="7.227" gradientUnits="userSpaceOnUse"><stop offset="0" stop-color="#67c5d5"/><stop offset=".16" stop-color="#66c2d3"/><stop offset=".28" stop-color="#62b9ce"/><stop offset=".385" stop-color="#5ca8c6"/><stop offset=".483" stop-color="#5392ba"/><stop offset=".576" stop-color="#4874aa"/><stop offset=".665" stop-color="#3a5097"/><stop offset=".749" stop-color="#2a2781"/><stop offset=".815" stop-color="#1b006d"/><stop offset="1" stop-color="#596aad"/></radialGradient><radialGradient id="e" cx="64.552" cy="14.175" r="52.232" fx="64.552" fy="14.175" gradientUnits="userSpaceOnUse"><stop offset="0" stop-color="#0f80bc"/><stop offset=".338" stop-color="#0a5f9e"/><stop offset="1" stop-color="#00145a"/></radialGradient><radialGradient id="f" cx="64.554" cy="14.176" r="52.229" fx="64.554" fy="14.176" gradientUnits="userSpaceOnUse"><stop offset="0" stop-color="#0f80bc"/><stop offset=".338" stop-color="#0a5f9e"/><stop offset="1" stop-color="#00145a"/></radialGradient><radialGradient id="g" cx="64.549" cy="14.172" r="52.237" fx="64.549" fy="14.172" gradientUnits="userSpaceOnUse"><stop offset="0" stop-color="#0f80bc"/><stop offset=".338" stop-color="#0a5f9e"/><stop offset="1" stop-color="#00145a"/></radialGradient><radialGradient id="h" cx="65.405" cy="19.12" r="57.383" fx="65.405" fy="19.12" gradientUnits="userSpaceOnUse"><stop offset="0" stop-color="#0f80bc"/><stop offset=".264" stop-color="#0b629b"/><stop offset=".844" stop-color="#031747"/><stop offset="1" stop-color="#00022f"/></radialGradient><radialGradient id="i" cx="64.551" cy="14.173" r="52.233" fx="64.551" fy="14.173" gradientUnits="userSpaceOnUse"><stop offset="0" stop-color="#0f80bc"/><stop offset=".338" stop-color="#0a5f9e"/><stop offset="1" stop-color="#00145a"/></radialGradient><radialGradient id="j" cx="64.552" cy="14.165" r="52.242" fx="64.552" fy="14.165" gradientUnits="userSpaceOnUse"><stop offset="0" stop-color="#0f80bc"/><stop offset=".338" stop-color="#0a5f9e"/><stop offset="1" stop-color="#00145a"/></radialGradient><linearGradient id="l" gradientUnits="userSpaceOnUse" x1="76.372" y1="16.592" x2="93.232" y2="18.029"><stop offset="0" stop-color="#0f80bc"/><stop offset=".338" stop-color="#0a5f9e"/><stop offset="1" stop-color="#00145a"/></linearGradient><clipPath id="k"><use height="100%" width="100%" xlink:href="#a"/></clipPath><linearGradient id="m" gradientUnits="userSpaceOnUse" x1="38.492" y1="19.147" x2="29.174" y2="32.832"><stop offset="0" stop-color="#0f80bc"/><stop offset=".338" stop-color="#0a5f9e"/><stop offset="1" stop-color="#00145a"/></linearGradient><linearGradient id="n" gradientUnits="userSpaceOnUse" x1="62.652" y1="34.546" x2="62.652" y2="11.895"><stop offset=".014" stop-opacity="0"/><stop offset=".65" stop-opacity=".2" stop-color="#c4e0e3"/><stop offset=".822" stop-color="#c4e0e3"/><stop offset=".85" stop-color="#cde5e8"/><stop offset=".944" stop-color="#e8f4f7"/><stop offset="1" stop-color="#f2fafc"/></linearGradient><filter id="o" x="-.25" y="-.25" width="1.5" height="1.5"><feGaussianBlur in="SourceAlpha" stdDeviation="1.5" result="blur"/><feOffset dx="1" dy="1" in="blur" result="shift"/><feMerge><feMergeNode in="shift"/><feMergeNode in="SourceGraphic"/></feMerge></filter><linearGradient id="p" gradientUnits="userSpaceOnUse" x1="64.478" y1="56.301" x2="78.466" y2="48.085"><stop offset="0" stop-color="#df731b"/><stop offset=".545" stop-color="#df731b"/><stop offset=".701" stop-color="#ec8811"/><stop offset=".859" stop-color="#f4950b"/><stop offset="1" stop-color="#f79a09"/></linearGradient><linearGradient id="q" gradientUnits="userSpaceOnUse" x1="41.839" y1="36.962" x2="52.697" y2="37.892"><stop offset=".011" stop-color="#941403"/><stop offset=".897" stop-color="#e85c0a"/></linearGradient><linearGradient id="r" gradientUnits="userSpaceOnUse" x1="24.45" y1="33.953" x2="63.643" y2="38.852"><stop offset=".011" stop-color="#941403"/><stop offset=".136" stop-color="#a32104"/><stop offset=".498" stop-color="#c84107"/><stop offset=".789" stop-color="#df5509"/><stop offset=".972" stop-color="#e85c0a"/></linearGradient><linearGradient id="s" gradientUnits="userSpaceOnUse" x1="48.731" y1="44.32" x2="51.856" y2="42.945"><stop offset="0" stop-color="#f2c8a9"/><stop offset="1" stop-color="#ffc"/></linearGradient><linearGradient id="t" gradientUnits="userSpaceOnUse" x1="38.768" y1="82.582" x2="91.339" y2="84.747"><stop offset="0" stop-color="#b30000"/><stop offset="1" stop-color="#df731b"/></linearGradient><linearGradient id="u" gradientUnits="userSpaceOnUse" x1="51.278" y1="74.424" x2="78.689" y2="84.212"><stop offset="0" stop-color="#941403"/><stop offset="1" stop-color="#df731b"/></linearGradient><linearGradient id="v" gradientUnits="userSpaceOnUse" x1="6.106" y1="87.057" x2="32.828" y2="87.057" gradientTransform="rotate(2.807 27.644 95.554)"><stop offset=".056" stop-color="#b30000"/><stop offset="1" stop-color="#de5c01"/></linearGradient><linearGradient id="w" gradientUnits="userSpaceOnUse" x1="209.723" y1="-130.659" x2="224.261" y2="-85.619" gradientTransform="rotate(6.812 -1626.854 -1650.806)"><stop offset=".056" stop-color="#de7210"/><stop offset="1" stop-color="#f6c08f"/></linearGradient><linearGradient id="x" gradientUnits="userSpaceOnUse" x1="12.471" y1="61.107" x2="12.471" y2="111.455" gradientTransform="rotate(2.563 17.155 71.762)"><stop offset=".056" stop-color="#de7210"/><stop offset="1" stop-color="#f6c08f"/></linearGradient><linearGradient id="y" gradientUnits="userSpaceOnUse" x1="18.348" y1="30.846" x2="12.886" y2="16.85"><stop offset=".011" stop-color="#941403"/><stop offset=".472" stop-color="#e85c0a"/><stop offset="1" stop-color="#f9bd5f"/></linearGradient><linearGradient id="z" gradientUnits="userSpaceOnUse" x1="41.704" y1="34.058" x2="54.792" y2="16.853"><stop offset=".197" stop-color="#de7210"/><stop offset=".843" stop-color="#f9bd5f"/><stop offset="1" stop-color="#fffccf"/></linearGradient><linearGradient id="A" gradientUnits="userSpaceOnUse" x1="34.784" y1="57.541" x2="48.052" y2="84.079"><stop offset=".017" stop-color="#941403"/><stop offset=".5" stop-color="#e35100"/><stop offset="1" stop-color="#df731b"/></linearGradient><linearGradient id="B" gradientUnits="userSpaceOnUse" x1="54.825" y1="41.267" x2="58.139" y2="44.27"><stop offset="0" stop-color="#eea272"/><stop offset=".186" stop-color="#efa777"/><stop offset=".406" stop-color="#f2b585"/><stop offset=".643" stop-color="#f6cd9c"/><stop offset=".89" stop-color="#fceebb"/><stop offset="1" stop-color="#ffc"/></linearGradient><linearGradient id="C" gradientUnits="userSpaceOnUse" x1="35.5" y1="48.361" x2="50.721" y2="63.893"><stop offset=".197" stop-color="#df731b"/><stop offset=".843" stop-color="#f9bd5f"/><stop offset="1" stop-color="#fffccf"/></linearGradient><linearGradient id="D" gradientUnits="userSpaceOnUse" x1="847.471" y1="-1065.021" x2="847.471" y2="-1007.958" gradientTransform="rotate(14.693 -3854.01 -3747.1)"><stop offset=".056" stop-color="#de7210"/><stop offset="1" stop-color="#f6c08f"/></linearGradient><linearGradient id="E" gradientUnits="userSpaceOnUse" x1="15.856" y1="36.413" x2="-3.437" y2="67.833" gradientTransform="matrix(.9897 -.0801 .0949 1.1727 -3.82 -4.947)"><stop offset=".056" stop-color="#de7210"/><stop offset="1" stop-color="#f2c06e"/></linearGradient><linearGradient id="F" gradientUnits="userSpaceOnUse" x1="80.929" y1="67.845" x2="60.433" y2="71.76"><stop offset=".005" stop-color="#fffaee"/><stop offset=".276" stop-color="#f5f89b"/><stop offset=".31" stop-color="#f3ed91"/><stop offset=".467" stop-color="#ecc267"/><stop offset=".618" stop-color="#e6a046"/><stop offset=".761" stop-color="#e2872e"/><stop offset=".892" stop-color="#e07820"/><stop offset="1" stop-color="#df731b"/></linearGradient><linearGradient id="G" gradientUnits="userSpaceOnUse" x1="-411.273" y1="427.628" x2="-411.273" y2="475.319" gradientTransform="rotate(7.252 2864.42 3601.483)"><stop offset=".056" stop-color="#de7210"/><stop offset="1" stop-color="#f2c06e"/></linearGradient><linearGradient id="H" gradientUnits="userSpaceOnUse" x1="-414.436" y1="422.684" x2="-414.436" y2="470.37" gradientTransform="rotate(21.197 832.438 1378.86)"><stop offset=".056" stop-color="#de7210"/><stop offset="1" stop-color="#f2c06e"/></linearGradient><linearGradient id="I" gradientUnits="userSpaceOnUse" x1="13.848" y1="55.797" x2=".569" y2="75.716" gradientTransform="rotate(-35.865 17.144 54.254)"><stop offset=".056" stop-color="#de7210"/><stop offset="1" stop-color="#f2c072"/></linearGradient><linearGradient id="J" gradientUnits="userSpaceOnUse" x1="21.035" y1="49.271" x2="7.756" y2="69.189" gradientTransform="rotate(-35.865 17.144 54.254)"><stop offset=".056" stop-color="#de7210"/><stop offset="1" stop-color="#f2c072"/></linearGradient><linearGradient id="K" gradientUnits="userSpaceOnUse" x1="12.313" y1="37.865" x2="6.504" y2="48.709"><stop offset=".056" stop-color="#de7210"/><stop offset="1" stop-color="#eed8a5"/></linearGradient><linearGradient id="L" gradientUnits="userSpaceOnUse" x1="11.73" y1="44.492" x2="5.921" y2="55.335"><stop offset=".056" stop-color="#de7210"/><stop offset="1" stop-color="#eed8a5"/></linearGradient><linearGradient id="M" gradientUnits="userSpaceOnUse" x1="18.313" y1="39.891" x2="12.698" y2="53.833"><stop offset=".056" stop-color="#de7210"/><stop offset="1" stop-color="#f2c072"/></linearGradient><linearGradient id="N" gradientUnits="userSpaceOnUse" x1="20.447" y1="33.105" x2="7.168" y2="53.023"><stop offset=".056" stop-color="#de7210"/><stop offset="1" stop-color="#f2c072"/></linearGradient><linearGradient id="O" gradientUnits="userSpaceOnUse" x1="21.341" y1="37.126" x2="9.238" y2="55.279"><stop offset=".056" stop-color="#de7210"/><stop offset="1" stop-color="#f2c072"/></linearGradient><linearGradient id="P" gradientUnits="userSpaceOnUse" x1="60.286" y1="34.297" x2="61.245" y2="36.006"><stop offset="0" stop-color="#8b8b89"/><stop offset="1" stop-color="#120500"/></linearGradient><linearGradient id="Q" gradientUnits="userSpaceOnUse" x1="22.56" y1="28.492" x2="22.56" y2="23.245"><stop offset=".056" stop-color="#de7210"/><stop offset="1" stop-color="#f6c08f"/></linearGradient><linearGradient id="R" gradientUnits="userSpaceOnUse" x1="23.012" y1="34.751" x2="33.993" y2="21.918" gradientTransform="rotate(2.292 33.954 24.338)"><stop offset=".056" stop-color="#de7210"/><stop offset="1" stop-color="#f6c08f"/></linearGradient><linearGradient id="S" gradientUnits="userSpaceOnUse" x1="15.509" y1="33.508" x2="9.7" y2="44.352"><stop offset=".056" stop-color="#de7210"/><stop offset="1" stop-color="#eed8a5"/></linearGradient><linearGradient id="T" gradientUnits="userSpaceOnUse" x1="16.34" y1="35.805" x2="27.067" y2="23.268" gradientTransform="rotate(5.957 21.63 35.315)"><stop offset=".056" stop-color="#de7210"/><stop offset="1" stop-color="#f6c08f"/></linearGradient><linearGradient id="U" gradientUnits="userSpaceOnUse" x1="13.372" y1="22.876" x2="26.26" y2="24.641" gradientTransform="rotate(5.19 27.104 24.746)"><stop offset=".056" stop-color="#de7210"/><stop offset="1" stop-color="#f6c08f"/></linearGradient><linearGradient id="V" gradientUnits="userSpaceOnUse" x1="6.983" y1="23.109" x2="25.178" y2="25.601"><stop offset=".056" stop-color="#de7210"/><stop offset="1" stop-color="#f6c08f"/></linearGradient><linearGradient id="W" gradientUnits="userSpaceOnUse" x1="15.881" y1="22.228" x2="27.724" y2="23.85" gradientTransform="rotate(5.19 27.104 24.746)"><stop offset=".056" stop-color="#de7210"/><stop offset="1" stop-color="#f6c08f"/></linearGradient><linearGradient id="X" gradientUnits="userSpaceOnUse" x1="15.201" y1="26.94" x2="4.522" y2="25.844"><stop offset=".056" stop-color="#de7210"/><stop offset="1" stop-color="#f6c08f"/></linearGradient><linearGradient id="Y" gradientUnits="userSpaceOnUse" x1="10.945" y1="37.1" x2="25.719" y2="19.835" gradientTransform="rotate(5.957 21.63 35.315)"><stop offset=".056" stop-color="#de7210"/><stop offset="1" stop-color="#f6c08f"/></linearGradient><linearGradient id="Z" gradientUnits="userSpaceOnUse" x1="88.331" y1="117.368" x2="117.265" y2="72.741"><stop offset="0" stop-color="#de5c01"/><stop offset=".736" stop-color="#fefd00"/><stop offset=".778" stop-color="#fefe26"/><stop offset=".837" stop-color="#fffe54"/><stop offset=".889" stop-color="#ffff76"/><stop offset=".932" stop-color="#ffff8b"/><stop offset=".961" stop-color="#ffff92"/></linearGradient><linearGradient id="aa" gradientUnits="userSpaceOnUse" x1="105.157" y1="22.738" x2="86.211" y2="14.417"><stop offset="0" stop-color="#f79a09"/><stop offset=".736" stop-color="#fefd00"/><stop offset=".778" stop-color="#fefe26"/><stop offset=".837" stop-color="#fffe54"/><stop offset=".889" stop-color="#ffff76"/><stop offset=".932" stop-color="#ffff8b"/><stop offset=".961" stop-color="#ffff92"/></linearGradient><linearGradient id="ab" gradientUnits="userSpaceOnUse" x1="117.882" y1="41.729" x2="91.359" y2="17.106"><stop offset="0" stop-color="#de5c01"/><stop offset=".736" stop-color="#fefd00"/><stop offset=".778" stop-color="#fefe26"/><stop offset=".837" stop-color="#fffe54"/><stop offset=".889" stop-color="#ffff76"/><stop offset=".932" stop-color="#ffff8b"/><stop offset=".961" stop-color="#ffff92"/></linearGradient><linearGradient id="ac" gradientUnits="userSpaceOnUse" x1="1.14" y1="145.445" x2="-9.966" y2="133.959" gradientTransform="rotate(-1.621 -3656.64 -3767.36)"><stop offset="0" stop-color="#f79a09"/><stop offset=".736" stop-color="#fefd00"/><stop offset=".778" stop-color="#fefe26"/><stop offset=".837" stop-color="#fffe54"/><stop offset=".889" stop-color="#ffff76"/><stop offset=".932" stop-color="#ffff8b"/><stop offset=".961" stop-color="#ffff92"/></linearGradient><linearGradient id="ad" gradientUnits="userSpaceOnUse" x1="113.436" y1="55.834" x2="119.687" y2="34.332"><stop offset="0" stop-color="#f79a09"/><stop offset=".736" stop-color="#fefd00"/><stop offset=".778" stop-color="#fefe26"/><stop offset=".837" stop-color="#fffe54"/><stop offset=".889" stop-color="#ffff76"/><stop offset=".932" stop-color="#ffff8b"/><stop offset=".961" stop-color="#ffff92"/></linearGradient><linearGradient id="ae" gradientUnits="userSpaceOnUse" x1="-51.966" y1="212.788" x2="-52.194" y2="196.434" gradientTransform="rotate(-2.361 -3658.052 -3762.183)"><stop offset="0" stop-color="#f79a09"/><stop offset=".736" stop-color="#fefd00"/><stop offset=".778" stop-color="#fefe26"/><stop offset=".837" stop-color="#fffe54"/><stop offset=".889" stop-color="#ffff76"/><stop offset=".932" stop-color="#ffff8b"/><stop offset=".961" stop-color="#ffff92"/></linearGradient><linearGradient id="af" gradientUnits="userSpaceOnUse" x1="-172.721" y1="332.082" x2="-161.456" y2="309.893" gradientTransform="rotate(-4.052 -3665.396 -3730.748)"><stop offset="0" stop-color="#f79a09"/><stop offset=".736" stop-color="#fefd00"/><stop offset=".778" stop-color="#fefe26"/><stop offset=".837" stop-color="#fffe54"/><stop offset=".889" stop-color="#ffff76"/><stop offset=".932" stop-color="#ffff8b"/><stop offset=".961" stop-color="#ffff92"/></linearGradient><linearGradient id="ag" gradientUnits="userSpaceOnUse" x1="99.206" y1="87.747" x2="100.721" y2="63.169" gradientTransform="rotate(-4.052 187.36 161.744)"><stop offset="0" stop-color="#de5c01"/><stop offset=".736" stop-color="#fefd00"/><stop offset=".778" stop-color="#fefe26"/><stop offset=".837" stop-color="#fffe54"/><stop offset=".889" stop-color="#ffff76"/><stop offset=".932" stop-color="#ffff8b"/><stop offset=".961" stop-color="#ffff92"/></linearGradient><linearGradient id="ah" gradientUnits="userSpaceOnUse" x1="58.369" y1="113.859" x2="105.875" y2="85.465"><stop offset="0" stop-color="#b9120d"/><stop offset=".078" stop-color="#bb180d"/><stop offset=".182" stop-color="#c0290c"/><stop offset=".301" stop-color="#c8450a"/><stop offset=".431" stop-color="#d36c08"/><stop offset=".571" stop-color="#e29e05"/><stop offset=".715" stop-color="#f4da02"/><stop offset=".792" stop-color="#fefd00"/><stop offset=".814" stop-color="#fefd07"/><stop offset=".846" stop-color="#fefd1b"/><stop offset=".884" stop-color="#fefe3c"/><stop offset=".927" stop-color="#fffe69"/><stop offset=".974" stop-color="#ffffa3"/><stop offset="1" stop-color="#ffffc7"/></linearGradient><linearGradient id="ai" gradientUnits="userSpaceOnUse" x1="54.24" y1="93.582" x2="102.907" y2="100.176" gradientTransform="rotate(5.674 66.469 101.705)"><stop offset=".056" stop-color="#de7210"/><stop offset="1" stop-color="#f6c08f"/></linearGradient><linearGradient id="aj" gradientUnits="userSpaceOnUse" x1="39.013" y1="89.89" x2="95.522" y2="107.65" gradientTransform="rotate(8.325 47.227 95.202)"><stop offset=".056" stop-color="#de7210"/><stop offset="1" stop-color="#f6c08f"/></linearGradient><linearGradient id="ak" gradientUnits="userSpaceOnUse" x1="-601.467" y1="628.961" x2="-574.597" y2="680.404" gradientTransform="rotate(-10.359 -3298.864 -3083.507)"><stop offset=".056" stop-color="#de7210"/><stop offset="1" stop-color="#f6c08f"/></linearGradient><marker orient="auto" id="at" overflow="visible"><path d="M10 0l4-4L0 0l14 4-4-4z" fill-rule="evenodd" stroke="#000" stroke-width=".8pt"/></marker><marker orient="auto" id="au" overflow="visible"><path d="M-10 0l-4 4L0 0l-14-4 4 4z" fill-rule="evenodd" stroke="#000" stroke-width=".8pt"/></marker><radialGradient r="8.662" fy="19.009" fx="31.113" cy="19.009" cx="31.113" gradientTransform="matrix(5.14798 0 0 1.69323 -96.037 80.637)" gradientUnits="userSpaceOnUse" id="an" xlink:href="#b"/><linearGradient id="b"><stop offset="0"/><stop offset="1" stop-opacity="0"/></linearGradient><linearGradient y2="35.74" x2="21.408" y1="36.39" x1="22.687" gradientTransform="matrix(-2.83474 .6091 .6091 2.83474 95.497 -38.592)" gradientUnits="userSpaceOnUse" id="ao" xlink:href="#b"/><linearGradient y2="35.803" x2="30.936" y1="29.553" x1="30.936" gradientTransform="matrix(2.89944 0 0 2.89944 -25.717 -6.355)" gradientUnits="userSpaceOnUse" id="ap" xlink:href="#c"/><linearGradient id="c"><stop offset="0" stop-color="#fff"/><stop offset="1" stop-color="#c9c9c9"/></linearGradient><radialGradient r="8.662" fy="19.009" fx="31.113" cy="19.009" cx="31.113" gradientTransform="matrix(2.89944 0 0 2.89944 -26.079 3.794)" gradientUnits="userSpaceOnUse" id="aq" xlink:href="#b"/><linearGradient y2="36.218" x2="22.627" y1="35.818" x1="20.662" gradientTransform="rotate(10.462 72.864 -48.789) scale(2.89944)" gradientUnits="userSpaceOnUse" id="ar" xlink:href="#b"/><linearGradient y2="35.74" x2="21.408" y1="36.39" x1="22.687" gradientTransform="matrix(-2.83474 .6091 .6091 2.83474 134.07 -17.793)" gradientUnits="userSpaceOnUse" id="as" xlink:href="#b"/><linearGradient id="ax" x1="173.38" x2="357.65" y1="556.7" y2="556.7" gradientTransform="matrix(1 0 0 -1 -2.47 1183.444)" gradientUnits="userSpaceOnUse"><stop stop-color="#F7941E" offset="0"/><stop stop-color="#F7941E" offset=".007"/><stop stop-color="#F7941E" offset=".211"/><stop stop-color="#F7941E" offset=".708"/><stop stop-color="#F7941E" offset=".79"/><stop stop-color="#F7941E" offset=".86"/><stop stop-color="#7B7300" offset="1"/></linearGradient><linearGradient id="ay" x1="165.17" x2="349.18" y1="237.87" y2="237.87" gradientTransform="matrix(1 0 0 1.0014 5.87 365.458)" gradientUnits="userSpaceOnUse"><stop stop-color="#C0BEBF" offset="0"/><stop stop-color="#FBFCFC" offset=".5"/><stop stop-color="#C0BEBF" offset="1"/></linearGradient></defs><g transform="translate(21.078 18.021) scale(.74111)"><ellipse ry="59.375" rx="59.336" cy="59.375" cx="63.755" fill="#110070"/><ellipse ry="58.254" rx="58.215" cy="59.375" cx="63.755" fill="url(#d)"/><path d="M55.405 89.446c-.072-.316-.857-1.233-1.458-1.438-.599-.205-1.188.884-1.574-.924-1.266.726-1.812-.2-1.812-.2s-1.365.08-1.629 1.751c-.65.769-2.316 3.566-1.431.657.891-2.927-.94-.23-1.11 1.24-.318.653-.855.719-.517-2.218-1.173-.405-1.772-3.127-1.129-3.179-.747-1.041-.16-2.633.462-2.548.622.08 1.69-1.36 1.657-1.694-.033-.333.482-.095.45-2.336-.033-2.247.847-2.803.919-.924.076 1.872 1.194-.613 1.079-1.566-.116-.949.112-3.094.793-1.826-.793-3.137-.167-3.261.309-1.173 1.193.094 1.234.73 1.234.73 1.321-.325 1.954.67 2.056 1.228 1.224-1.445 2.46.113 2.46.113s.853-.283.445 1.2c-.41 1.478 1.772.678 1.251-.384 1.073-.543 2.666 1.102 3.168 2.224.502 1.127-.86 2.723.202 3.109 1.068.384.6 2.242.6 2.242s2.232 1.238.683 2.301l-.528 1.265s1.01 1.127 1.354.456c.344-.672.466.683.466.683-.129-.24.248 1.396 1.64 1.74 1.398.341 2.283 2.55.731 2.578-1.546.025-1.666-.017-2.085.886-.417.899-2.391.931-3.413-.233-1.087.368-3.021-.106-2.452-.976-.938.547-1.824-.922-1.091-1.577.733-.653-.412-1.499-.797-.563-.381.935-2.404 1.396-2.263-.195.042-.472 1.12-.748 1.134-.354.197.455.277-.036.196-.095z" fill="url(#e)"/><path d="M103.541 43.916c.309.306.917.238 1.254.144.339-.097.291-.337.583-.431.287-.097 1.397.431 1.107 1.584-.673.094-.917.912-.917.912s-.673.287-1.013.144c-.338-.144-.338-.097-.821-.05-.483.05-1.643-.622-.387-.622 1.257 0-.143-.577-.675-.577-.53 0-.097-.528.532-.384-.436-.72-.195-1.251.337-.72z" fill="url(#f)"/><path d="M99.188 46.524c-.337.334.049 1.344.483 1.294.433-.047 1.11-.238 1.11-.238s.337.672 0 .866c-.337.19-1.319.106-.047.575 1.304.479 1.64.334 1.737.094.097-.238.53-1.054.773-1.006.193-.431-.676-.815-.192-1.105.479-.288.096-1.343.096-1.343s-.677.047-.966.528c-.29.48-.674-.047-.964-.047-.049.287-.243.527-.243.527l-.193-.434c-.001-.001-1.354-.047-1.594.289z" fill="url(#g)"/><path d="M90.165 47.314c-.042-.123.384-.62.27.024-.262.458 1.058.87 1.428.36 1.241-1.7-1.17-2.522-2.216-1.732-1.056.797-1.638-.912-.425-1.155 1.209-.245 1.311-2.43-.021-2.438 1.176-.58-.453-2.318-1.799-2.615-.217-1.87-2.189-3.059-3.226-2.38-1.047.681-1.137.561-2.671-.37-1.528-.927-2.264 1.928-1.14 3.175 1.131 1.256.311 3.281.358 2.935 0 0-.426.766-.398 1.053-1.294.439-1.672-1.383-2.475-1.786-.585.763-1.53 1.17-1.53 1.17l.071-1.553s-4.017-2.188-5.251-1.575c-1.521.47-1.881 3.991-.5 4.506 1.383.521-1.735 1.818 1.393 5.116 3.213 3.386 4.455 3.483 5.111 2.932.162-.139.442-.347.784-.578.031.13.083.255.163.373.804 1.209-1.869 2.162-2.242 3.894-.379 1.751-.03 5.007 1.556 5.118.302-1.735 3.27-1.122 1.655.45-1.644 1.603-.491 1.886-.491 1.886s.078 3.003 2.592 2.043a2.632 2.632 0 0 0-.167.632c-.703-.142-2.421-.357-2.841.841-.53 1.512-2.774-.512-4.344.167-1.563.674-3.844 2.887-3.076 4.443 1.476-.7 2.606 2.456.544 1.808-2.069-.65-1.667.583-1.667.583s-2.154 1.699-.137 3.508c-.775.118-2.152.981-1.688 2.874 0 0-.885.032-1.004 1.726-2.887.582-2.711 1.478 1.633.496-1.753.91 1.226 1.338 2.546 1.217 1.322-.12 4.792 1.591 2.185 1.608-2.612.016-1.834 1.294 1.294 1.355 3.123.064 2.795.788 3.259.756.464-.032 2.484 1.561 2.374 2.444-.113.884 2.116 1.801 3.566.788.074.919 3.886.202 4.45-1.455 4.128.631 4.033-.139 3.114-.629-2.067-.316-5.86-3.063-1.746-1.65 4.093 1.411.15-1.11-.929-2.079-2.35-.457-2.47-2.416-2.47-2.416s1.298-.739.274-2.586c2.539-.471 1.006-1.364 1.291-2.215.285-.854 1.574-1.942 2.016-2.03.084-.115.775.023.134.283-.554.006-.161 1.566.502 1.646 2.242.273 1.586-2.654.269-3.243-1.32-.594-.135-2.204.792-1.12.927 1.082 2.993-.133 2.218-1.504 1.232.854 1.896-1.909 1.372-3.495 1.648-1.429 1.595-4.278.32-4.915-.627-.313-.93-.516-1.082-.905.757-.358 1.761-.622 2.155-.269.641.579 2.425-1.018 2.312-2.885.751.412 1.947-3.395.931-4.727 2.326-3.252 1.699-3.547.921-3.002-1.17 1.622-5.013 3.563-2.034.688 2.892-2.791-.769-.675-1.994-.222-1.441 1.805-2.97.938-2.97.938s.065-1.479-1.796-1.509c.86-2.373-.526-1.516-1.011-2.164-.486-.647-.661-2.229-.512-2.634z" fill="url(#h)"/><path d="M60.007 23.541c-.361.941 1.178 2.47 1.951 1.978.775-.495 1.885-1.482 1.885-1.482s1.177.945.701 1.619c-.479.672-2.386 1.428.374 1.122 2.831-.313 3.347-.897 3.333-1.437-.015-.538.141-2.469.631-2.603.015-.99-1.925-.898-1.253-1.889.672-.986-.905-2.606-.905-2.606s-1.228.719-1.382 1.888c-.155 1.167-1.304.538-1.848.806.141.584-.026 1.212-.026 1.212l-.711-.629c.001-.001-2.571 1.168-2.75 2.021z" fill="url(#i)"/><path d="M64.61 72.966c-.337.334.05 1.343.483 1.296.434-.049 1.11-.24 1.11-.24s.337.672 0 .865c-.339.19-1.319.108-.049.575 1.303.48 1.642.336 1.739.096.095-.24.529-1.056.771-1.009.195-.431-.676-.814-.193-1.102.483-.291.099-1.346.099-1.346s-.676.048-.966.529c-.29.479-.676-.049-.966-.049-.049.288-.24.528-.24.528l-.193-.431c-.001 0-1.354-.048-1.595.288z" fill="url(#j)"/><defs><ellipse ry="58.254" rx="58.215" cy="59.375" cx="63.755" id="a"/></defs><path d="M65.061 1.002c-.912.203.613 3.503.613 3.503s-.055 2.216.321 2.329c.374.113 2.852.733 4.147 2.345 1.301 1.614.625 2.463-.458 1.997-1.084-.465-.797.959-.797.959s3.27 1.063.8.995c-2.475-.066 1.666 1.741 1.393 1.93-.273.191-.429 1.231-.429 1.231s-2.183.182-.333.959c6.26 2.637-.669 1.925-.669 1.925l-.884 1.087 1.749 2.194 1.345.962s2.833-.945 3.716-1.093c.884-.146 3.114-1.815 3.114-1.815s.669.478.169-.497c-.501-.976 1.841-.54 2.425.186l4.134 1.867a.778.778 0 0 0 .292.375c.806.565-.729 1.535-.573 2.562.156 1.016 1.093 2.704 2.121 2.526-.18-.969 1.851-1.086 1.144-.006-.706 1.077.077 1.056.077 1.056s.653 1.521 2.034.676c-.056.464.227 1.397 1.413 1.459 0 0-.126.506.848.865-.132 1.737.424 1.792.561-.846.245 1.157.992-.471 1.141-1.25.15-.784 1.756-2.505 1.322-.984-.431 1.508 4.735 2.06 5.308.259.578-1.815 2.637-2.763 2.699-3.038.062-.281-4.583-.712-4.07-.493.514.219 1.47-.948 1.115-1.986.576.116.83-2.301-.083-2.927 1.143-2.405.651-2.48.182-2.001-.57 1.205-2.922 3.023-1.327.783 1.609-2.263-.653-.284-1.438.208-.689 1.341-1.899 1.08-1.899 1.08s-.222-.911-1.516-.607c.151-1.612-.653-.838-1.12-1.154-.285-.193-.558-.627-.726-.999 1.115.452 2.612.933 2.354.104-.167-.542 2.112.643 2.192.396l2.848-.396 2.769-1.75C85.388.164 65.061 1.002 65.061 1.002z" clip-path="url(#k)" fill="url(#l)"/><path d="M38.752 6.095c-10.573 4.747-18.551 14.531-18.551 14.531s.938 2.145 1.265 1.987c.33-.156-2.361 5.628-.386 5.954 1.985.325 7.696-3.578 6.637-3.22-1.056.356.595-2.112.595-2.112s2.972-1.318 1.214.202c-1.743 1.511 2.318.187 2.255.496-.064.311.525 1.147.525 1.147s-1.393 1.494.406.892c6.172-2.075.812 1.779.812 1.779l.106 1.312 2.67.464 1.578-.15s1.381-2.436 1.914-3.098c.535-.663 1.028-3.284 1.028-3.284s.803-.084-.213-.468c-1.016-.385.972-1.583 1.886-1.434l4.303-1.336a.82.82 0 0 0 .47.082c.985-.114.489 1.603 1.294 2.25.796.644 2.627 1.264 3.283.469-.784-.594.674-2.011.86-.751.187 1.249.767.723.767.723s1.543-2.654 2.036-4.177c.27.377 2.788-3.309 2.025-5.067-.771-1.78.479-3.456.34-3.715-.143-.256-.896.528-.34.34.561-.192-1.589.772-1.874-2.061-.288-2.89-.707.243-.985 1.169.377 1.508 4.29-6.093 4.29-6.093L64.006.869c0 .004-11.481-.957-25.254 5.226z" clip-path="url(#k)" fill="url(#m)"/><ellipse ry="19.971" rx="30.825" cy="23.271" cx="62.652" opacity=".5" fill="url(#n)"/></g><g transform="translate(21.078 18.021) scale(.74111)" filter="url(#o)"><path d="M125.321 43.084l-1.426 9.15s-2.039-16.94-4.538-23.273c-3.83-9.704-5.534-9.626-5.545-9.612 2.565 6.519 2.1 10.021 2.1 10.021s-4.545-12.387-16.562-16.328c-14.232-4.665-21.482-2.979-21.428-2.914.054.066 14.709 2.562 17.308 6.133 0 0-6.225 0-12.42 1.785-.28.08 22.793 2.882 27.51 25.938 0 0-2.529-5.277-5.657-6.173 2.057 6.258 1.529 18.133-.43 24.035-.252.759-.51-3.281-4.369-5.021 1.236 8.857-.074 22.905-6.219 26.775-.479.301 3.852-13.868.871-8.39-17.797 27.287-38.956 11.04-47.538 5.249 6.888 1.688 14.205.472 18.441-2.423 4.275-2.922 6.804-5.058 9.075-4.553 2.27.507 3.781-1.771 2.018-3.792-1.765-2.025-6.051-4.808-11.849-3.291-4.089 1.071-9.156 5.595-16.891 1.014-6.599-3.91-6.554-7.085-6.554-9.108 0-2.024 1.8-5.1 5.076-4.595 2.934.453 1.388-1.27 4.545 0 .86.346-.086-4.129-1.31-6.996 2.357-4.919 10.004-6.381 10.575-6.812 1.034-.782.465-1.172.818-2.35.33-1.097.541-4.062-8.017-3.243-3.938.377-6.443-4.726-7.264-5.965a18.383 18.383 0 0 1 1.271-4.338c.587-1.203 1.228-2.305 1.868-3.139.2-.261.374-.49.532-.703 1.276-1.488 2.842-2.76 4.722-3.818.981-.554-10.969-.035-16.346 6.974-1.443.188-3.423-.228-5.636-.228-2.774 0-4.953.303-6.97.81-.323.081-.844.037-1.481-.115-1.775-1.839-6.797-6.259-7.027-12.254 0 0-7.302 5.612-6.209 20.912-.096 8.461-2.594 6.042-3.879 10.634-.598 2.176.899 3.815.899 3.879-.002.033 1.796-1.946 1.796-1.946s-11.323 19.617 3.3 44.66c12.604 21.589 33.755 31.13 55.703 29.272a68.037 68.037 0 0 0 11.564-1.754c51.133-12.363 45.573-74.107 45.573-74.107z" fill="url(#p)"/><path d="M45.469 27.61s2.21 6.039 7.167 6.019c9.457-.038 9.646.093 9.707 1.243.188 3.5-1.54 4.647-2.201 5.145-.663.497-9.668 5.718-9.999 7.211-.331 1.492-10.391-14.198-10.391-14.198l5.717-5.42z" fill="url(#q)"/><path d="M50.504 34.12s3.072 3.922.749 5.491c-2.838 1.916 4.012 2.335 6.494.942s4.006-3.44 4.093-3.745c.087-.305.902-3.054-4.279-2.096-3.276.606-4.476.746-7.057-.592z" fill="url(#r)"/><path d="M60.143 40.017c.502-.378 1.616-1.137 2.042-3.011-.311.126-.34-.23-.707-.076-6.955 7.255-7.221 2.203-11.017 3.22-3.46.947-4.237 2.246-4.383 2.347l.155.221c.997.506 1.953 2.122 2.671 3.564.702.836 1.173 1.248 1.241.945.33-1.493 9.335-6.714 9.998-7.21z" fill="url(#s)"/><path d="M8.18 45.782c-1.42 2.979-10.532 18.377 4.339 44.005 14.552 25.084 39.737 33.276 65.45 27.71 7.34-1.588 15.803-7.331 21.196-11.545-3.465-8.74-1.414-8.412-3.271-7.262-20.714 12.823-37.18.174-49.924-1.443C-.913 91.305 8.345 45.689 8.345 45.689l-.165.093z" fill="url(#t)"/><path d="M47.219 80.933c4.419 1.325 14.06.183 18.201-2.897 2.79-2.074 4.898-3.638 6.671-4.292-3.134-2.129-3.184.889-9.774 2.415-13.728 3.185-20.393-3.695-20.393-3.695.972 5.444 4.372 8.095 5.902 9.036-.406-.36-.619-.571-.607-.567z" fill="url(#u)"/><path d="M32.332 105.794S20.904 92.898 17.714 78.456c-4.704-4.443-8.042-8.2-10.259-10.917 1.28 10.277 6.52 26.232 24.877 38.255z" fill="url(#v)"/><path d="M22.799 94.082s-7.887-11.228-4.93-20.762c2.66-8.571-.565-3.472-2.441-1.64-1.895 1.851-2.869-5.464-2.821-6.307.003-.018.001-.026-.001-.027-.119-.025-3.754 17.526 10.193 28.736z" fill="url(#w)"/><path d="M11.115 84.294S9.317 61.506 15 58.285c9.025-5.115.753-3.919-1.864-2.499-2.645 1.433-2.4-8-2.026-8.896.367-.883-9.315 8.918.005 37.404z" fill="url(#x)"/><path d="M50.601 17.239s-7.145 7.257-7.092 7.282c.054.026.205 9.315.438 11.948.856 1.011 3.524 7.588 1.482 6.128-2.086-1.49-.582-1.522-.4-.765.005.025.005.037 0 .037-.138.064-5.185-10.923 5.572-24.63z" fill="#a40000"/><path d="M16.613 11.647s-7.594 5.825-6.143 21.805c5.878-5.277 14.19-9.222 14.19-9.222-1.395-.878-7.794-5.997-8.047-12.583z" fill="url(#y)"/><path d="M35.328 29.122l11.406 14.185c-3.291-13.93-.761-22.288 7.34-26.847 1.199-.676-16.925.243-18.746 12.662z" fill="url(#z)"/><path d="M27.292 64.164C29.237 51.908 46.294 53.71 46.294 53.71c-.761.565-3.683.903-4.52 3.241-2.762 7.719-.128 24.581 17.078 31.653 1.815.748-34.434-6.328-31.56-24.44z" fill="url(#A)"/><path d="M62.087 37.338c-.084-.015-.158-.013-.195.037-.21.281-1.021 1.239-2.95 2.81-3.583 2.915-5.093 2.177-7.762 2.774-1.215.271-2.37 1.087-3.148 1.741.315.509.609 1.057.871 1.582.702.836 1.173 1.248 1.241.945.331-1.493 9.336-6.714 9.999-7.211.47-.353 1.468-1.054 1.944-2.678z" fill="url(#B)"/><path d="M51.09 55.865c.1-2.59-.081-8.881-2.774-11.611-2.057-2.085-2.54-4.474-2.816-7.201-22.363 8.353-25.556 19.272-23.32 18.917 17.886-2.835 22.914-3.182 28.91-.105z" fill="url(#C)"/><path d="M3.411 71.171s1.554-20.192 11.661-27.582c7.935-5.805 1.773-3.696-1.291-3.456-3.231.256-4.954 2.221-4.331 1.498.027-.03.036-.047.031-.055-.106-.125-7.584 6.15-6.07 29.595z" fill="url(#D)"/><path d="M2.347 55.658s5.416-17.192 16.362-17.047c7.259.097 1.501-6.134-.695-7.081-2.291-.981-2.839-.943-3.374-.469-.802.71-8.004.436-12.293 24.597z" fill="url(#E)"/><path d="M76.185 72.486c.823-.807.249-3.903-4.924-5.78-4.694-1.705-12.021 2.63-14.195 3.486 0 0 8.299-1.555 11.411-1.037 4.218.702 5.7 5.301 7.708 3.331z" fill="url(#F)"/><path d="M10.342 66.822s-.899-16.902 6.676-24.121c5.947-5.67 1.069-3.255-1.444-2.724-2.65.562-3.865 2.377-3.426 1.71.019-.028.023-.043.019-.049-.103-.091-5.619 5.919-1.825 25.184z" fill="url(#G)"/><path d="M4.508 61.453s3.201-16.621 12.293-21.801c7.138-4.069 1.823-2.901-.745-2.991-2.708-.093-4.324 1.375-3.738.834.025-.022.033-.037.03-.042-.076-.115-6.878 4.389-7.84 24z" fill="url(#H)"/><path d="M15.303 68.275s-1.75-10.074 2.021-15.033c3.01-3.957.367-2.021-1.03-1.451-1.458.596-2.011 1.771-1.812 1.34.193-.421-6.488 4.756.821 15.144z" fill="url(#I)"/><path d="M17.303 58.775s-1.75-10.074 2.021-15.033c3.01-3.957.367-2.021-1.03-1.451-1.458.596-2.011 1.771-1.812 1.34.193-.421-6.488 4.756.821 15.144z" fill="url(#J)"/><path d="M6.725 45.003s4.087-8.375 9.52-10.024c4.336-1.315 1.35-1.296.014-1.622-1.396-.338-2.431.234-2.054.022.368-.207-7.33.049-7.48 11.624z" fill="url(#K)"/><path d="M6.142 51.631s4.087-8.375 9.52-10.024c4.336-1.315 1.35-1.296.014-1.622-1.396-.338-2.431.234-2.054.022.367-.208-7.331.049-7.48 11.624z" fill="url(#L)"/><path d="M9.109 49.803s7.209-14.774 16.794-17.684c7.65-2.32 2.382-2.287.024-2.86-2.462-.597-4.288.414-3.624.039.65-.367-12.93.085-13.194 20.505z" fill="url(#M)"/><path d="M14.037 41.846s4.484-9.189 10.445-10.999c4.758-1.443 1.481-1.422.015-1.779-1.532-.371-2.667.257-2.254.024.404-.228-8.042.053-8.206 12.754z" fill="url(#N)"/><path d="M15.499 45.092s4.087-8.375 9.52-10.024c4.336-1.315 1.35-1.296.014-1.622-1.396-.338-2.431.234-2.054.022.367-.208-7.331.049-7.48 11.624z" fill="url(#O)"/><path d="M62.344 34.872c-.047-.873-.176-1.158-4.356-1.229.479.217 1.305.652 2.214 1.398 1.201.984 1.396 2.081 1.52 3.217.407-.774.705-1.841.622-3.386z" fill="url(#P)"/><path d="M37.802 23.206l-3.625 5.833s-14.496-2.273-26.785 9.616c-1.016.982 8.038-21.023 30.41-15.449z" fill="url(#Q)"/><path d="M24.784 33.646s3.863-7.172 8.872-9.339c-2.589.082-8.403 2.106-8.872 9.339z" fill="url(#R)"/><path d="M9.92 40.646s4.087-8.375 9.52-10.024c4.336-1.315 1.35-1.296.014-1.622-1.396-.338-2.431.234-2.054.022.368-.207-7.331.049-7.48 11.624z" fill="url(#S)"/><path d="M18.482 34.745s4.217-6.751 9.235-8.548c-2.527-.083-8.323 1.526-9.235 8.548z" fill="url(#T)"/><path d="M25.712 23.214s-3.18 1.389-8.787-.942l4.999 2.513 3.788-1.571z" fill="url(#U)"/><path d="M24.175 24.105s-4.238 1.642-12.394-.802l6.977 2.776c.863-.798 5.417-1.974 5.417-1.974z" fill="url(#V)"/><path d="M27.268 22.759s-2.813.856-8.009-1.154l4.999 2.513c.528-.467 3.01-1.359 3.01-1.359z" fill="url(#W)"/><path d="M18.496 25.993s-2.09 1.735-7.443 1.806l4.63.151 2.813-1.957z" fill="url(#X)"/><path d="M13.411 34.871s7.153-9.318 13.044-11.428c-2.968-.097-11.975 3.186-13.044 11.428z" fill="url(#Y)"/></g><path d="M124.199 50.76s.771 17.288-23.244 41.304c-2.669 2.668-17.16 16.244-16.65 20.317.179 1.439 38.021-5.805 39.894-61.621z" fill="url(#Z)" transform="translate(21.078 18.021) scale(.74111)"/><path d="M77.64 10.096c28.926 2.222 34.528 23.021 34.53 21.748.073-20.22-27.444-21.755-34.53-21.748z" fill="url(#aa)" transform="translate(21.078 18.021) scale(.74111)"/><path d="M86.449 18.003s20.053 4.099 25.709 25.354c.75 2.815-2.416-17.267-1.439-15.361.975 1.916-8.071-9.358-24.27-9.993z" fill="url(#ab)" transform="translate(21.078 18.021) scale(.74111)"/><path d="M94.464 17.483s18.11 3.775 18.29 32.509c.127 20.338 3.141 7.635 6.131 3.064 2.578-3.948.816-8.76.754-8.748-.01.003-1.305-3.743-.432-2.156.039.07-1.216-1.034-1.207-1.035.201-.03-.697-20.652-23.536-23.634z" fill="url(#ac)" transform="translate(21.078 18.021) scale(.74111)"/><path d="M114.857 21.376s6.505 16.945-.389 25.371c-2.25 2.75-2.502 16.839.247 15.545 2.756-1.296 2.157 7.481 1.796 8.48-.008.019-.01.028-.006.031.18.111 13.592-21.66-1.648-49.427z" fill="url(#ad)" transform="translate(21.078 18.021) scale(.74111)"/><path d="M105.814 39.215s4.095 11.989-.193 20.56l3.244 7.245c2.379-5.844 5.408-18.203-3.051-27.805z" fill="url(#ae)" transform="translate(21.078 18.021) scale(.74111)"/><path d="M113.016 37.789s2.832 19.03-7.387 36.208c.158 3.973-.539 7.569-1.496 10.532.445.586 1.041.987 1.827 1.057-.347.32-.692.62-1.026.904-.614.271-1.243.558-1.852.853-.13.303-.261.597-.389.879a32.456 32.456 0 0 0 2.24-1.731c2.087-.922 3.965-1.638 3.961-1.642 0 0-.383.143-1.303.478-.619.225-1.16.301-1.632.259 7.892-7.192 18.706-23.275 7.057-47.797zm-11.907 50.59c-.902.529-1.558 1.025-1.698 1.408-.103.279.512.118 1.575-.479.055-.319.1-.632.123-.929z" fill="url(#af)" transform="translate(21.078 18.021) scale(.74111)"/><path d="M100.412 58.065s8.057 22.932-17.693 44.432c-1.519 1.269 10.452.726 11.5.25 3.086-1.402 6.733-10.757 6.303-9.637-.427 1.119 11.957-16.536-.11-35.045z" fill="url(#ag)" transform="translate(21.078 18.021) scale(.74111)"/><path d="M111.68 72.61s-4.86 29.744-38.461 32.137c-13.157.938-32.048-2.141-30.375 2.877.519 1.556 2.992 8.043 8.636 9.548 15.275 4.075 55.915 2.741 60.2-44.562z" fill="url(#ah)" transform="translate(21.078 18.021) scale(.74111)"/><path d="M83.657 95.119s-20.559 4.697-33.878-6.641c-12.187-10.377-6.141-1.643-4.488 2.665 1.698 4.418-7.853 1.042-9.289.332-1.431-.701 22.623 14.384 47.655 3.644z" fill="url(#ai)" transform="translate(21.078 18.021) scale(.74111)"/><path d="M70.408 106.325s-24.525-4.82-32.29-21.438c-6.635-14.197-4.879-3.779-5.178.962-.314 4.877-7.191-1.783-8.11-2.942-.026-.028-.044-.047-.046-.042-.137.09 12.649 20.134 45.624 23.46z" fill="url(#aj)" transform="translate(21.078 18.021) scale(.74111)"/><path d="M43.617 104.176s-11.714-9.073-16.995-21.514c-4.438-1.542-10.339-5.067-10.456-5.67 1.875 9.667 11.746 20.954 27.451 27.184z" fill="url(#ak)" transform="translate(21.078 18.021) scale(.74111)"/><path d="M169.512 92.736H339.11" fill="none" stroke="#000" stroke-width="1.633" marker-start="url(#al)" marker-end="url(#am)" transform="translate(-32.514 -31.869)"/><g><g transform="matrix(.8165 0 0 .8165 309.712 5.996)"><path style="marker:none" d="M108.722 112.823c.008 8.102-19.959 14.672-44.592 14.672-24.632 0-44.6-6.57-44.592-14.672-.007-8.102 19.96-14.67 44.592-14.67 24.633-.001 44.6 6.568 44.593 14.67z" overflow="visible" fill="url(#an)" fill-rule="evenodd"/><path style="marker:none" d="M53.884 88.583c3.57-1.685 5.231-5.806 5.231-5.806-2.78-11.722-11.528-19.84-11.528-19.84s7.146 18.39 6.297 25.646z" overflow="visible" opacity=".228" fill="url(#ao)" fill-rule="evenodd"/><path style="marker:none" d="M49.629 114.367h30.753c8.713 0 17.34-3.195 20.502-12.302 3.003-8.647.513-25.115-18.964-38.441H45.528c-19.477 12.301-21.91 29.124-17.426 38.954 4.568 10.014 12.3 11.789 21.527 11.789z" overflow="visible" fill="#696969" fill-rule="evenodd" stroke="#5a5a5a" stroke-width="2.899" stroke-linecap="round" stroke-linejoin="round"/><path style="marker:none" d="M51.679 68.237c9.226 8.2 13.326 37.929 13.326 37.929s4.1-29.728 11.277-38.442l-24.603.513z" overflow="visible" fill="url(#ap)" fill-rule="evenodd"/><path style="marker:none" d="M58.288 71.312s-6.238 4.814-5.7 10.614c-5.919-5.222-6.089-15.227-6.089-15.227l11.79 4.613z" overflow="visible" fill="gray" fill-rule="evenodd"/><path style="marker:none" d="M49.422 111.345l30.425-.064c7.654 0 15.231-2.806 18.009-10.805 2.637-7.596-.275-22.061-17.383-33.767l-33.415-.704C29.949 76.81 26.638 91.587 30.64 100.926c4.003 9.339 9.844 10.355 18.781 10.42z" overflow="visible" opacity=".215" fill="#696969" stroke="#fff" stroke-width="2.899" stroke-linecap="round" stroke-linejoin="round"/><path style="marker:none" d="M71.156 71.312s6.238 4.814 5.7 10.614c5.919-5.222 6.089-15.227 6.089-15.227l-11.789 4.613z" overflow="visible" fill="gray" fill-rule="evenodd"/><path style="marker:none" d="M89.246 58.908C89.25 72.782 78.004 84.03 64.13 84.03c-13.873 0-25.119-11.25-25.115-25.123-.004-13.874 11.242-25.123 25.115-25.123 13.874 0 25.12 11.25 25.116 25.123z" overflow="visible" fill="url(#aq)" fill-rule="evenodd"/><path style="marker:none" d="M89.608 48.76c.004 13.873-11.241 25.123-25.115 25.123-13.874 0-25.12-11.25-25.115-25.123-.004-13.874 11.241-25.123 25.115-25.123 13.874 0 25.12 11.25 25.115 25.123z" overflow="visible" fill="#d3d3d3" fill-rule="evenodd" stroke="#a9a9a9" stroke-width="2.899" stroke-linecap="round" stroke-linejoin="round"/><path style="marker:none" d="M86.521 48.76c.004 12.168-9.86 22.035-22.028 22.035-12.169 0-22.032-9.867-22.028-22.035-.004-12.169 9.86-22.035 22.028-22.035S86.525 36.59 86.52 48.76z" overflow="visible" opacity=".196" fill="none" stroke="#fff" stroke-width="2.899" stroke-linecap="round" stroke-linejoin="round"/><path style="marker:none" d="M37.641 111.87c-3.617-1.58-5.236-5.387-5.236-5.387 2.44-11.798 10.786-20.43 10.786-20.43s-6.609 18.59-5.55 25.818z" overflow="visible" opacity=".228" fill="url(#ar)" fill-rule="evenodd"/><path style="marker:none" d="M92.457 109.382c3.57-1.685 5.232-5.806 5.232-5.806-2.78-11.722-11.529-19.84-11.529-19.84s7.146 18.39 6.297 25.646z" overflow="visible" opacity=".228" fill="url(#as)" fill-rule="evenodd"/><ellipse transform="matrix(.97576 -.24535 .21884 1.09394 -8.614 17.654)" cx="64.223" cy="31.162" rx="41.661" ry="7.26" stroke="#000" stroke-width="2"/><path d="M43.337 36.66l-.447-25.38 9.832-.481 2.901 2.644 1.688-3.526 6.577-2.353 10.053 18.783L44.23 36.91" stroke="#000" stroke-width="1.061"/><path d="M42.917 23.457v6.188l9.249-1.064 7.356-1.804 7.174-2.49 4.82-2.897-2.895-5.473-5.66 4.08-5.732 1.628-5.697 1.122-8.615.71z" fill="#a9a9a9" stroke="#a9a9a9" stroke-width=".957"/><path d="M63.632 49.128a6.702 7.483-8.02 0 1-4.927 5.186 6.702 7.483-8.02 0 1-6.576-2.507 6.702 7.483-8.02 0 1-1.308-7.563l6.316 2.758z" stroke="#000" stroke-width="2"/><ellipse transform="matrix(.70995 0 0 .59587 19.747 20.091)" cx="57.298" cy="50.82" rx=".335" ry="1.899" fill="#fff" stroke="#fff" stroke-width="2"/><g transform="rotate(.431 74.683 48.278)" stroke-width="2"><path transform="matrix(.53936 -.81754 .78734 .54886 .821 61.481)" d="M61.535 58.3a6.702 7.483 0 0 1-5.603 4.448 6.702 7.483 0 0 1-6.162-3.4 6.702 7.483 0 0 1-.24-7.672l5.87 3.612z" stroke="#000"/><ellipse transform="matrix(.70995 0 0 .59587 37.506 19.31)" cx="57.298" cy="50.82" rx=".335" ry="1.899" fill="#fff" stroke="#fff"/></g></g></g><path d="M100.966 160.466v169.599" fill="none" stroke="#000" stroke-width="1.633" marker-start="url(#at)" marker-end="url(#au)" transform="translate(-32.514 -31.869)"/><path d="M341.901 146.656L156.437 317.42" fill="#999" fill-rule="evenodd" stroke="#999" stroke-width="1.633" marker-start="url(#av)" marker-end="url(#aw)" transform="translate(-32.514 -31.869)"/><g transform="translate(29.798 237.91) scale(.21497)"><path enable-background="new" d="M145.73 563.017v93.973c0 13.311 27.258 20.49 52.907 20.49 25.648 0 52.909-7.18 52.909-20.49v-93.973c0-11.565-27.261-17.805-52.909-17.805-25.65 0-52.91 6.24-52.91 17.8z" opacity=".3" fill="#161616"/><path enable-background="new" d="M198.64 550.307c-29.418 0-53.26 7.215-53.26 16.11v93.972c0 10.381 23.842 18.796 53.26 18.796 29.415 0 53.257-8.415 53.257-18.796v-93.972c0-8.9-23.84-16.11-53.26-16.11z" opacity=".2" fill="#161616"/><path enable-background="new" d="M143.98 561.327v93.972c0 13.312 28.161 20.491 54.66 20.491 26.499 0 54.66-7.179 54.66-20.49v-93.973c0-11.565-28.161-17.806-54.66-17.806-26.49 0-54.66 6.24-54.66 17.81z" opacity=".5" fill="#161616"/><path d="M287.042 389.213c3.659 5.61 2.49 273.286-2.267 283.819-3.734 8.344-124.624 102.268-130.918 104.73-81.74-.48-136.84-28.32-145.99-43.028-3.513-18.468-.513-303.247 2.78-309.198 2.928-5.2 157.55-56.983 162.968-58.213 4.907-1.054 109.26 15.638 113.427 21.864z" fill="#c8c7c7"/><path d="M285.434 390.101l.146-.068-.146.137c0-.069-.074-.069-.074-.069v-.136l.514-.206-.149.137-.365.069.365-.07-.145.138-.144.072zm.144-.068l.145-.137.15-.137.364-.136-.365.273.365-.273h.074l-.439.205v.068-.068l-.292.2zm.736-.41h-.074.076-.074l.804-.41-.73.342v.067h.004zm.804-.275l-.804.273v-.068l.803-.208zm1.464-1.028a3.776 3.776 0 0 0-.514-.616c-.145-.205-.365-.341-.585-.478-.364-.274-.878-.547-1.462-.821-.514-.273-1.099-.479-1.757-.753-.66-.273-1.389-.478-2.197-.752-1.534-.547-3.436-1.094-5.487-1.642-2.122-.547-4.463-1.095-6.95-1.71-9.954-2.326-22.905-4.925-36.15-7.25-13.245-2.395-26.64-4.516-37.394-6.157-5.342-.753-10.1-1.437-13.833-1.848-1.828-.205-3.436-.41-4.754-.547-.658-.068-1.243-.068-1.756-.136-.294 0-.514 0-.734-.07h-.658c-.22 0-.366 0-.51.07h-.295c-.145 0-.22 0-.29.068-.15 0-.294.068-.514.137-.145 0-.365.068-.584.137-.22.067-.514.136-.808.205-.29.136-.584.205-.95.342-.733.205-1.611.478-2.56.82-.953.274-2.051.616-3.22 1.027-2.416.752-5.198 1.71-8.417 2.736-3.146 1.026-6.66 2.189-10.537 3.488-15.294 5.132-35.2 11.835-55.104 18.744-19.83 6.91-39.662 13.887-54.664 19.496-3.732 1.437-7.172 2.736-10.245 3.9a331.263 331.263 0 0 0-8.122 3.283c-1.17.478-2.196.958-3.075 1.368-.951.41-1.756.82-2.414 1.162-.367.137-.659.342-.951.48-.292.205-.586.342-.732.478-.292.205-.512.342-.659.479-.366.274-.512.548-.659.753-.072.137-.145.342-.292.615 0 .206-.072.41-.072.616-.075.205-.075.479-.147.753-.073.273-.073.547-.147.889 0 .616-.073 1.368-.22 2.189 0 .889-.073 1.847-.145 2.873-.148 2.12-.295 4.72-.44 7.593a329.034 329.034 0 0 0-.366 9.85c-.512 14.572-1.024 34.477-1.39 57.122-.805 45.286-1.391 101.38-1.391 146.661 0 21.07.147 39.88.367 54.11.072 3.557.145 6.842.22 9.783.072 2.942.219 5.609.291 7.869.073 2.324.22 4.24.293 5.813.074.82.147 1.504.22 2.053.074.343.074.614.074.889.073.206.145.478.145.684l.075.273.145.275c.659 1.026 1.462 2.05 2.416 3.145 1.023 1.094 2.194 2.19 3.512 3.352 2.56 2.189 5.854 4.517 9.878 6.911 7.83 4.788 18.222 9.712 30.955 14.16 12.659 4.445 27.586 8.482 44.49 11.424 16.905 2.94 35.784 4.788 56.277 4.924h.439l.365-.136c.145-.07.29-.137.584-.275.146-.135.365-.205.585-.41.22-.136.44-.273.733-.41l.878-.617c.66-.41 1.39-.888 2.197-1.503a92.204 92.204 0 0 0 2.706-1.916c1.977-1.37 4.244-3.078 6.805-4.993 2.562-1.916 5.417-4.037 8.488-6.363 12.367-9.302 28.176-21.548 43.907-33.998 15.732-12.383 31.467-25.036 43.395-35.024 3-2.533 5.782-4.858 8.268-7.046 2.49-2.121 4.683-4.037 6.515-5.746.95-.89 1.757-1.642 2.487-2.394.804-.753 1.463-1.37 2.05-1.985.585-.614 1.024-1.162 1.39-1.573.219-.273.364-.548.513-.684.145-.275.29-.548.44-.752 0-.139.07-.342.144-.548.075-.205.146-.343.22-.616.074-.41.146-.889.22-1.505.145-.546.22-1.162.29-1.915.074-.752.15-1.505.22-2.395.148-1.71.294-3.761.514-6.088.074-2.324.22-4.924.364-7.729.588-11.356 1.028-26.748 1.392-44.33.73-35.297 1.17-79.625 1.17-119.235 0-26.61-.22-51.098-.585-69.227-.074-4.515-.145-8.688-.294-12.382-.07-3.625-.22-6.841-.365-9.508-.07-1.369-.145-2.6-.22-3.626a85.504 85.504 0 0 0-.22-2.805c-.07-.41-.07-.753-.144-1.094-.074-.342-.074-.684-.146-.89-.074-.273-.074-.547-.148-.752-.071-.137-.071-.274-.146-.342-.08-.114-.152-.25-.224-.321zm-2.708 1.438l.879-.82-.88.82zm-.44.618c.071.205.071.478.146.752 0 .273.074.616.074 1.026.071.753.22 1.642.29 2.668 0 1.026.075 2.258.15 3.557.145 2.668.29 5.883.439 9.508.07 3.626.145 7.799.29 12.314.365 18.059.514 42.55.514 69.16 0 39.54-.365 83.936-1.098 119.167-.44 17.58-.879 32.902-1.392 44.19-.146 2.873-.29 5.405-.436 7.73-.149 2.258-.294 4.31-.44 6.02-.074.821-.148 1.642-.293 2.324 0 .686-.146 1.232-.22 1.78-.074.479-.146.957-.22 1.23 0 .206-.074.276-.074.411 0 .07-.071.137-.071.137 0 .068-.075.138-.149.274-.07.07-.22.275-.29.41-.368.411-.734.89-1.244 1.438-.513.478-1.172 1.162-1.905 1.847-.73.683-1.534 1.436-2.487 2.325-1.828 1.642-3.95 3.557-6.44 5.678a320.25 320.25 0 0 1-8.194 6.979c-11.93 9.987-27.588 22.574-43.324 35.023-15.731 12.383-31.538 24.627-43.759 33.862-3.074 2.325-5.926 4.448-8.488 6.362-2.56 1.916-4.831 3.557-6.804 4.994-.953.684-1.906 1.367-2.71 1.915-.73.548-1.464 1.026-2.048 1.435-.294.205-.585.412-.878.548-.22.138-.44.274-.585.411-.148.068-.294.138-.368.206-20.195-.138-38.637-1.984-55.248-4.857-16.685-2.874-31.395-6.84-43.907-11.219-12.367-4.378-22.539-9.166-30.222-13.819-3.732-2.257-6.878-4.514-9.366-6.636a31.078 31.078 0 0 1-3.147-3.008c-.732-.822-1.391-1.575-1.903-2.327v-.273c-.072-.205-.072-.478-.072-.753a79.716 79.716 0 0 1-.22-1.914c-.147-1.574-.22-3.49-.367-5.747a1081.62 1081.62 0 0 1-.22-7.866c-.072-2.875-.145-6.156-.219-9.715-.22-14.228-.365-32.973-.365-54.042 0-45.286.512-101.312 1.318-146.594.437-22.574.877-42.55 1.39-57.05.145-3.626.292-6.91.438-9.851.147-2.874.22-5.404.367-7.457.072-1.094.147-2.052.22-2.872.072-.821.146-1.506.219-2.121 0-.273.072-.548.072-.753.075-.273.075-.41.147-.616v-.136c0-.068.073-.068.146-.137.147-.069.294-.205.513-.342.293-.068.512-.274.804-.41.66-.342 1.39-.684 2.27-1.095.878-.41 1.902-.821 3-1.3 2.269-.957 4.903-1.983 7.975-3.215 3.074-1.162 6.514-2.53 10.245-3.899 15.002-5.609 34.76-12.587 54.592-19.427 19.831-6.91 39.736-13.682 55.028-18.743 3.805-1.3 7.39-2.463 10.539-3.49 3.146-1.094 5.997-1.983 8.34-2.736 1.246-.41 2.27-.752 3.219-1.094.953-.273 1.831-.548 2.561-.753.294-.136.66-.205.953-.273.294-.137.514-.205.733-.274.22-.068.365-.068.585-.137l.22-.068-.15-.547.075.547h.878c.146 0 .366 0 .585.068.513 0 1.024.07 1.683.137 1.246.069 2.855.274 4.686.478 3.656.411 8.34 1.096 13.68 1.848 10.759 1.573 24.078 3.762 37.25 6.088 13.173 2.394 26.124 4.925 36.004 7.25 2.487.617 4.758 1.164 6.73 1.711 2.051.547 3.88 1.027 5.342 1.574.734.205 1.464.479 2.052.684.51.205 1.098.41 1.462.616.365.205.73.342.95.547 0 0 .074 0 .074.068.005.05.08.186.08.258zM153.273 776.129c.074 0 .074-.069.146-.069h.438v.96l-.583-.889.584.89v.753l-.73-1.574c0-.042.073-.084.145-.084zM9.479 733.914c.073.068.073.204.147.273.073.068.073.205.073.274l-1.83.273 1.537-.752h.077l-.073.068.072-.084h.147-.148zm2.855-307.693v.205c-.072 0-.072.069-.145.069l-.367-.41-1.243-.274 1.243.273-.147-.068.294.137.368.068zm-.511-.14l.147.07-.149-.069zm-1.172-.545l1.023.479-1.023-.478zm1.024.478l-.732-.754.732.753zm162.236-57.528l-.145-1.163.143 1.163zm-.292-1.163l.29 1.163v.069l-.291-1.231z" fill="#010101"/><path d="M281.116 394.754l-3.805 1.505-3.804 1.574-3.808 1.573-3.88 1.71-3.875 1.71-3.879 1.779-3.878 1.778-3.954 1.848-3.95 1.846-3.953 1.916-4.024 1.915-3.95 1.984-4.024 1.983-4.028 1.985-8.122 4.104-8.194 4.104-8.197 4.105-8.268 4.173-8.342 4.104-8.343 4.104-8.343 4.037-4.172 1.983-4.17 1.984-4.243 1.916-4.173 1.914-1.977-.41-2.048-.479-4.107-.884-4.243-.957-4.317-.89-4.39-.957-4.466-.958-4.463-.957-4.61-.958-4.537-.958-4.61-1.026-9.293-1.915-9.294-1.916-4.683-.958-4.61-.958-4.538-.89-4.536-.888-4.465-.889-4.389-.89-4.391-.89-4.246-.82-4.17-.82-2.048-.343-2.05-.41-1.976-.342-1.975-.41-1.977-.343-1.902-.342-1.902-.341-1.83-.411-1.83-.274-1.757-.342-1.755-.342-1.757-.273-1.682-.275-1.61-.341-1.61-.273-1.536-.206-1.538-.274-1.463-.273 3.805 1.095 3.805 1.094 3.879 1.094 3.951 1.027 4.026 1.095 4.024 1.025 4.171 1.095 4.097 1.025 4.171 1.096 4.246 1.025 8.487 2.121 8.562 2.052 8.635 2.12 8.636 2.122 8.56 2.05 8.49 2.122 4.244 1.026 4.17 1.095 4.172 1.026 4.099 1.094 4.024 1.026 4.026 1.095 3.951 1.026 3.878 1.094 3.806 1.095 3.806 1.094.071 4.105.149 4.173.07 4.172.075 4.31.074 4.378.145 4.378.072 4.447.074 4.514.074 4.583.071 4.584.075 4.652v4.72l.074 4.72.07 4.788.075 4.788v4.857l.076 4.857v4.925l.071 4.925.075 4.994.074 9.987.07 10.056v10.193l.075 10.193.145 20.453.075 20.523.074 10.193.071 10.123.074 10.057.074 9.987.072 4.993v4.925l.074 4.926.074 4.855v4.859l.071 4.857.075 4.72.074 4.788v4.652l.07 4.651.075 4.583.075 4.585.07 4.513.075 4.448.074 4.446.145 4.31.075 4.31.07 4.24.146 4.172.074 4.106.075-4.173.07-4.174v-4.309l.075-4.309.075-4.379.07-4.446.075-4.514.074-4.584.071-4.584.074-4.652.074-4.72.146-4.72.074-4.787.071-4.857.074-4.857.075-4.926.07-4.925.15-4.993.07-4.994.075-4.993.22-10.125.219-10.193.145-10.33.22-10.328.44-20.728.364-20.728.22-10.329.219-10.26.149-10.194.22-10.192.07-4.994.15-4.994.07-4.993.074-4.925.075-4.857.07-4.925.075-4.788.145-4.79.075-4.787.074-4.652.07-4.65.075-4.653.075-4.515.07-4.515.075-4.446.071-4.377.074-4.379v-4.24l.074-4.241.071-4.105 8.052-4.037 7.974-4.036 7.977-3.899 7.978-3.967 7.903-3.9 7.829-3.967 7.832-3.9 7.829-3.966 7.683-3.968 7.684-3.967 7.609-4.105 7.538-4.105 3.733-2.052 3.66-2.12 3.73-2.121 3.66-2.12 3.658-2.12 3.66-2.19 3.585-2.189 3.557-2.157z" fill="#fff" fill-opacity=".541" stroke="#fff" stroke-opacity=".541" stroke-width=".0423"/><path d="M281.116 394.754c-40.175 15.87-84.591 41.454-129.378 61.635-42.444-9.44-103.694-22.027-134.573-27.088 39.736 11.56 91.985 22.368 131.722 33.929 2.341 86.947 1.169 218.626 3.51 305.573 1.173-87.696 4.319-221.502 5.487-309.13 42.884-21.696 84.96-41.125 123.232-64.927z" fill="none"/><path d="M32.165 681.102l.731.957.731.89.807.889.878.889.878.821.877.82 1.026.82.95.822 1.025.821 1.098.752 1.098.753 1.17.754 1.099.751 1.243.685 1.171.683 1.243.752 1.318.615 1.318.686 1.316.616 1.318.546 1.39.616 1.389.547 1.39.548 1.39.548 2.928 1.025 2.928.958 3 .821 3 .752 3.074.684 3 .616 3.073.548 3 .41 3.001.41 3 .205 1.536.137 1.465.068 1.39.068h4.317l1.39-.068 1.39-.068 1.318-.07 1.39-.067 1.244-.137 1.318-.205 1.243-.136 1.246-.206 1.243-.275 1.17-.271 1.099-.276 1.098-.272 1.096-.343 1.098-.342-.147-.069h-.072l-.367-.136-.437-.069-.514-.136-.584-.137-.732-.206-.732-.205-.878-.204-.951-.274-1.026-.206-1.096-.273-1.173-.342-1.17-.274-1.317-.343-1.317-.34-1.39-.342-1.463-.41-1.465-.343-1.536-.41-1.61-.412-1.61-.41-1.61-.41-1.683-.48-1.757-.41-3.512-.89-3.585-.957-3.66-.957-3.658-.89-3.66-1.024-3.657-.892-3.587-.956-3.585-.89-1.684-.478-1.755-.41-1.683-.48-1.61-.411-1.61-.41-1.538-.41-1.535-.41-1.465-.344-1.39-.41-1.391-.341-1.316-.341-1.245-.343-1.171-.273-1.098-.343-1.096-.273-.951-.275-.879-.205-.878-.205-.732-.206-.659-.205-.512-.136-.512-.136-.366-.139h-.147l-.148-.169z" fill="#010101" fill-opacity=".161" stroke="#fff" stroke-opacity=".161" stroke-width=".0423"/><path d="M32.165 681.102c14.708 19.77 60.958 29.482 82.911 21.547-3.879-.973-78.009-20.045-82.911-21.551z" fill="none"/><path d="M107.83 644.505L39.334 619.81l-.658.272-.587.275-.584.272-.44.343-.439.41-.439.41-.365.48-.367.41-.292.48-.293.477-.22.48-.218.546-.22.549-.147.478-.22 1.027-.146 1.026-.145.957v2.53l.072.275v.41l10.684 3.49.073.067.074.07.073.068.073.137.146.136.073.205.22.205.146.206.22.273.22.273.22.275.292.34.292.276.294.41.365.272.731.821.732.754.95.82.954.82 1.023.892 1.099.82 1.243.888 1.243.821 1.391.822 1.39.752 1.538.753 1.61.684.804.275.806.34.878.274.877.274.953.205.877.205.951.205.953.206.95.137.952.067 1.024.139 1.025.067h3.218l1.099-.067 1.098-.139 1.098-.136 1.17-.136 1.172-.206 1.17-.273 1.171-.274 1.244-.342 1.245-.41h.072l.145.067h.22l.44.068.439.07.511.068.587.067.658.07.732.068.804.068.879.07.878.068h.879l.951.067h1.902l1.024-.067.953-.068 1.023-.07.952-.136.95-.137.88-.206.878-.203.878-.205.732-.343.804-.343.659-.41.586-.411.585-.547.22-.275.22-.27.218-.276.148-.273.145-.343.127-.342z" fill="#fff" fill-opacity=".388" stroke="#fff" stroke-opacity=".388" stroke-width=".0423"/><path d="M107.83 644.505L39.334 619.81c-7.098 2.326-5.708 12.108-5.708 12.108l10.684 3.488s14.93 21.821 41.42 13.271c.004 0 19.686 3.283 22.102-4.175z" fill="none"/><path d="M107.247 636.159c-22.758-5.542-45.515-11.013-68.276-16.554-.879 3.01-.953 7.32.437 9.576 3.44 1.575 10.391 2.806 13.832 4.378 9.952 8.963 18.66 9.715 34.54 8.483 6.146 1.164 12.294 2.121 18.367 3.285 1.908-3.49 2.42-4.924 1.104-9.167z" fill="#616161"/><path d="M107.247 636.159c-22.758-5.542-45.515-11.013-68.276-16.554-.879 3.01-.953 7.32.437 9.576 3.44 1.575 10.391 2.806 13.832 4.378 9.952 8.963 18.66 9.715 34.54 8.483 6.146 1.164 12.294 2.121 18.367 3.285 1.908-3.49 2.42-4.924 1.104-9.167z" fill="none"/><path d="M283.603 392.838l-132.67 69.57.515 311.183 129.89-102.2 2.267-278.553z" fill="#fff" fill-opacity=".4" stroke="#fff" stroke-opacity=".4" stroke-width=".0423"/><path d="M283.603 392.838l-132.67 69.57.515 311.183 129.89-102.2 2.267-278.553z" fill="none"/><path d="M39.85 700.793l.733.89.805.82.731.89.806.751.804.822.806.753.877.753.878.682.877.686.879.683.95.685.88.615.952.616.951.547 1.975 1.162 2.05 1.028 2.049.956 2.049.891 2.122.752 2.122.751 2.196.616 2.195.548 2.121.548 2.197.411 2.194.341 2.195.275 2.195.204 2.196.137 2.121.136h2.122l2.124-.068 1.975-.137 2.05-.136 1.976-.206 1.902-.34 1.83-.343 1.755-.41 1.757-.412 1.61-.548-.147-.067h-.292l-.293-.138-.366-.068-.44-.137-.584-.135-.586-.136-.659-.138-.731-.205-.732-.206-.804-.205-.879-.205-.95-.274-.952-.205-1.025-.275-1.099-.273-1.096-.273-1.098-.34-1.17-.276-1.172-.341-1.243-.275-1.318-.341-2.563-.686-2.633-.681-2.781-.686-2.779-.684-2.78-.754-5.563-1.435-2.708-.684-2.708-.752-2.634-.685-1.243-.274-1.245-.342-1.243-.341-1.171-.275-1.171-.34-1.098-.274-1.098-.274-1.024-.274-1.026-.273-.95-.275-.877-.204-.807-.205-.878-.206-.731-.205-.66-.205-.586-.136-.584-.205-.512-.07-.44-.136-.366-.137-.292-.068-.19-.254z" fill="#010101" fill-opacity=".161" stroke="#fff" stroke-opacity=".161" stroke-width=".0423"/><path d="M39.85 700.793c15.295 18.88 45.883 22.096 63.006 16.348-2.855-.634-59.275-15.143-63.006-16.327z" fill="none"/><path d="M51.191 720.166l.878 1.027.879.958.95.957 1.025.822 1.025.888 1.024.752 1.098.753 1.171.753 1.098.615 1.243.617 1.171.615 1.244.48 1.317.478 1.244.478 1.317.343 1.318.343 1.316.34 1.39.206 1.319.275 1.39.135 1.318.136 1.39.07h2.78l1.317-.07 1.39-.136 1.318-.135 1.39-.206 1.316-.275 1.318-.274 1.318-.341 1.243-.41h-.072l-.147-.07h-.22l-.292-.066-.22-.07-.367-.136-.364-.07-.44-.136-.439-.069-.44-.135-.511-.138-.586-.138-.585-.136-.586-.205-.659-.135-.657-.138-1.39-.41-1.465-.343-1.609-.411-1.61-.411-1.682-.41-1.685-.477-3.512-.892-3.512-.888-1.683-.479-1.683-.41-1.684-.411-1.535-.41-1.538-.411-1.39-.41-.66-.136-.658-.206-.66-.136-.584-.137-.586-.137-.512-.136-.511-.138-.44-.138-.439-.135-.367-.137-.364-.068-.367-.07-.22-.068-.22-.068-.22-.069h-.156v.042z" fill="#010101" fill-opacity=".161" stroke="#fff" stroke-opacity=".161" stroke-width=".0423"/><path d="M51.191 720.166c8.854 11.152 25.978 14.572 39.516 10.194-1.828-.423-37.102-9.518-39.517-10.195z" fill="none"/><path d="M27.482 450.64l-6.732.89-1.246 148.65 104.278 27.294 2.561-7.935-100.182-24.968 1.32-143.925z" fill="#fdfeff" fill-opacity=".439" stroke="#fff" stroke-opacity=".439" stroke-width=".0423"/><path d="M27.482 450.64l-6.732.89-1.246 148.65 104.278 27.294 2.561-7.935-100.182-24.968 1.32-143.925z" fill="none"/><path d="M125.833 505.778l-.147 4.173-98.06-26.405 98.208 22.232zM127.297 536.014l-.22 4.173-97.983-26.405 98.203 22.228zM125.833 563.991l-.147 4.173-98.06-26.405 98.208 22.228zM125.833 591.49l-.147 4.173-98.06-26.473 98.208 22.3z" fill="#010101" fill-opacity=".231" stroke="#fff" stroke-opacity=".231" stroke-width=".0423"/><path d="M27.846 454.062l97.475 22.78-.805 150.291h1.61l.805-150.836v-.616l-.586-.137-98.131-22.916-.147.753-.216.68zm98.06 22.914l-.585-.136v-.548h.804l-.22.681z" fill="#9e9e9e"/><path d="M170.91 535.557v151.97c0 16.78 41.246 30.395 92.137 30.395 50.889 0 92.134-13.615 92.134-30.396v-151.97H170.902z" fill="url(#ax)"/><ellipse ry="26.053" rx="92.135" cy="535.557" cx="263.049" fill="#e4a124"/><path d="M263.049 665.526c-47.611 0-87.159-11.188-92.006-25.529v3c0 15.757 41.115 28.536 92.006 28.536 50.889 0 92.004-12.779 92.004-28.537v-2.999c-4.84 14.34-44.39 25.53-92 25.53zm0-52.11c-47.611 0-87.159-11.187-92.006-25.53v3.003c0 15.759 41.115 28.536 92.006 28.536 50.889 0 92.004-12.776 92.004-28.536v-3.003c-4.84 14.34-44.39 25.53-92 25.53zm0-46.1c50.889 0 92.004-12.774 92.004-28.534v-3.001c-4.847 14.345-44.39 25.529-92.004 25.529-47.611 0-87.159-11.184-92.006-25.53v3.002c0 15.77 41.12 28.54 92.01 28.54z" fill="url(#ay)"/></g><g fill="red" stroke="red" stroke-width="2"><path d="M204.667 182.068l30.09 30.091-6.111 6.113-30.092-30.092z" stroke-width="2.63298"/><path d="M228.645 182.068l-30.092 30.091 6.113 6.113 30.091-30.092z" stroke-width="2.63298"/></g><text style="line-height:125%" x="246.138" y="84.553" font-weight="400" font-size="25" font-family="sans-serif" letter-spacing="0" word-spacing="0" transform="translate(-32.514 -31.869)"><tspan x="246.138" y="84.553">1</tspan></text><text style="line-height:125%" x="107.317" y="254.543" font-weight="400" font-size="25" font-family="sans-serif" letter-spacing="0" word-spacing="0" transform="translate(-32.514 -31.869)"><tspan x="107.317" y="254.543">2</tspan></text></svg>