<svg xmlns="http://www.w3.org/2000/svg" height="48" width="48" xmlns:xlink="http://www.w3.org/1999/xlink"><defs><linearGradient id="a"><stop stop-color="#9aa29a" offset="0"/><stop stop-color="#b5beb5" offset="1"/></linearGradient><radialGradient id="b" gradientUnits="userSpaceOnUse" cx="6.703" cy="73.616" r="7.228" gradientTransform="scale(1.9022 .5257)"><stop offset="0"/><stop stop-opacity="0" offset="1"/></radialGradient><linearGradient id="i" y2="32.203" gradientUnits="userSpaceOnUse" y1="37.785" gradientTransform="matrix(2.3949 0 0 .78106 2.88 .343)" x2="9.762" x1="8.78"><stop stop-opacity=".129" offset="0"/><stop stop-opacity="0" offset="1"/></linearGradient><linearGradient id="h" y2="24.133" gradientUnits="userSpaceOnUse" y1="13.686" gradientTransform="matrix(1.3709 0 0 1.4438 2.431 -.14)" x2="21.112" x1="11.233"><stop stop-color="#fff" offset="0"/><stop stop-color="#ededed" offset="1"/></linearGradient><linearGradient id="g" y2="52.091" xlink:href="#a" gradientUnits="userSpaceOnUse" y1="37.197" gradientTransform="matrix(2.4548 0 0 .762 2.88 .343)" x2="9.886" x1="8.916"/><linearGradient id="f" y2="29.569" gradientUnits="userSpaceOnUse" y1="15.148" gradientTransform="matrix(1.8193 0 0 1.0282 2.88 .343)" x2="15.311" x1="10.184"><stop stop-color="#fff" offset="0"/><stop stop-color="#dcdcdc" offset="1"/></linearGradient><linearGradient id="e" y2="17.877" gradientUnits="userSpaceOnUse" y1="7.231" gradientTransform="matrix(1.5706 0 0 1.191 2.88 .343)" x2="13.467" x1="5.827"><stop stop-color="#ededed" offset="0"/><stop stop-color="#c8c8c8" offset="1"/></linearGradient><linearGradient id="d" y2="26.023" gradientUnits="userSpaceOnUse" y1="4.746" gradientTransform="matrix(1.3435 0 0 1.4179 2.88 .315)" x2="18.475" x1="11.573"><stop stop-color="#fff" offset="0"/><stop stop-color="#e2e2e2" offset="1"/></linearGradient><linearGradient id="c" y2="15.257" gradientUnits="userSpaceOnUse" y1="15.257" gradientTransform="matrix(1.3435 0 0 1.4179 2.88 .315)" x2="30.6" x1="2.062"><stop stop-color="#989690" offset="0"/><stop stop-color="#656460" offset="1"/></linearGradient></defs><path d="M26.5 38.7a13.75 3.8 0 1 1-27.5 0 13.75 3.8 0 1 1 27.5 0z" opacity=".456" transform="matrix(1.8006 0 0 1.9748 1.084 -38.013)" fill="url(#b)" color="#000"/><path stroke-linejoin="round" d="M6.333 16.972v24.51h36.973l-.062-24.392c-.003-1.378-11.848-14.678-14.033-14.678H20.66c-2.297 0-14.326 13.262-14.326 14.56z" fill-rule="evenodd" stroke="url(#c)" stroke-width=".857" fill="url(#d)"/><path d="M6.923 16.787c-.398-.43 11.887-13.694 13.744-13.694h8.376c1.747 0 14.037 13.128 13.427 13.886L31.61 30.474l-12.315-.318-12.372-13.37z" fill-rule="evenodd" fill="url(#e)"/><path d="M19.078 30.018l-7.333-8.746 24.818-6.936 3.029 6.216-7.416 9.44" fill-rule="evenodd" fill-opacity=".146"/><path d="M18.292 29.836l-7.483-8.81 24.648-6.893 3.174 6.271-7.241 9.407" fill-rule="evenodd" fill-opacity=".146"/><path d="M18.775 29.957l-7.675-8.66 24.968-7.065 3.286 6.593-7.48 9.107" fill-rule="evenodd" fill-opacity=".146"/><path d="M18.594 30.441l-7.333-8.746 24.712-6.894 3.11 6.388-7.12 8.986" fill-rule="evenodd" fill="url(#f)"/><path d="M20.488 29.064L7.092 40.036l13.909-9.604h9.018l12.42 9.482-11.864-10.85H20.488z" fill-rule="evenodd" fill="url(#g)"/><path d="M6.963 16.885L18.48 31.201l1.068-.854L6.964 16.885z" fill-rule="evenodd" fill="url(#g)" color="#000"/><path d="M7.308 17.131l.03 23.211h34.946l-.063-23.084c-.002-.75-11.216-13.799-13.384-13.799h-7.895c-2.253 0-13.635 12.892-13.634 13.672z" stroke="url(#h)" stroke-width=".857" fill="none"/><path d="M20.957 30.453L9.016 38.724l2.219.006 9.998-6.869 8.822-1.423-9.098.015zM11.428 21.67l1.324 1.411 22.791-6.884 2.915 5.682.614-.712-3.069-6.378-24.575 6.881z" fill-rule="evenodd" fill="#fff"/><path d="M13.308 23.636l6.026 6.454 1.197-1.026 10.087.043.812.727 3.975-4.744c-1.154-1.411-22.097-1.454-22.097-1.454z" fill-rule="evenodd" fill="url(#i)"/><path d="M41.813 17.848l-9.952 12.631-1.068-.855 11.02-11.776z" fill-rule="evenodd" fill="#b1b1b1" color="#000"/></svg>