<svg xmlns="http://www.w3.org/2000/svg" width="40.724" height="39.719"><path d="M20.36 0C9.117 0 0 9.116 0 20.363c0 8.995 5.834 16.627 13.925 19.32 1.019.187 1.39-.442 1.39-.982 0-.483-.018-1.763-.028-3.462-5.663 1.23-6.858-2.73-6.858-2.73-.927-2.353-2.262-2.979-2.262-2.979-1.848-1.262.14-1.237.14-1.237 2.044.143 3.12 2.098 3.12 2.098 1.815 3.112 4.765 2.213 5.925 1.692.185-1.315.712-2.213 1.293-2.722-4.521-.515-9.275-2.261-9.275-10.063 0-2.224.794-4.04 2.096-5.464-.21-.515-.909-2.585.2-5.389 0 0 1.709-.548 5.599 2.086a19.555 19.555 0 0 1 5.097-.685c1.73.01 3.472.234 5.098.685 3.887-2.634 5.594-2.086 5.594-2.086 1.111 2.804.412 4.874.203 5.389 1.305 1.423 2.093 3.24 2.093 5.463 0 7.823-4.761 9.544-9.296 10.048.73.629 1.381 1.871 1.381 3.771 0 2.722-.025 4.918-.025 5.585 0 .545.367 1.179 1.4.98 8.085-2.698 13.914-10.325 13.914-19.319C40.724 9.116 31.606 0 20.36 0" fill="#1b1817" fill-rule="evenodd"/></svg>