<svg xmlns="http://www.w3.org/2000/svg" xmlns:xlink="http://www.w3.org/1999/xlink" width="1721.242" height="851.599" viewBox="0 0 455.412 225.319"><defs><linearGradient id="h" x1="-5167.096" x2="-4570.116" y1="697.555" y2="1395.619" gradientTransform="rotate(-65.001 -2052.924 -4777.854)" gradientUnits="userSpaceOnUse"><stop offset="0" stop-color="#f69923"/><stop offset=".312" stop-color="#f79a23"/><stop offset=".838" stop-color="#e97826"/></linearGradient><linearGradient id="i" x1="-9585.342" x2="-5326.209" y1="620.505" y2="620.505" gradientTransform="rotate(-65.001 -2052.924 -4777.854)" gradientUnits="userSpaceOnUse"><stop offset=".323" stop-color="#9e2064"/><stop offset=".63" stop-color="#c92037"/><stop offset=".751" stop-color="#cd2335"/><stop offset="1" stop-color="#e97826"/></linearGradient><linearGradient id="j" x1="-9071.207" x2="-6533.178" y1="1047.69" y2="1047.69" gradientTransform="rotate(-65.001 -2052.924 -4777.854)" gradientUnits="userSpaceOnUse"><stop offset="0" stop-color="#282662"/><stop offset=".095" stop-color="#662e8d"/><stop offset=".788" stop-color="#9f2064"/><stop offset=".949" stop-color="#cd2032"/></linearGradient><linearGradient id="k" x1="-9346.126" x2="-5086.994" y1="580.817" y2="580.817" gradientTransform="rotate(-65.001 -2052.924 -4777.854)" gradientUnits="userSpaceOnUse"><stop offset=".323" stop-color="#9e2064"/><stop offset=".63" stop-color="#c92037"/><stop offset=".751" stop-color="#cd2335"/><stop offset="1" stop-color="#e97826"/></linearGradient><linearGradient id="l" x1="-9035.503" x2="-6797.201" y1="638.441" y2="638.441" gradientTransform="rotate(-65.001 -2052.924 -4777.854)" gradientUnits="userSpaceOnUse"><stop offset="0" stop-color="#282662"/><stop offset=".095" stop-color="#662e8d"/><stop offset=".788" stop-color="#9f2064"/><stop offset=".949" stop-color="#cd2032"/></linearGradient><linearGradient id="m" x1="-9346.126" x2="-5086.994" y1="1021.622" y2="1021.622" gradientTransform="rotate(-65.001 -2052.924 -4777.854)" gradientUnits="userSpaceOnUse"><stop offset=".323" stop-color="#9e2064"/><stop offset=".63" stop-color="#c92037"/><stop offset=".751" stop-color="#cd2335"/><stop offset="1" stop-color="#e97826"/></linearGradient><linearGradient id="n" x1="-9610.334" x2="-5351.202" y1="999.733" y2="999.733" gradientTransform="rotate(-65.001 -2052.924 -4777.854)" gradientUnits="userSpaceOnUse"><stop offset=".323" stop-color="#9e2064"/><stop offset=".63" stop-color="#c92037"/><stop offset=".751" stop-color="#cd2335"/><stop offset="1" stop-color="#e97826"/></linearGradient><linearGradient id="o" x1="-9346.126" x2="-5086.994" y1="1152.726" y2="1152.726" gradientTransform="rotate(-65.001 -2052.924 -4777.854)" gradientUnits="userSpaceOnUse"><stop offset=".323" stop-color="#9e2064"/><stop offset=".63" stop-color="#c92037"/><stop offset=".751" stop-color="#cd2335"/><stop offset="1" stop-color="#e97826"/></linearGradient><linearGradient id="p" x1="-9346.126" x2="-5086.994" y1="1137.725" y2="1137.725" gradientTransform="rotate(-65.001 -2052.924 -4777.854)" gradientUnits="userSpaceOnUse"><stop offset=".323" stop-color="#9e2064"/><stop offset=".63" stop-color="#c92037"/><stop offset=".751" stop-color="#cd2335"/><stop offset="1" stop-color="#e97826"/></linearGradient><linearGradient id="q" x1="-6953.407" x2="-6011.999" y1="1134.716" y2="1134.716" gradientTransform="rotate(-65.001 -2052.924 -4777.854)" gradientUnits="userSpaceOnUse"><stop offset=".323" stop-color="#9e2064"/><stop offset=".63" stop-color="#c92037"/><stop offset=".751" stop-color="#cd2335"/><stop offset="1" stop-color="#e97826"/></linearGradient><linearGradient xlink:href="#h" id="s" gradientUnits="userSpaceOnUse" gradientTransform="rotate(-65.001 -2052.924 -4777.854)" x1="-5167.096" y1="697.555" x2="-4570.116" y2="1395.619"/><linearGradient xlink:href="#i" id="t" gradientUnits="userSpaceOnUse" gradientTransform="rotate(-65.001 -2052.924 -4777.854)" x1="-9585.342" y1="620.505" x2="-5326.209" y2="620.505"/><linearGradient xlink:href="#j" id="u" gradientUnits="userSpaceOnUse" gradientTransform="rotate(-65.001 -2052.924 -4777.854)" x1="-9071.207" y1="1047.69" x2="-6533.178" y2="1047.69"/><linearGradient xlink:href="#k" id="v" gradientUnits="userSpaceOnUse" gradientTransform="rotate(-65.001 -2052.924 -4777.854)" x1="-9346.126" y1="580.817" x2="-5086.994" y2="580.817"/><linearGradient xlink:href="#l" id="w" gradientUnits="userSpaceOnUse" gradientTransform="rotate(-65.001 -2052.924 -4777.854)" x1="-9035.503" y1="638.441" x2="-6797.201" y2="638.441"/><linearGradient xlink:href="#m" id="x" gradientUnits="userSpaceOnUse" gradientTransform="rotate(-65.001 -2052.924 -4777.854)" x1="-9346.126" y1="1021.622" x2="-5086.994" y2="1021.622"/><linearGradient xlink:href="#n" id="y" gradientUnits="userSpaceOnUse" gradientTransform="rotate(-65.001 -2052.924 -4777.854)" x1="-9610.334" y1="999.733" x2="-5351.202" y2="999.733"/><linearGradient xlink:href="#o" id="z" gradientUnits="userSpaceOnUse" gradientTransform="rotate(-65.001 -2052.924 -4777.854)" x1="-9346.126" y1="1152.726" x2="-5086.994" y2="1152.726"/><linearGradient xlink:href="#p" id="A" gradientUnits="userSpaceOnUse" gradientTransform="rotate(-65.001 -2052.924 -4777.854)" x1="-9346.126" y1="1137.725" x2="-5086.994" y2="1137.725"/><linearGradient xlink:href="#q" id="B" gradientUnits="userSpaceOnUse" gradientTransform="rotate(-65.001 -2052.924 -4777.854)" x1="-6953.407" y1="1134.716" x2="-6011.999" y2="1134.716"/><path id="a" d="M9070.42-15.343a4 4 0 0 1-4 4h-612a4 4 0 0 1-4-4V-71.58a4 4 0 0 1 4-4h612a4 4 0 0 1 4 4v56.237z"/><path id="b" d="M9010.42 109.029c0 2.21-1.79 4-4 4h-552c-2.21 0-4-1.79-4-4v-56a4 4 0 0 1 4-4h552a4 4 0 0 1 4 4v56z"/><path id="c" d="M8950.42 232.359c0 2.21-1.79 4-4 4h-492c-2.21 0-4-1.79-4-4v-56a4 4 0 0 1 4-4h492a4 4 0 0 1 4 4v56z"/><path id="d" d="M8890.42 360.04a4 4 0 0 1-4 4h-432a4 4 0 0 1-4-4v-56a4 4 0 0 1 4-4h432a4 4 0 0 1 4 4v56z"/><path id="e" d="M8365.42 334.14c0 16.569-13.43 30-30 30h-435.84c-16.57 0-30-13.431-30-30V-45.58c0-16.568 13.43-30 30-30h435.84c16.57 0 30 13.432 30 30v379.72z"/><path id="f" d="m8108.4 170.358-11.66 20.193a21.006 21.006 0 0 1-36.38 0l-10.53-18.23-.08.047-13.31-23.048a23.13 23.13 0 0 0-40.06 0l-65.78 113.942a23.133 23.133 0 0 0 0 23.127 23.12 23.12 0 0 0 20.03 11.563h131.57c1.35 0 2.69-.118 3.99-.347 1.56.229 3.14.347 4.74.347h184.19a32.37 32.37 0 0 0 28.04-16.189 32.344 32.344 0 0 0 0-32.376l-92.1-159.52a32.37 32.37 0 0 0-28.04-16.189 32.395 32.395 0 0 0-28.04 16.189l-46.49 80.523-.09-.032z"/><path id="g" d="M8018.06 26.59c16.57 0 30 13.432 30 30 0 16.57-13.43 30-30 30s-30-13.43-30-30c0-16.568 13.43-30 30-30z"/><marker style="overflow:visible" id="D" refX="0" refY="0" orient="auto"><path transform="matrix(-.8 0 0 -.8 -10 0)" style="fill-rule:evenodd;stroke:#000;stroke-width:1pt;stroke-opacity:1;fill:#000;fill-opacity:1" d="m0 0 5-5-17.5 5L5 5 0 0z"/></marker><marker style="overflow:visible" id="C" refX="0" refY="0" orient="auto"><path transform="matrix(-.8 0 0 -.8 -10 0)" style="fill-rule:evenodd;stroke:#000;stroke-width:1pt;stroke-opacity:1;fill:#000;fill-opacity:1" d="m0 0 5-5-17.5 5L5 5 0 0z"/></marker><filter id="r" color-interpolation-filters="sRGB"><feGaussianBlur result="blur" stdDeviation="6.1 6.1"/></filter></defs><g transform="translate(138.68 -60)"><g transform="matrix(.67417 0 0 .9476 -141.2 111.394)"><rect transform="matrix(.28245 0 0 .2787 231.343 -89.255)" x="-773.78" y="195.75" width="1165.7" height="648.52" ry=".522" fill="#29b6f6" filter="url(#r)"/><path d="m13.29-29.88 7.524-14.5h45.74l5.817 13.578zM115.898-29.88l7.523-14.5h45.74l5.817 13.578z" fill="#00acc1" fill-rule="evenodd" style="stroke-width:.282221"/><path d="m64.621-29.88 7.523-14.5h45.74l5.818 13.578z" fill="#4dd0e1" fill-rule="evenodd" style="stroke-width:.282221"/><path d="m166.294-29.88 7.523-14.5h45.74l5.818 13.578z" fill="#00acc1" fill-rule="evenodd" style="stroke-width:.282221"/><rect x="12.921" y="-37.054" width="328.985" height="183.026" ry=".147" fill="#fff" style="stroke-width:.282221"/><rect x="12.921" y="-37.054" width="328.985" height="17.566" ry=".014" fill="#80deea" style="stroke-width:.282221"/><rect x="38.177" y="-31.56" width="211.262" height="7.459" ry="1.143" fill="#fff" style="stroke-width:.282221"/><rect x="254.902" y="-31.56" width="72.652" height="7.459" ry="1.143" fill="#fff" style="stroke-width:.282221"/><rect x="331.021" y="-31.046" width="7.315" height="1.476" ry=".226" fill="#fff" style="stroke-width:.282221"/><rect x="331.021" y="-28.433" width="7.315" height="1.476" ry=".226" fill="#fff" style="stroke-width:.282221"/><rect x="331.021" y="-26.022" width="7.315" height="1.547" ry=".237" fill="#fff" style="stroke-width:.282221"/><circle cx="28.107" cy="-27.857" r="4.142" fill="#fff" style="stroke-width:.282221"/><circle cx="21.791" cy="-27.857" r="5.418" fill="#80deea" style="stroke-width:.282221"/><circle cx="20.916" cy="-27.857" r="5.418" fill="#fff" style="stroke-width:.282221"/><path d="M258.477-30.493c-1.21 0-2.192 1.034-2.192 2.309 0 1.275.982 2.309 2.192 2.309.473 0 .911-.159 1.27-.428l1.219 1.285c.114.12.299.12.413 0l.104-.109a.32.32 0 0 0-.003-.435l-1.22-1.285c.256-.377.406-.838.406-1.337 0-1.275-.981-2.309-2.191-2.309zm0 .616a1.607 1.693 0 0 1 1.607 1.693 1.607 1.693 0 0 1-1.607 1.693 1.607 1.693 0 0 1-1.607-1.693 1.607 1.693 0 0 1 1.607-1.693z" fill="#80deea" style="stroke-width:.282221"/><path transform="scale(.97365 1.02567) rotate(45)" fill="#80deea" style="stroke-width:.282221" d="M-5.678-33.264h4.815v.768h-4.815z"/><path transform="scale(.97365 -1.02567) rotate(45)" fill="#80deea" style="stroke-width:.282221" d="M32.539 4.95h4.815v.768h-4.815z"/><path transform="scale(-.97365 1.02567) rotate(45)" fill="#80deea" style="stroke-width:.282221" d="M-41.463 2.517h3.565v.569h-3.565z"/><path transform="scale(-.97365 -1.02567) rotate(45)" fill="#80deea" style="stroke-width:.282221" d="M-3.056 40.924H.509v.569h-3.565z"/><path transform="scale(-.97365 1.02567) rotate(45)" fill="#80deea" style="stroke-width:.282221" d="M-198.638 159.726h3.565v.569h-3.565z"/><path transform="scale(-.97365 -1.02567) rotate(45)" fill="#80deea" style="stroke-width:.282221" d="M-160.265 198.099h3.565v.569h-3.565z"/><rect x="242.274" y="-28.215" width="4.348" height=".713" ry=".214" fill="#80deea" style="stroke-width:.282221"/></g><text xml:space="preserve" style="font-size:4.5861px;line-height:1.25;font-family:Zapfino;-inkscape-font-specification:Zapfino;white-space:pre;inline-size:162.159;stroke-width:.264583" x="-98.421" y="150.416"><tspan x="-98.421" y="150.416"><tspan style="font-style:normal;font-variant:normal;font-weight:400;font-stretch:normal;font-family:Helvetica;-inkscape-font-specification:Helvetica;stroke-width:.264583">Haxx0r ipsum false try catch fopen it&apos;s a feature dereference 
</tspan></tspan><tspan x="-98.421" y="157.281"><tspan style="font-style:normal;font-variant:normal;font-weight:400;font-stretch:normal;font-family:Helvetica;-inkscape-font-specification:Helvetica;stroke-width:.264583">wannabee thread gobble. Tcp brute force flush wabbit private gcc hexadecimal </tspan></tspan><tspan x="-98.421" y="164.146"><tspan style="font-style:normal;font-variant:normal;font-weight:400;font-stretch:normal;font-family:Helvetica;-inkscape-font-specification:Helvetica;stroke-width:.264583">gnu for server ban do gurfle firewall *.* race condition fork tarball emacs </tspan></tspan><tspan x="-98.421" y="171.011"><tspan style="font-style:normal;font-variant:normal;font-weight:400;font-stretch:normal;font-family:Helvetica;-inkscape-font-specification:Helvetica;stroke-width:.264583">recursively. D00dz bar pragma big-endian injection bang python </tspan></tspan><tspan x="-98.421" y="177.875"><tspan style="font-style:normal;font-variant:normal;font-weight:400;font-stretch:normal;font-family:Helvetica;-inkscape-font-specification:Helvetica;stroke-width:.264583">port.Dereference injection less for true James T. Kirk data irc over clock try </tspan></tspan><tspan x="-98.421" y="184.74"><tspan style="font-style:normal;font-variant:normal;font-weight:400;font-stretch:normal;font-family:Helvetica;-inkscape-font-specification:Helvetica;stroke-width:.264583">catch flush int protected segfault rsa ddos then server suitably small values. </tspan></tspan><tspan x="-98.421" y="191.605"><tspan style="font-style:normal;font-variant:normal;font-weight:400;font-stretch:normal;font-family:Helvetica;-inkscape-font-specification:Helvetica;stroke-width:.264583">Bubble sort false tarball bar Dennis Ritchie nak gobble highjack. Ifdef crack </tspan></tspan><tspan x="-98.421" y="198.47"><tspan style="font-style:normal;font-variant:normal;font-weight:400;font-stretch:normal;font-family:Helvetica;-inkscape-font-specification:Helvetica;stroke-width:.264583">class mainframe pragma afk syn xss cat interpreter tcp pwned concurrently </tspan></tspan><tspan x="-98.421" y="205.334"><tspan style="font-style:normal;font-variant:normal;font-weight:400;font-stretch:normal;font-family:Helvetica;-inkscape-font-specification:Helvetica;stroke-width:.264583">protocol var echo ssh void gcc todo stack endif back door vi exception.Boolean </tspan></tspan><tspan x="-98.421" y="212.199"><tspan style="font-style:normal;font-variant:normal;font-weight:400;font-stretch:normal;font-family:Helvetica;-inkscape-font-specification:Helvetica;stroke-width:.264583">flood gnu Donald Knuth ifdef default fork bytes hack the mainframe float </tspan></tspan><tspan x="-98.421" y="219.064"><tspan style="font-style:normal;font-variant:normal;font-weight:400;font-stretch:normal;font-family:Helvetica;-inkscape-font-specification:Helvetica;stroke-width:.264583">concurrently salt stdio.h. </tspan></tspan></text><ellipse style="opacity:.745679;fill:#fff;fill-opacity:1;stroke:none;stroke-width:.900241;stroke-miterlimit:4;stroke-dasharray:none;stroke-dashoffset:0" cx="88.428" cy="123.584" rx="30.705" ry="30.871"/><text xml:space="preserve" style="font-size:12.7px;line-height:1.25;font-family:Zapfino;-inkscape-font-specification:Zapfino;stroke-width:.264583" x="-97.614" y="129.096"><tspan x="-97.614" y="129.096" style="font-style:normal;font-variant:normal;font-weight:400;font-stretch:normal;font-size:12.7px;font-family:Helvetica;-inkscape-font-specification:Helvetica;stroke-width:.264583">Welcome</tspan></text><path style="opacity:.397531;fill:none;stroke:#000;stroke-width:1;stroke-miterlimit:4;stroke-dasharray:2,2;stroke-dashoffset:0" d="M-41.362 115.114h65.655v19.915h-65.655z"/><g class="Graphic"><path d="M315.204 94.254c1.39 2.279.945 111.023-.862 115.303-1.417 3.39-47.327 41.547-49.717 42.547-31.042-.194-51.968-11.505-55.442-17.48-1.334-7.504-.195-123.196 1.056-125.613 1.111-2.112 59.833-23.15 61.89-23.65 1.861-.417 41.49 6.364 43.075 8.893z" fill="#c7c7c7"/><path d="m314.592 94.615.056-.028-.056.056c0-.028-.028-.028-.028-.028v-.055l.195-.084-.056.056-.139.028.14-.028-.056.055zm.056-.028.055-.055.056-.056.139-.055-.139.11.139-.11h.028l-.167.083v.028-.028zm.278-.166h-.028.028-.028l.306-.167-.278.139zm.305-.112-.305.112v-.028zm.556-.416c-.055-.084-.11-.167-.194-.25a.75.75 0 0 0-.223-.195 3.25 3.25 0 0 0-.555-.334c-.195-.11-.417-.194-.667-.305-.25-.111-.528-.195-.834-.306a26.828 26.828 0 0 0-2.084-.667c-.806-.222-1.696-.445-2.64-.695-3.78-.945-8.699-2-13.729-2.946-5.03-.972-10.116-1.834-14.201-2.5-2.029-.306-3.835-.584-5.252-.751-.695-.083-1.307-.167-1.807-.222-.25-.028-.472-.028-.667-.056-.11 0-.194 0-.278-.028h-.25c-.083 0-.139 0-.194.028h-.111c-.056 0-.084 0-.112.028-.055 0-.11.028-.194.055a.86.86 0 0 0-.222.056c-.084.028-.195.056-.306.083-.111.056-.222.084-.361.14-.278.083-.612.194-.973.333-.361.111-.778.25-1.223.417-.917.305-1.973.694-3.196 1.111-1.195.417-2.529.89-4.002 1.418a2049.564 2049.564 0 0 0-20.926 7.614c-7.531 2.807-15.062 5.642-20.76 7.92-1.417.584-2.723 1.112-3.89 1.585-1.195.5-2.223.944-3.085 1.334-.445.194-.834.389-1.167.555-.361.167-.667.334-.917.473-.14.055-.25.139-.361.194-.112.084-.223.14-.278.195-.112.083-.195.139-.25.194-.14.112-.195.223-.25.306-.028.056-.056.14-.112.25 0 .084-.028.167-.028.25-.027.084-.027.195-.055.306-.028.111-.028.222-.056.361 0 .25-.027.556-.083.89 0 .36-.028.75-.056 1.167-.055.861-.11 1.917-.166 3.085a142.462 142.462 0 0 0-.14 4.001c-.194 5.92-.388 14.007-.527 23.205-.306 18.398-.528 41.186-.528 59.583 0 8.56.055 16.202.139 21.983.027 1.445.055 2.779.083 3.974.028 1.195.083 2.279.111 3.196.028.945.083 1.723.111 2.362.028.333.056.611.084.834.027.139.027.25.027.36a.987.987 0 0 1 .056.279l.028.11.055.112c.25.417.556.834.917 1.278.39.445.834.89 1.334 1.362.973.89 2.224 1.834 3.752 2.807 2.974 1.945 6.92 3.946 11.756 5.753 4.807 1.806 10.477 3.446 16.896 4.64 6.42 1.196 13.59 1.946 21.371 2.002h.167l.139-.056.222-.111c.056-.056.14-.083.222-.167.084-.055.167-.111.278-.167l.334-.25c.25-.166.528-.361.834-.611.305-.222.639-.473 1.028-.778.75-.556 1.612-1.25 2.584-2.029.973-.778 2.057-1.64 3.224-2.584 4.697-3.78 10.7-8.755 16.674-13.812 5.975-5.03 11.95-10.172 16.48-14.23 1.14-1.027 2.196-1.972 3.14-2.862a76.165 76.165 0 0 0 2.474-2.334c.361-.361.667-.667.945-.973.305-.305.556-.555.778-.806.222-.25.389-.472.528-.639.083-.11.139-.222.194-.278.056-.11.112-.222.167-.305a.86.86 0 0 1 .056-.223c.028-.083.055-.139.083-.25.028-.167.056-.361.083-.611.056-.222.084-.473.112-.778.027-.306.055-.612.083-.973.056-.695.111-1.528.195-2.473.027-.945.083-2.001.138-3.14.223-4.614.39-10.867.528-18.009.278-14.34.445-32.348.445-48.439 0-10.81-.083-20.76-.222-28.124-.028-1.834-.056-3.53-.111-5.03-.028-1.473-.084-2.779-.14-3.863a91.926 91.926 0 0 0-.083-1.473 42.552 42.552 0 0 0-.083-1.14c-.028-.166-.028-.305-.056-.444-.027-.139-.027-.278-.055-.361-.028-.111-.028-.222-.056-.306-.028-.055-.028-.11-.055-.139a.452.452 0 0 0-.084-.166zm-1.028.583.334-.333zm-.167.25c.028.084.028.195.056.306 0 .111.028.25.028.417.027.306.083.667.11 1.084 0 .416.029.917.056 1.445.056 1.084.112 2.39.167 3.863.028 1.473.056 3.168.111 5.002.14 7.337.195 17.286.195 28.096 0 16.063-.14 34.1-.417 48.411-.167 7.142-.334 13.368-.528 17.953a278.861 278.861 0 0 1-.167 3.14c-.055.917-.111 1.751-.167 2.446-.027.333-.055.667-.11.945 0 .278-.056.5-.084.722-.028.195-.056.39-.083.5 0 .084-.028.112-.028.167 0 .028-.028.056-.028.056 0 .028-.028.055-.056.111a.865.865 0 0 0-.11.167c-.14.166-.279.361-.473.583-.195.195-.445.473-.723.75l-.945.946c-.694.667-1.5 1.445-2.445 2.306-.917.862-1.973 1.834-3.113 2.835-4.53 4.057-10.477 9.17-16.452 14.229-5.975 5.03-11.977 10.004-16.618 13.756-1.168.945-2.252 1.806-3.224 2.584-.973.779-1.834 1.446-2.585 2.03-.361.277-.722.555-1.028.777-.278.223-.556.417-.778.584-.111.083-.222.167-.334.222-.083.056-.166.111-.222.167-.055.028-.111.056-.139.083-7.67-.055-14.673-.806-20.982-1.973-6.336-1.167-11.922-2.779-16.674-4.557-4.697-1.78-8.56-3.724-11.478-5.614-1.417-.917-2.612-1.834-3.557-2.696a12.17 12.17 0 0 1-1.195-1.223 9.547 9.547 0 0 1-.722-.945v-.11c-.028-.084-.028-.195-.028-.306-.028-.223-.056-.5-.083-.779-.056-.639-.084-1.417-.14-2.334a425.17 425.17 0 0 1-.083-3.196 882.264 882.264 0 0 1-.083-3.946c-.083-5.78-.14-13.395-.14-21.955 0-18.397.195-41.157.501-59.555.167-9.17.334-17.285.528-23.177.056-1.473.111-2.807.167-4.002.056-1.167.083-2.195.139-3.029.028-.445.055-.834.083-1.167.028-.334.056-.612.084-.862 0-.11.027-.222.027-.305.028-.112.028-.167.056-.25v-.056c0-.028.028-.028.056-.056.055-.028.11-.083.194-.139.111-.027.195-.11.306-.166.25-.14.528-.278.861-.445.334-.167.723-.334 1.14-.528.861-.39 1.862-.806 3.029-1.306 1.167-.473 2.473-1.028 3.89-1.584 5.698-2.28 13.201-5.114 20.732-7.893a1426.55 1426.55 0 0 1 20.899-7.614c1.445-.528 2.807-1 4.002-1.418 1.195-.444 2.278-.806 3.168-1.111.472-.167.861-.306 1.223-.445.36-.111.694-.222.972-.306.111-.055.25-.083.361-.11.112-.056.195-.084.278-.112.084-.028.14-.028.223-.056l.083-.027-.056-.223.028.223h.334a.69.69 0 0 1 .222.027c.195 0 .39.028.64.056.472.028 1.083.111 1.778.195 1.39.166 3.168.444 5.197.75 4.085.639 9.143 1.528 14.145 2.473 5.002.973 9.921 2.001 13.673 2.946.945.25 1.806.472 2.557.695.778.222 1.473.417 2.028.639.278.083.556.194.779.278.194.083.416.167.555.25.14.083.278.139.362.222 0 0 .027 0 .027.028s.028.083.028.111zm-50.19 156.711c.028 0 .028-.028.056-.028h.167v.39l-.222-.362.222.361v.306l-.278-.64s.028-.027.056-.027zm-54.608-17.147c.028.028.028.084.056.111.028.028.028.084.028.112l-.695.11.583-.305.028-.028-.028.028.028-.028h.056zm1.084-125.002v.084c-.028 0-.028.028-.056.028l-.139-.167-.472-.111.472.11-.055-.027.111.056zm-.195-.055.056.028zm-.444-.222.389.194zm.389.194-.278-.306zm61.611-23.372-.055-.472zm-.11-.472.11.472v.028z"/><path d="m312.953 96.505-1.445.611-1.446.64-1.445.639-1.473.694-1.472.695-1.473.723-1.473.722-1.501.75-1.5.75-1.501.78-1.529.777-1.5.806-1.529.806-1.528.806-3.085 1.667-3.113 1.668-3.112 1.667-3.14 1.695-3.169 1.668-3.168 1.667-3.168 1.64-1.584.806-1.584.806-1.612.778-1.584.778-.75-.167-.779-.194-1.556-.361-1.612-.39-1.64-.36-1.667-.39-1.695-.389-1.695-.389-1.751-.389-1.723-.39-1.75-.416-3.53-.778-3.53-.778-1.778-.39-1.751-.388-1.723-.362-1.723-.36-1.695-.362-1.668-.361-1.667-.362-1.612-.333-1.584-.334-.778-.139-.778-.166-.75-.14-.751-.166-.75-.14-.723-.138-.722-.139-.695-.167-.695-.11-.667-.14-.667-.139-.667-.111-.639-.111-.611-.14-.612-.11-.583-.084-.584-.11-.556-.112 1.445.445 1.445.444 1.473.445 1.501.417 1.528.445 1.529.416 1.584.445 1.556.417 1.584.445 1.612.416 3.224.862 3.251.834 3.28.861 3.279.862 3.251.833 3.224.862 1.612.417 1.584.444 1.584.417 1.556.445 1.529.417 1.528.444 1.501.417 1.473.445 1.445.445 1.445.444.028 1.668.056 1.695.027 1.695.028 1.75.028 1.78.055 1.778.028 1.806.028 1.835.028 1.862.028 1.862.027 1.89v1.917l.028 1.917.028 1.946.028 1.945v1.973l.028 1.973v2.001l.027 2.001.028 2.029.028 4.057.028 4.085v4.141l.028 4.141.055 8.31.028 8.337.028 4.14.027 4.113.028 4.086.028 4.057.028 2.029v2l.028 2.002.027 1.973v1.973l.028 1.973.028 1.917.028 1.946v1.89l.028 1.89.027 1.861.028 1.862.028 1.834.028 1.807.028 1.806.055 1.751.028 1.75.028 1.724.055 1.695.028 1.668.028-1.696.028-1.695v-1.75l.027-1.752.028-1.778.028-1.807.028-1.834.028-1.862.027-1.862.028-1.89.028-1.917.056-1.917.027-1.946.028-1.973.028-1.973.028-2.001.028-2 .055-2.03.028-2.028.028-2.029.083-4.113.083-4.14.056-4.197.083-4.197.167-8.42.14-8.42.082-4.197.084-4.169.055-4.14.084-4.141.028-2.029.055-2.029.028-2.028.028-2.001.028-1.973.027-2.001.028-1.946.056-1.945.027-1.945.028-1.89.028-1.89.028-1.89.028-1.834.027-1.834.028-1.806.028-1.779.028-1.778v-1.723l.028-1.723.027-1.668 3.057-1.64 3.03-1.64 3.029-1.583 3.029-1.612 3.001-1.584 2.974-1.612 2.973-1.584 2.974-1.612 2.918-1.612 2.918-1.612 2.89-1.667 2.863-1.668 1.417-.833 1.39-.862 1.417-.861 1.39-.862 1.389-.861 1.39-.89 1.361-.889z" fill="#fff" fill-opacity=".541" stroke="#fff" stroke-opacity=".541" stroke-width=".02779"/><path d="M312.953 96.505c-15.257 6.447-32.126 16.84-49.134 25.04-16.119-3.836-39.38-8.95-51.107-11.006 15.09 4.697 34.933 9.088 50.023 13.784.89 35.322.445 88.819 1.334 124.14.445-35.627 1.64-89.985 2.084-125.585 16.286-8.81 32.265-16.702 46.8-26.373z" fill="none"/><path d="m218.41 212.836.277.39.278.36.306.362.333.36.334.334.333.334.39.333.36.334.39.333.416.306.417.306.445.305.417.306.472.278.445.278.472.306.5.25.5.278.501.25.5.222.528.25.528.223.528.222.528.222 1.112.417 1.112.39 1.139.333 1.14.305 1.167.278 1.139.25 1.167.223 1.14.166 1.14.167 1.138.084.584.055.556.028.528.028h1.64l.528-.028.528-.028.5-.028.528-.027.472-.056.5-.083.473-.056.472-.083.473-.112.444-.11.417-.112.417-.111.417-.139.417-.139-.056-.028h-.027l-.14-.055-.166-.028-.195-.056-.222-.055-.278-.084-.278-.083-.333-.083-.362-.112-.389-.083-.417-.111-.444-.139-.445-.111-.5-.14-.5-.138-.528-.14-.556-.166-.556-.139-.584-.166-.61-.167-.612-.167-.612-.167-.639-.194-.667-.167-1.334-.361-1.362-.39-1.39-.388-1.389-.362-1.39-.417-1.389-.36-1.361-.39-1.362-.361-.64-.195-.666-.166-.64-.195-.61-.167-.612-.166-.584-.167-.583-.167-.556-.139-.528-.167-.528-.139-.5-.139-.473-.139-.445-.11-.416-.14-.417-.11-.362-.112-.333-.083-.334-.084-.277-.083-.25-.083-.195-.056-.195-.056-.139-.055h-.055z" fill-opacity=".161" stroke="#fff" stroke-opacity=".161" stroke-width=".02779"/><path d="M218.41 212.836c5.585 8.031 23.149 11.978 31.486 8.754-1.473-.389-29.625-8.143-31.487-8.754z" fill="none"/><path d="m247.145 197.968-26.012-10.032-.25.11-.223.112-.222.111-.167.14-.167.166-.166.167-.14.194-.138.167-.111.194-.112.195-.083.195-.083.222-.084.222-.055.195-.084.417-.055.416-.056.39v1.028l.028.11v.168l4.057 1.417.028.028.028.028.028.027.028.056.055.055.028.084.083.083.056.084.083.11.084.112.083.111.111.139.111.111.112.167.138.111.278.334.278.305.362.334.36.333.39.362.417.333.472.361.473.334.528.333.528.306.583.306.612.278.305.11.306.14.334.11.333.112.361.083.334.084.361.083.361.084.362.055.36.028.39.055.39.028h1.222l.417-.028.417-.055.416-.056.445-.055.445-.084.444-.11.445-.112.472-.139.473-.167h.028l.055.028h.084l.166.028.167.028.195.027.222.028.25.028.278.028.306.028.333.027.334.028h.333l.361.028h.723l.39-.028.36-.028.39-.027.36-.056.362-.056.333-.083.334-.083.333-.084.278-.139.306-.139.25-.166.222-.167.223-.222.083-.112.084-.11.083-.112.055-.111.056-.139z" fill="#fff" fill-opacity=".388" stroke="#fff" stroke-opacity=".388" stroke-width=".02779"/><path d="m247.145 197.968-26.012-10.032c-2.696.945-2.168 4.919-2.168 4.919l4.057 1.417s5.67 8.865 15.73 5.391c0 0 7.476 1.334 8.393-1.695z" fill="none"/><path d="M246.922 194.578c-8.643-2.251-17.285-4.475-25.928-6.726-.334 1.223-.362 2.974.166 3.891 1.307.64 3.947 1.14 5.253 1.779 3.78 3.64 7.086 3.946 13.117 3.446 2.334.472 4.669.861 6.975 1.334.723-1.418.918-2.001.417-3.724z" fill="#606060"/><path d="M246.922 194.578c-8.643-2.251-17.285-4.475-25.928-6.726-.334 1.223-.362 2.974.166 3.891 1.307.64 3.947 1.14 5.253 1.779 3.78 3.64 7.086 3.946 13.117 3.446 2.334.472 4.669.861 6.975 1.334.723-1.418.918-2.001.417-3.724z" fill="none"/><path d="m313.898 95.727-50.385 28.263.195 126.419 49.328-41.52z" fill="#fff" fill-opacity=".4" stroke="#fff" stroke-opacity=".4" stroke-width=".02779"/><path d="m313.898 95.727-50.385 28.263.195 126.419 49.328-41.52z" fill="none"/><path d="m221.327 220.84.278.361.306.333.278.362.305.305.306.334.306.306.333.305.334.278.333.278.334.278.361.278.334.25.36.25.362.222.75.473.779.417.778.389.778.361.806.306.806.306.833.25.834.222.806.222.834.167.833.139.834.111.834.084.834.055.806.056h.805l.806-.028.75-.056.779-.055.75-.084.723-.139.695-.139.667-.166.666-.167.612-.222-.056-.028h-.11l-.112-.056-.139-.028-.167-.055-.222-.056-.222-.055-.25-.056-.278-.083-.278-.084-.306-.083-.333-.083-.362-.111-.361-.084-.39-.111-.416-.111-.417-.111-.417-.14-.444-.11-.445-.14-.472-.11-.5-.14-.973-.277-1-.278-1.057-.278-1.056-.278-1.056-.306-2.112-.583-1.028-.278-1.028-.306-1-.278-.473-.111-.473-.14-.472-.138-.445-.111-.445-.14-.416-.11-.417-.111-.39-.112-.388-.11-.362-.112-.333-.083-.306-.084-.333-.083-.278-.083-.25-.084-.223-.055-.222-.084-.195-.028-.166-.055-.14-.056-.11-.028z" fill-opacity=".161" stroke="#fff" stroke-opacity=".161" stroke-width=".02779"/><path d="M221.327 220.84c5.808 7.67 17.425 8.976 23.928 6.642-1.084-.278-22.51-6.17-23.928-6.642z" fill="none"/><path d="m225.635 228.704.333.417.334.39.361.388.39.334.388.361.39.306.416.306.445.305.417.25.472.25.445.25.472.195.5.195.473.194.5.14.5.138.5.14.528.082.5.112.529.055.5.056.528.028h1.056l.5-.028.528-.056.5-.055.529-.084.5-.11.5-.112.5-.139.473-.167h-.028l-.056-.028h-.083l-.111-.027-.084-.028-.139-.056-.139-.028-.166-.055-.167-.028-.167-.055-.194-.056-.223-.056-.222-.055-.222-.084-.25-.055-.25-.056-.529-.166-.555-.14-.612-.166-.611-.167-.64-.167-.638-.194-1.334-.361-1.334-.362-.64-.194-.639-.167-.639-.167-.584-.167-.583-.166-.528-.167-.25-.056-.25-.083-.25-.056-.223-.055-.222-.056-.195-.055-.194-.056-.167-.055-.167-.056-.139-.056-.139-.027-.139-.028-.083-.028-.083-.028-.084-.028z" fill-opacity=".161" stroke="#fff" stroke-opacity=".161" stroke-width=".02779"/><path d="M225.635 228.704c3.362 4.53 9.865 5.92 15.007 4.141-.695-.167-14.09-3.863-15.007-4.14z" fill="none"/><path d="m216.63 119.21-2.556.361-.473 60.389 39.602 11.088.973-3.223-38.046-10.144z" fill="#fcfcfc" fill-opacity=".439" stroke="#fff" stroke-opacity=".439" stroke-width=".02779"/><path d="m216.63 119.21-2.556.361-.473 60.389 39.602 11.088.973-3.223-38.046-10.144z" fill="none"/><path d="m253.981 141.609-.055 1.695-37.24-10.727zM254.537 153.892l-.083 1.696-37.212-10.728zM253.981 165.259l-.055 1.695-37.24-10.727zM253.981 176.43l-.055 1.696-37.24-10.755z" fill-opacity=".231" stroke="#fff" stroke-opacity=".231" stroke-width=".02779"/><path d="m216.77 120.6 37.017 9.253-.306 61.056h.611l.306-61.278v-.25l-.222-.056-37.267-9.31-.056.306zm37.239 9.31-.222-.057v-.222h.305z" fill="#9e9e9e"/></g><g transform="matrix(.01874 0 0 .01874 270.23 131.377)"><path fill="url(#r)" d="M1798.9 20.1C1732.6 59.2 1622.5 170 1491 330.5l120.8 228c84.8-121.3 170.9-230.4 257.8-323.6 6.7-7.4 10.2-10.9 10.2-10.9-3.4 3.6-6.8 7.3-10.2 10.9-28.1 31-113.4 130.5-242.1 328.1 123.9-6.2 314.3-31.5 469.6-58.1 46.2-258.8-45.3-377.3-45.3-377.3S1935.5-60.6 1798.9 20.1z" style="fill:url(#s)"/><path fill="none" d="M1594.4 1320.7c.9-.2 1.8-.3 2.7-.5l-17.4 1.9c-1.1.5-2 1-3.1 1.4 6-.9 11.9-1.9 17.8-2.8zm-123.3 408.4c-9.9 2.2-20 3.9-30.2 5.4 10.2-1.5 20.3-3.3 30.2-5.4zm-838 916.1c1.3-3.4 2.6-6.8 3.8-10.2 26.6-70.2 52.9-138.4 79-204.9 29.3-74.6 58.2-146.8 86.8-216.8 30.1-73.8 59.8-145.1 89.1-214 30.7-72.3 61-141.9 90.7-208.9 24.2-54.5 48-107.3 71.5-158.4 7.8-17 15.6-33.9 23.4-50.6 15.4-33.1 30.7-65.6 45.7-97.3 13.9-29.3 27.7-57.9 41.4-86 4.5-9.4 9.1-18.6 13.6-27.9.7-1.5 1.5-3 2.2-4.5l-14.8 1.6-11.8-23.2c-1.1 2.3-2.3 4.5-3.5 6.8-21.2 42.1-42.2 84.6-63 127.5-12 24.8-24 49.7-35.9 74.7-33 69.3-65.5 139.2-97.4 209.6-32.3 71.1-63.9 142.6-94.9 214.2-30.5 70.3-60.3 140.7-89.6 210.9-29.2 70.1-57.7 140-85.6 209.4-29.1 72.5-57.4 144.3-84.8 215.3-6.2 16-12.4 32-18.5 48-22 57.3-43.4 113.8-64.3 169.6l18.6 36.7 16.6-1.8c.6-1.7 1.2-3.4 1.8-5 26.9-73.5 53.5-145.1 79.9-214.8zm800.1-909.5c.1 0 .1-.1.2-.1 0 0-.1 0-.2.1z"/><use xlink:href="#b" width="100%" height="100%"/><use xlink:href="#b" opacity=".35" width="100%" height="100%"/><use xlink:href="#c" width="100%" height="100%"/><use xlink:href="#c" opacity=".35" width="100%" height="100%"/><path fill="url(#i)" d="M1255.7 1147.6c36.7-68.6 73.9-135.7 111.5-201 39-67.8 78.5-133.6 118.4-197 2.3-3.7 4.7-7.5 7-11.3 39.4-62.4 79.2-122.4 119.3-179.8l-120.8-228c-9.1 11.1-18.2 22.4-27.5 33.9-34.8 43.4-71 90.1-108.1 139.6-41.8 55.8-84.8 115.4-128.5 177.9-40.3 57.8-81.2 118.3-122.1 180.9-34.8 53.3-69.8 108.2-104.5 164.5l-3.9 6.3 157.2 310.5c33.6-66.5 67.6-132.1 102-196.5z" style="fill:url(#t)"/><path fill="url(#j)" d="M539.7 2897.1c-20.8 57.2-41.7 115.4-62.7 174.9-.3.9-.6 1.7-.9 2.6-3 8.4-5.9 16.8-8.9 25.2-14.1 40.1-26.4 76.2-54.5 158.3 46.3 21.1 83.5 76.7 118.7 139.8-3.7-65.3-30.8-126.7-82.1-174.2 228.3 10.3 425-47.4 526.7-214.3 9.1-14.9 17.4-30.5 24.9-47.2-46.2 58.6-103.5 83.5-211.4 77.4-.2.1-.5.2-.7.3.2-.1.5-.2.7-.3 158.8-71.1 238.5-139.3 308.9-252.4 16.7-26.8 32.9-56.1 49.5-88.6-138.9 142.6-299.8 183.2-469.3 152.4l-127.1 13.9c-4 10.7-7.9 21.4-11.8 32.2z" style="fill:url(#u)"/><path fill="url(#k)" d="M599 2612.4c27.5-71 55.8-142.8 84.8-215.3 27.8-69.4 56.4-139.2 85.6-209.4 29.2-70.2 59.1-140.5 89.6-210.9 31-71.6 62.7-143.1 94.9-214.2 31.9-70.3 64.4-140.3 97.4-209.6 11.9-25 23.9-49.9 35.9-74.7 20.8-42.9 41.8-85.4 63-127.5 1.1-2.3 2.3-4.5 3.5-6.8l-157.2-310.5c-2.6 4.2-5.1 8.4-7.7 12.6-36.6 59.8-73.1 121-108.9 183.5-36.2 63.1-71.7 127.4-106.4 192.6-29.3 55-57.9 110.5-85.7 166.5-5.6 11.4-11.1 22.6-16.6 33.9-34.3 70.5-65.2 138.6-93.2 204.1-31.7 74.2-59.6 145.1-84 212.3-16.1 44.2-30.7 86.9-44.1 127.9-11 35-21.5 70.1-31.4 105-23.5 82.3-43.7 164.4-60.3 246.2l158 311.9c20.9-55.8 42.3-112.3 64.3-169.6 6.1-15.9 12.3-32 18.5-48z" style="fill:url(#v)"/><path fill="url(#l)" d="M356.1 2529.2c-19.8 99.8-33.9 199.2-41 298-.2 3.5-.6 6.9-.8 10.4-49.3-79-181.3-156.1-181-155.4 94.5 137 166.2 273 176.9 406.5-50.6 10.4-119.9-4.6-200-34.1 83.5 76.7 146.2 97.9 170.6 103.6-76.7 4.8-156.6 57.5-237.1 118.2 117.7-48 212.8-67 280.9-51.6-108 305.8-216.3 643.4-324.6 1001.8 33.2-9.8 53-32.1 64.1-62.3 19.3-64.9 147.4-490.7 348.1-1050.4 5.7-15.9 11.5-31.9 17.3-48 1.6-4.5 3.3-9 4.9-13.4 21.2-58.7 43.2-118.6 65.9-179.7 5.2-13.9 10.4-27.8 15.6-41.8.1-.3.2-.6.3-.8l-157.8-311.8c-.7 3.5-1.6 7.1-2.3 10.8z" style="fill:url(#w)"/><path fill="url(#m)" d="M1178.1 1370.3c-4.5 9.2-9 18.5-13.6 27.9-13.6 28.1-27.4 56.7-41.4 86-15.1 31.7-30.3 64.1-45.7 97.3-7.8 16.7-15.5 33.5-23.4 50.6-23.5 51.1-47.3 103.9-71.5 158.4-29.7 67-60 136.6-90.7 208.9-29.3 68.9-59 140.2-89.1 214-28.6 70-57.5 142.3-86.8 216.8-26.1 66.5-52.4 134.7-79 204.9-1.3 3.4-2.6 6.8-3.8 10.2-26.4 69.7-53 141.3-79.8 214.7-.6 1.7-1.2 3.4-1.8 5l127.1-13.9c-2.5-.5-5.1-.8-7.6-1.3 152-18.9 354-132.5 484.6-272.7 60.2-64.6 114.8-140.8 165.3-230 37.6-66.4 72.9-140 106.5-221.5 29.4-71.2 57.6-148.3 84.8-231.9-34.9 18.4-74.9 31.9-119 41.3-7.7 1.6-15.6 3.2-23.6 4.6-8 1.4-16.1 2.7-24.3 3.8.1 0 .2-.1.3-.1 141.7-54.5 231.1-159.8 296.1-288.7-37.3 25.4-97.9 58.7-170.5 74.7-9.9 2.2-20 3.9-30.2 5.4-2.6.4-5.1.8-7.6 1.1.1 0 .1-.1.2-.1 0 0 .1 0 .1-.1 49.2-20.6 90.7-43.6 126.7-70.8 7.7-5.8 15.2-11.8 22.4-18.1 11-9.5 21.4-19.5 31.4-30 6.4-6.7 12.6-13.6 18.6-20.8 14.1-16.8 27.3-34.9 39.7-54.6 3.8-6 7.5-12.1 11.2-18.4 4.7-9.1 9.2-18 13.6-26.8 19.8-39.8 35.6-75.3 48.2-106.5 6.3-15.6 11.8-30 16.5-43.4 1.9-5.3 3.7-10.5 5.4-15.5 5-15 9.1-28.3 12.3-40 4.8-17.5 7.7-31.4 9.3-41.5-4.8 3.8-10.3 7.6-16.5 11.3-42.8 25.6-116.2 48.8-175.4 59.7l116.7-12.8-116.7 12.8c-.9.2-1.8.3-2.7.5-5.9 1-11.9 1.9-17.9 2.9 1.1-.5 2-1 3.1-1.4l-399.3 43.8c-.7 1.4-1.4 2.8-2.2 4.3z" style="fill:url(#x)"/><path fill="url(#n)" d="M1627.6 563.1c-35.5 54.5-74.3 116.4-116 186.5-2.2 3.6-4.4 7.4-6.6 11.1-36 60.7-74.3 127.3-114.5 200.3-34.8 63-71 130.6-108.6 203.3-32.8 63.3-66.7 130.5-101.5 201.6l399.3-43.8c116.3-53.5 168.3-101.9 218.8-171.9 13.4-19.3 26.9-39.5 40.3-60.4 41-64 81.2-134.5 117.2-204.6 34.7-67.7 65.3-134.8 88.8-195.3 14.9-38.5 26.9-74.3 35.2-105.7 7.3-27.7 13-54 17.4-79.1-155.5 26.5-345.9 51.9-469.8 58z" style="fill:url(#y)"/><path fill="#be202e" d="M1369.6 1939.4c-8 1.4-16.1 2.7-24.3 3.8 8.2-1.1 16.3-2.4 24.3-3.8z"/><path fill="#be202e" d="M1369.6 1939.4c-8 1.4-16.1 2.7-24.3 3.8 8.2-1.1 16.3-2.4 24.3-3.8z" style="opacity:.35"/><path fill="url(#o)" d="M1369.6 1939.4c-8 1.4-16.1 2.7-24.3 3.8 8.2-1.1 16.3-2.4 24.3-3.8z" style="fill:url(#z)"/><path fill="#be202e" d="M1433.2 1735.7c2.6-.3 5.1-.8 7.6-1.1-2.5.3-5 .7-7.6 1.1z"/><path fill="#be202e" d="M1433.2 1735.7c2.6-.3 5.1-.8 7.6-1.1-2.5.3-5 .7-7.6 1.1z" style="opacity:.35"/><path fill="url(#p)" d="M1433.2 1735.7c2.6-.3 5.1-.8 7.6-1.1-2.5.3-5 .7-7.6 1.1z" style="fill:url(#A)"/><path fill="#be202e" d="M1433.5 1735.6s.1 0 .1-.1c0 0-.1 0-.1.1z"/><path fill="#be202e" d="M1433.5 1735.6s.1 0 .1-.1c0 0-.1 0-.1.1z" style="opacity:.35"/><path fill="url(#q)" d="M1433.5 1735.6s.1 0 .1-.1c0 0-.1 0-.1.1z" style="fill:url(#B)"/></g><text xml:space="preserve" style="font-size:12.7px;line-height:1.25;font-family:'Courier New';-inkscape-font-specification:'Courier New';stroke-width:.264583" x="71.497" y="107.454"><tspan x="71.497" y="107.454" style="font-style:normal;font-variant:normal;font-weight:700;font-stretch:normal;font-size:12.7px;font-family:'Courier New';-inkscape-font-specification:'Courier New Bold';stroke-width:.264583">GET /username.php</tspan></text><text xml:space="preserve" style="font-size:11.2889px;line-height:1.25;font-family:'Courier New';-inkscape-font-specification:'Courier New';stroke-width:.264583" x="100.422" y="162.399"><tspan x="100.422" y="162.399" style="font-style:normal;font-variant:normal;font-weight:700;font-stretch:normal;font-size:11.2889px;font-family:'Courier New';-inkscape-font-specification:'Courier New Bold';stroke-width:.264583">&lt;i&gt;Sjoerd&lt;/i&gt;</tspan></text><path style="fill:none;stroke:#000;stroke-width:1;stroke-linecap:butt;stroke-linejoin:miter;stroke-miterlimit:4;stroke-dasharray:none;stroke-opacity:1;marker-end:url(#C)" d="M-4.976 119.423s45.318-8.14 102.87-6.703c62.82 1.57 111.341 17.803 111.341 17.803"/><path style="fill:none;stroke:#000;stroke-width:1;stroke-linecap:butt;stroke-linejoin:miter;stroke-miterlimit:4;stroke-dasharray:none;stroke-opacity:1;marker-end:url(#D)" d="M208.419 141.409s-45.318 8.14-102.87 6.702c-62.82-1.57-111.341-17.803-111.341-17.803"/></g></svg>