<?xml version="1.0" encoding="UTF-8" standalone="no"?>
<!-- Created with Inkscape (http://www.inkscape.org/) -->

<svg
   xmlns:dc="http://purl.org/dc/elements/1.1/"
   xmlns:cc="http://creativecommons.org/ns#"
   xmlns:rdf="http://www.w3.org/1999/02/22-rdf-syntax-ns#"
   xmlns:svg="http://www.w3.org/2000/svg"
   xmlns="http://www.w3.org/2000/svg"
   version="1.1"
   width="75.767311"
   height="76.247993"
   id="svg3070">
  <defs
     id="defs3072" />
  <metadata
     id="metadata3075">
    <rdf:RDF>
      <cc:Work
         rdf:about="">
        <dc:format>image/svg+xml</dc:format>
        <dc:type
           rdf:resource="http://purl.org/dc/dcmitype/StillImage" />
        <dc:title></dc:title>
      </cc:Work>
    </rdf:RDF>
  </metadata>
  <g
     transform="translate(-414.43526,-395.74571)"
     id="layer1">
    <g
       id="g3001">
      <path
         d="m 414.43526,401.20764 c 0,-3.01573 2.50672,-5.46193 5.59907,-5.46193 l 64.56918,0 c 3.09224,0 5.59906,2.4462 5.59906,5.46193 l 0,65.32413 c 0,3.01674 -2.50682,5.46193 -5.59906,5.46193 l -64.56918,0 c -3.09235,0 -5.59907,-2.44519 -5.59907,-5.46193 l 0,-65.32413 z"
         id="path14"
         style="fill:#006699;fill-opacity:1;fill-rule:nonzero;stroke:none" />
      <path
         d="m 437.40268,459.57318 0,-34.43024 -11.44398,0 0,34.43024 11.44398,0 z m -5.72204,-39.13111 c 3.99075,0 6.47465,-2.64385 6.47465,-5.94791 -0.0744,-3.37843 -2.4839,-5.94893 -6.39895,-5.94893 -3.91464,0 -6.47414,2.5705 -6.47414,5.94893 0,3.30406 2.48339,5.94791 6.32386,5.94791 l 0.0744,0 z"
         id="path28"
         style="fill:#ffffff;fill-opacity:1;fill-rule:evenodd;stroke:none" />
      <path
         d="m 443.73499,459.57318 11.44388,0 0,-19.2273 c 0,-1.02902 0.0744,-2.05702 0.37656,-2.79261 0.82728,-2.05599 2.71028,-4.18534 5.8717,-4.18534 4.14102,0 5.79753,3.15735 5.79753,7.78588 l 0,18.41937 11.44296,0 0,-19.74181 c 0,-10.57543 -5.64583,-15.49636 -13.17507,-15.49636 -6.17368,0 -8.88396,3.45077 -10.38979,5.8012 l 0.0764,0 0,-4.99327 -11.44387,0 c 0.15018,3.2307 0,34.43024 0,34.43024 z"
         id="path30"
         style="fill:#ffffff;fill-opacity:1;fill-rule:evenodd;stroke:none" />
    </g>
  </g>
</svg>
