<svg xmlns="http://www.w3.org/2000/svg" width="75.767" height="76.248"><path d="M0 5.462C0 2.446 2.507 0 5.6 0h64.568c3.092 0 5.6 2.446 5.6 5.462v65.324c0 3.017-2.508 5.462-5.6 5.462H5.6C2.507 76.248 0 73.803 0 70.786V5.462z" fill="#069"/><path d="M22.967 63.827v-34.43H11.523v34.43h11.444zm-5.722-39.13c3.991 0 6.475-2.644 6.475-5.949-.074-3.378-2.484-5.948-6.399-5.948s-6.474 2.57-6.474 5.948c0 3.305 2.483 5.948 6.324 5.948h.074zM29.3 63.827h11.444V44.6c0-1.029.074-2.057.376-2.792.827-2.056 2.71-4.186 5.872-4.186 4.14 0 5.797 3.158 5.797 7.786v18.42h11.443V44.085c0-10.576-5.645-15.497-13.175-15.497-6.173 0-8.884 3.451-10.39 5.802h.077v-4.994H29.3c.15 3.23 0 34.43 0 34.43z" fill="#fff" fill-rule="evenodd"/></svg>