<svg xmlns="http://www.w3.org/2000/svg" xmlns:xlink="http://www.w3.org/1999/xlink" width="696.903" height="750.758" viewBox="0 0 184.389 198.638" xmlns:v="https://vecta.io/nano"><style><![CDATA[.B{fill:#c4c5c2}.C{stroke:#000}.D{font-family:sans-serif}.E{fill-rule:evenodd}.F{stroke-width:.265}.G{overflow:visible}.H{fill:#000}.I{fill-opacity:1}.J{stroke-width:1pt}.K{stroke-opacity:1}.L{font-size:4.586px}.M{fill-opacity:.266}.N{font-size:4.233px}.O{fill:#888a85}.P{fill:#fbb}.Q{fill:none}.R{stroke:#888a85}.S{stroke-miterlimit:2}.T{fill:#fcffba}]]></style><defs><marker id="A" refX="0" refY="0" orient="auto" class="G"><path transform="matrix(-.8 0 0 -.8 -10 0)" d="M0 0l5-5-17.5 5L5 5z" class="C E H I J K"/></marker><marker id="B" refX="0" refY="0" orient="auto" class="G"><path transform="matrix(-.8 0 0 -.8 -10 0)" d="M0 0l5-5-17.5 5L5 5z" class="C E H I J K"/></marker><marker id="C" refX="0" refY="0" orient="auto" class="G"><path transform="matrix(-.8 0 0 -.8 -10 0)" d="M0 0l5-5-17.5 5L5 5z" class="C E H I J K"/></marker><marker id="D" refX="0" refY="0" orient="auto" class="G"><path transform="matrix(-.8 0 0 -.8 -10 0)" d="M0 0l5-5-17.5 5L5 5z" class="C E H I J K"/></marker><marker id="E" refX="0" refY="0" orient="auto" class="G"><path transform="matrix(-.8 0 0 -.8 -10 0)" d="M0 0l5-5-17.5 5L5 5z" class="C E H I J K"/></marker><linearGradient xlink:href="#G" id="F" x1="297.505" y1="-290.306" x2="347.918" y2="-273.38"/><linearGradient id="G" gradientUnits="userSpaceOnUse"><stop offset="0" stop-color="#fff"/><stop offset="1" stop-color="#fff" stop-opacity="0"/></linearGradient><linearGradient x1="240.074" y1="-393.407" x2="245.827" y2="-388.55" id="H" xlink:href="#G"/><linearGradient x1="246.74" y1="-391.314" x2="252.698" y2="-385.352" id="I" xlink:href="#G"/><linearGradient x1="230.876" y1="-390.44" x2="235.257" y2="-386.959" id="J" xlink:href="#G"/><linearGradient x1="238.005" y1="-388.475" x2="245.655" y2="-382.645" id="K" xlink:href="#G"/><linearGradient x1="-156.29" y1="-100.534" x2="-153.098" y2="-96.545" id="L" xlink:href="#G"/><linearGradient xlink:href="#G" id="M" x1="271.022" y1="-441.052" x2="285.029" y2="-431.97"/><linearGradient xlink:href="#G" id="N" x1="287.517" y1="-439.753" x2="289.676" y2="-436.322"/><linearGradient xlink:href="#G" id="O" x1="286.512" y1="-441.291" x2="289.854" y2="-436.145"/><linearGradient xlink:href="#G" id="P" x1="285.941" y1="-439.939" x2="289.391" y2="-436.443"/><linearGradient xlink:href="#G" id="Q" x1="275.942" y1="-437.105" x2="279.975" y2="-431.918"/><linearGradient xlink:href="#G" id="R" x1="286.666" y1="-439.484" x2="289.766" y2="-436.707"/><linearGradient xlink:href="#G" id="S" x1="284.802" y1="-441.233" x2="288.9" y2="-436.831"/><marker id="T" refX="0" refY="0" orient="auto" class="G"><path transform="matrix(-.8 0 0 -.8 -10 0)" d="M0 0l5-5-17.5 5L5 5z" class="C E H I J K"/></marker><marker id="U" refX="0" refY="0" orient="auto" class="G"><path transform="matrix(-.8 0 0 -.8 -10 0)" d="M0 0l5-5-17.5 5L5 5z" class="C E H I J K"/></marker><marker id="V" refX="0" refY="0" orient="auto" class="G"><path transform="matrix(-.8 0 0 -.8 -10 0)" d="M0 0l5-5-17.5 5L5 5z" class="C E H I J K"/></marker><marker id="W" refX="0" refY="0" orient="auto" class="G"><path transform="matrix(-.8 0 0 -.8 -10 0)" d="M0 0l5-5-17.5 5L5 5z" class="C E H I J K"/></marker><marker id="X" refX="0" refY="0" orient="auto" class="G"><path transform="matrix(-.8 0 0 -.8 -10 0)" d="M0 0l5-5-17.5 5L5 5z" class="C E H I J K"/></marker><marker id="Y" refX="0" refY="0" orient="auto" class="G"><path transform="matrix(-.8 0 0 -.8 -10 0)" d="M0 0l5-5-17.5 5L5 5z" class="C E H I J K"/></marker><marker id="Z" refX="0" refY="0" orient="auto" class="G"><path transform="matrix(-.8 0 0 -.8 -10 0)" d="M0 0l5-5-17.5 5L5 5z" class="C E H I J K"/></marker><marker id="a" refX="0" refY="0" orient="auto" class="G"><path transform="matrix(-.8 0 0 -.8 -10 0)" d="M0 0l5-5-17.5 5L5 5z" class="C E H I J K"/></marker><marker id="b" refX="0" refY="0" orient="auto" class="G"><path transform="matrix(-.8 0 0 -.8 -10 0)" d="M0 0l5-5-17.5 5L5 5z" class="C E H I J K"/></marker><marker id="c" refX="0" refY="0" orient="auto" class="G"><path transform="matrix(-.8 0 0 -.8 -10 0)" d="M0 0l5-5-17.5 5L5 5z" class="C E H I J K"/></marker><linearGradient xlink:href="#G" id="d" x1="240.074" y1="-393.407" x2="245.827" y2="-388.55"/><linearGradient xlink:href="#G" id="e" x1="246.74" y1="-391.314" x2="252.698" y2="-385.352"/><linearGradient xlink:href="#G" id="f" x1="230.876" y1="-390.44" x2="235.257" y2="-386.959"/><linearGradient xlink:href="#G" id="g" x1="238.005" y1="-388.475" x2="245.655" y2="-382.645"/><linearGradient xlink:href="#G" id="h" x1="-156.29" y1="-100.534" x2="-153.098" y2="-96.545"/><path id="i" d="M120.919 28.753h22.923v11.575h-22.923z"/><path id="j" d="M143.843 34.55c29.051-.454 22.914 37.301 0 36.975"/><path id="k" d="M311.503-296c-2.772 0-5.108 1.574-6.406 3.813-.944-.475-1.965-.812-3.094-.812-3.864 0-7 3.136-7 7s3.136 7 7 7c2.42 0 4.43-1.319 5.688-3.187 1.134.69 2.389 1.188 3.813 1.188.913 0 1.753-.232 2.563-.531.51.868 1.179 1.58 2 2.156-.007.13-.062.243-.062.375 0 3.864 3.136 7 7 7s7-3.136 7-7c0-2.37-1.259-4.358-3.062-5.625.007-.13.063-.243.063-.375 0-3.864-3.136-7-7-7-.623 0-1.175.222-1.75.375-1.195-2.559-3.741-4.375-6.75-4.375z"/><path id="l" d="M311.503-295c-2.78 0-5.135 1.762-6.062 4.219-.985-.709-2.131-1.219-3.437-1.219-3.312 0-6 2.688-6 6s2.688 6 6 6c2.428 0 4.493-1.456 5.438-3.531 1.121.918 2.502 1.531 4.063 1.531 1.075 0 2.044-.319 2.938-.781.398 1 1.101 1.786 1.938 2.438-.18.596-.375 1.19-.375 1.844 0 3.588 2.912 6.5 6.5 6.5s6.5-2.912 6.5-6.5c0-2.361-1.334-4.33-3.219-5.469.063-.347.219-.666.219-1.031 0-3.312-2.688-6-6-6a6.01 6.01 0 0 0-2.406.5c-.854-2.594-3.215-4.5-6.094-4.5z"/><path id="m" d="M329.003-278.5a6.5 6.5 0 1 1-13 0 6.5 6.5 0 1 1 13 0z"/><path id="n" d="M317.003-288.5a5.5 5.5 0 1 1-11 0 5.5 5.5 0 1 1 11 0z"/><path id="o" d="m 250.18322,-389.30136 a 6.23138,6.23138 0 1 1 -12.46276,0 6.23138,6.23138 0 1 1 12.46276,0 z"/><path id="p" d="m 257.25429,-385.7879 a 6.032505,6.032505 0 1 1 -12.06501,0 6.032505,6.032505 0 1 1 12.06501,0 z"/><path id="q" d="M307.003-286a5 5 0 1 1-10 0 5 5 0 1 1 10 0z"/><path id="r" d="m 237.80885,-387.88715 a 4.375225,4.375225 0 1 1 -8.75045,0 4.375225,4.375225 0 1 1 8.75045,0 z"/><path id="s" d="M318.003-282a7 7 0 1 1-14 0 7 7 0 1 1 14 0z"/><path id="t" d="m 248.54804,-383.6666 a 6.739615,6.739615 0 1 1 -13.47923,0 6.739615,6.739615 0 1 1 13.47923,0 z"/><path id="u" d="M303.587-279.6a5.08 5.08 0 0 1-5.078 5.078 5.08 5.08 0 0 1-5.078-5.078 5.08 5.08 0 0 1 5.078-5.078 5.08 5.08 0 0 1 5.078 5.078z"/><path id="v" d="m -151.9375,-96.9375 a 3.125,3.125 0 1 1 -6.25,0 3.125,3.125 0 1 1 6.25,0 z"/><path id="w" d="M280.5-445.5c-2.271 0-4.11 1.55-4.719 3.625-.693-.364-1.445-.625-2.281-.625-2.76 0-5 2.24-5 5 0 .579.163 1.108.344 1.625-1.373.771-2.344 2.189-2.344 3.875 0 2.484 2.016 4.5 4.5 4.5h19c2.484 0 4.5-2.016 4.5-4.5 0-1.686-.97-3.104-2.344-3.875.181-.517.344-1.046.344-1.625 0-2.76-2.24-5-5-5-.837 0-1.588.261-2.281.625-.609-2.075-2.448-3.625-4.719-3.625z"/><path id="x" d="M280.5-445c-2.19 0-3.724 1.336-4.396 3.844-.668-.344-1.548-.833-2.354-.833-2.717 0-4.755 1.939-4.755 4.546 0 .547.267 1.333.442 1.822-1.324.728-2.437 1.89-2.437 3.373 0 2.346 1.546 4.25 4.339 4.25h18.321c2.771 0 4.339-1.904 4.339-4.25 0-1.592-1.112-2.667-2.437-3.395.175-.489.464-1.253.464-1.8 0-2.607-2.116-4.568-4.777-4.568-.807 0-1.642.49-2.31.833-.649-2.422-2.25-3.821-4.44-3.821z"/><path id="y" d="M284-440.5a3.5 3.5 0 0 1-7 0 3.5 3.5 0 0 1 7 0z"/><path id="z" d="m 291.6875,-437.59375 a 3.3125,3.3125 0 1 1 -6.625,0 3.3125,3.3125 0 1 1 6.625,0 z"/><path id="AA" d="M271-438h20v9h-20z"/><path id="AB" d="M274-432a3 3 0 0 1-6 0 3 3 0 0 1 6 0z"/><path id="AC" d="M279.469-440.969c-3.579 0-6.469 2.921-6.469 6.5 0 2.371 1.349 4.338 3.25 5.469h6.469c1.901-1.131 3.25-3.129 3.25-5.5 0-3.579-2.921-6.469-6.5-6.469z"/><path id="AD" d="M280.5-441c-3.588 0-6.5 2.912-6.5 6.5 0 2.376 1.345 4.366 3.25 5.5h6.5c1.905-1.134 3.25-3.124 3.25-5.5 0-3.588-2.912-6.5-6.5-6.5z"/><path id="AE" d="M292.956-437.334c-.002 2.685-3.269 3.714-3.269 3.714s2.349-1.626 2.337-3.705l.932-.009z"/><path id="AF" d="M288-433a4 4 0 1 1-8 0 4 4 0 1 1 8 0z"/></defs><g transform="translate(-12.284 -23.62)"><use xlink:href="#i" class="C F M P"/><text xml:space="preserve" x="127.898" y="36.207" class="D L"><tspan x="127.898" y="36.207">AES</tspan></text><path d="M58.079 28.753h22.923v11.575H58.079z" class="C F M P"/><text xml:space="preserve" x="65.304" y="35.821" class="D L"><tspan x="65.304" y="35.821">pad</tspan></text><path d="M58.079 65.728h22.923v11.575H58.079z" class="C F M P"/><text xml:space="preserve" x="62.411" y="72.796" class="D L"><tspan x="62.411" y="72.796">unpad</tspan></text><g class="C F Q"><path d="M18.162 34.54h39.917" marker-end="url(#A)"/><path d="M58.079 71.515H18.162" marker-end="url(#B)"/><path d="M81.002 34.54h39.917" marker-end="url(#C)"/><path d="M120.919 71.515H81.002" marker-end="url(#D)"/></g><text xml:space="preserve" x="27.401" y="32.576" class="D N"><tspan x="27.401" y="32.576">helloworld</tspan></text><text xml:space="preserve" x="82.78" y="32.122" class="D N"><tspan x="82.78" y="32.122">helloworldxxxxxx</tspan></text><use xlink:href="#i" y="36.975" class="C F M P"/><text xml:space="preserve" x="127.898" y="73.183" class="D L"><tspan x="127.898" y="73.183">AES</tspan></text><use xlink:href="#j" marker-end="url(#E)" class="C F Q"/><g transform="matrix(.537793 0 0 .537793 -5.161612 203.68677)"><use xlink:href="#k" class="O"/><use xlink:href="#l" fill="url(#F)"/><g class="B"><use xlink:href="#m"/><use xlink:href="#n"/></g><use xlink:href="#o" transform="matrix(.88263 0 0 .88263 96.18378 55.10906)" fill="url(#H)"/><use xlink:href="#n" x="8" y="4" class="B"/><use xlink:href="#p" transform="matrix(.911728 0 0 .911728 90.45707 67.23363)" fill="url(#I)"/><use xlink:href="#q" class="B"/><use xlink:href="#r" transform="matrix(1.142799 0 0 1.142799 35.23529 157.27704)" fill="url(#J)"/><use xlink:href="#s" class="B"/><use xlink:href="#t" transform="matrix(1.038636 0 0 1.038636 59.852067 116.48993)" fill="url(#K)"/><use xlink:href="#u" class="B"/><use xlink:href="#v" transform="matrix(1.624829 0 0 1.624829 550.517743 -122.151131)" fill="url(#L)"/><g transform="translate(38.003 162)"><use xlink:href="#w" class="B R S"/><use xlink:href="#x" fill="url(#M)"/><use xlink:href="#y" class="B"/><use xlink:href="#z" transform="matrix(1.056604 0 0 1.056604 -24.19818 21.86331)" fill="url(#N)"/><g class="B"><use xlink:href="#AA"/><use xlink:href="#AB"/><use xlink:href="#y" x="7" y="3"/></g><use xlink:href="#z" transform="matrix(1.056604 0 0 1.056604 -17.19818 24.86331)" fill="url(#O)"/><use xlink:href="#y" x="-7" y="3" class="B"/><use xlink:href="#z" transform="matrix(1.056604 0 0 1.056604 -31.19818 24.86331)" fill="url(#P)"/><use xlink:href="#AC" class="B"/><use xlink:href="#AD" fill="url(#Q)" transform="translate(-1)"/><use xlink:href="#z" transform="matrix(.90566 0 0 .90566 9.830296 -35.68884)" fill="url(#R)"/><use xlink:href="#AE" class="E O"/><use xlink:href="#AF" class="B"/><use xlink:href="#z" transform="matrix(1.207547 0 0 1.207547 -64.226448 95.415288)" fill="url(#S)"/></g><g transform="translate(23 158)"><use xlink:href="#w" class="B R S"/><use xlink:href="#x" fill="url(#M)"/><use xlink:href="#y" class="B"/><use xlink:href="#z" transform="matrix(1.056604 0 0 1.056604 -24.19818 21.86331)" fill="url(#N)"/><g class="B"><use xlink:href="#AA"/><use xlink:href="#AB"/><use xlink:href="#y" x="7" y="3"/></g><use xlink:href="#z" transform="matrix(1.056604 0 0 1.056604 -17.19818 24.86331)" fill="url(#O)"/><use xlink:href="#y" x="-7" y="3" class="B"/><use xlink:href="#z" transform="matrix(1.056604 0 0 1.056604 -31.19818 24.86331)" fill="url(#P)"/><use xlink:href="#AC" class="B"/><use xlink:href="#AD" fill="url(#Q)" transform="translate(-1)"/><use xlink:href="#z" transform="matrix(.90566 0 0 .90566 9.830296 -35.68884)" fill="url(#R)"/><use xlink:href="#AE" class="E O"/><use xlink:href="#AF" class="B"/><use xlink:href="#z" transform="matrix(1.207547 0 0 1.207547 -64.226448 95.415288)" fill="url(#S)"/></g></g><text xml:space="preserve" x="147.011" y="33.03" class="D L"><tspan x="147.011" y="33.03">Yy/VpAG2wfiyiHmL</tspan></text><text xml:space="preserve" x="82.78" y="69.344" class="D N"><tspan x="82.78" y="69.344">helloworldxxxxxx</tspan></text><text xml:space="preserve" x="28.536" y="69.571" class="D N"><tspan x="28.536" y="69.571">helloworld</tspan></text><use xlink:href="#i" x="0.239" y="69.911" class="C F M P"/><text xml:space="preserve" x="128.137" y="106.119" class="D L"><tspan x="128.137" y="106.119">AES</tspan></text><path d="M58.317 98.664h22.923v11.575H58.317z" class="C F M P"/><text xml:space="preserve" x="65.542" y="105.732" class="D L"><tspan x="65.542" y="105.732">pad</tspan></text><path d="M58.317 135.639h22.923v11.575H58.317z" class="C F M P"/><text xml:space="preserve" x="62.649" y="142.708" class="D L"><tspan x="62.649" y="142.708">unpad</tspan></text><g class="C F Q"><path d="M18.4 104.452h39.917" marker-end="url(#T)"/><path d="M58.317 141.427H18.4" marker-end="url(#U)"/><path d="M81.241 104.452h39.917" marker-end="url(#V)"/><path d="M121.158 141.427H81.241" marker-end="url(#W)"/></g><text xml:space="preserve" x="27.639" y="102.487" class="D N"><tspan x="27.639" y="102.487">justrelax</tspan></text><text xml:space="preserve" x="83.019" y="102.033" class="D N"><tspan x="83.019" y="102.033">justrelaxxxxxxxx</tspan></text><use xlink:href="#i" x="0.239" y="106.886" class="C F M P"/><text xml:space="preserve" x="128.137" y="143.094" class="D L"><tspan x="128.137" y="143.094">AES</tspan></text><use xlink:href="#j" x="0.238" y="69.912" marker-end="url(#X)" class="C F Q"/><g transform="matrix(.537793 0 0 .537793 -4.923124 273.59814)"><use xlink:href="#k" class="O"/><use xlink:href="#l" fill="url(#F)"/><g class="B"><use xlink:href="#m"/><use xlink:href="#n"/></g><use xlink:href="#o" transform="matrix(.88263 0 0 .88263 96.18378 55.10906)" fill="url(#d)"/><use xlink:href="#n" x="8" y="4" class="B"/><use xlink:href="#p" transform="matrix(.911728 0 0 .911728 90.45707 67.23363)" fill="url(#e)"/><use xlink:href="#q" class="B"/><use xlink:href="#r" transform="matrix(1.142799 0 0 1.142799 35.23529 157.27704)" fill="url(#f)"/><use xlink:href="#s" class="B"/><use xlink:href="#t" transform="matrix(1.038636 0 0 1.038636 59.852067 116.48993)" fill="url(#g)"/><use xlink:href="#u" class="B"/><use xlink:href="#v" transform="matrix(1.624829 0 0 1.624829 550.517743 -122.151131)" fill="url(#h)"/><g transform="translate(38.003 162)"><use xlink:href="#w" class="B R S"/><use xlink:href="#x" fill="url(#M)"/><use xlink:href="#y" class="B"/><use xlink:href="#z" transform="matrix(1.056604 0 0 1.056604 -24.19818 21.86331)" fill="url(#N)"/><g class="B"><use xlink:href="#AA"/><use xlink:href="#AB"/><use xlink:href="#y" x="7" y="3"/></g><use xlink:href="#z" transform="matrix(1.056604 0 0 1.056604 -17.19818 24.86331)" fill="url(#O)"/><use xlink:href="#y" x="-7" y="3" class="B"/><use xlink:href="#z" transform="matrix(1.056604 0 0 1.056604 -31.19818 24.86331)" fill="url(#P)"/><use xlink:href="#AC" class="B"/><use xlink:href="#AD" fill="url(#Q)" transform="translate(-1)"/><use xlink:href="#z" transform="matrix(.90566 0 0 .90566 9.830296 -35.68884)" fill="url(#R)"/><use xlink:href="#AE" class="E O"/><use xlink:href="#AF" class="B"/><use xlink:href="#z" transform="matrix(1.207547 0 0 1.207547 -64.226448 95.415288)" fill="url(#S)"/></g><g transform="translate(23 158)"><use xlink:href="#w" class="B R S"/><use xlink:href="#x" fill="url(#M)"/><use xlink:href="#y" class="B"/><use xlink:href="#z" transform="matrix(1.056604 0 0 1.056604 -24.19818 21.86331)" fill="url(#N)"/><g class="B"><use xlink:href="#AA"/><use xlink:href="#AB"/><use xlink:href="#y" x="7" y="3"/></g><use xlink:href="#z" transform="matrix(1.056604 0 0 1.056604 -17.19818 24.86331)" fill="url(#O)"/><use xlink:href="#y" x="-7" y="3" class="B"/><use xlink:href="#z" transform="matrix(1.056604 0 0 1.056604 -31.19818 24.86331)" fill="url(#P)"/><use xlink:href="#AC" class="B"/><use xlink:href="#AD" fill="url(#Q)" transform="translate(-1)"/><use xlink:href="#z" transform="matrix(.90566 0 0 .90566 9.830296 -35.68884)" fill="url(#R)"/><use xlink:href="#AE" class="E O"/><use xlink:href="#AF" class="B"/><use xlink:href="#z" transform="matrix(1.207547 0 0 1.207547 -64.226448 95.415288)" fill="url(#S)"/></g></g><text xml:space="preserve" x="147.25" y="102.941" class="D L"><tspan x="147.25" y="102.941">rZeSop09lO3s2dgo</tspan></text><text xml:space="preserve" x="83.019" y="139.256" class="D N"><tspan x="83.019" y="139.256">justrelaxxxxxxxx</tspan></text><text xml:space="preserve" x="28.774" y="139.483" class="D N"><tspan x="28.774" y="139.483">justrela</tspan></text><use xlink:href="#i" x="-0.364" y="139.823" class="C F M T"/><text xml:space="preserve" x="70.359" y="206.992" class="D L"><tspan x="127.534" y="176.031">AES</tspan></text><path d="M57.715 168.576h22.923v11.575H57.715z" class="C F M T"/><text xml:space="preserve" x="32.002" y="209.715" class="D L"><tspan x="64.94" y="175.644">pad</tspan></text><path d="M57.715 205.551h22.923v11.575H57.715z" class="C F M T"/><text xml:space="preserve" x="108.262" y="207.899" class="D L"><tspan x="62.047" y="212.619">unpad</tspan></text><g class="C F Q"><path d="M17.798 174.363h39.917" marker-end="url(#Y)"/><path d="M57.715 211.338H17.798" marker-end="url(#Z)"/><path d="M80.639 174.363h39.917" marker-end="url(#a)"/><path d="M120.556 211.338H80.639" marker-end="url(#b)"/></g><text xml:space="preserve" x="27.037" y="172.399" class="D N"><tspan x="27.037" y="172.399">justrelax</tspan></text><text xml:space="preserve" x="82.416" y="171.945" class="D N"><tspan x="82.416" y="171.945">justrelax7777777</tspan></text><use xlink:href="#i" x="-0.364" y="176.798" class="C F M T"/><text xml:space="preserve" x="70.359" y="206.992" class="D L"><tspan x="127.534" y="213.006">AES</tspan></text><use xlink:href="#j" x="-0.364" y="139.823" marker-end="url(#c)" class="C F Q"/><g transform="matrix(.537793 0 0 .537793 -5.525499 343.50951)"><use xlink:href="#k" class="O"/><use xlink:href="#l" fill="url(#F)"/><g class="B"><use xlink:href="#m"/><use xlink:href="#n"/></g><use xlink:href="#o" transform="matrix(.88263 0 0 .88263 96.18378 55.10906)" fill="url(#d)"/><use xlink:href="#n" x="8" y="4" class="B"/><use xlink:href="#p" transform="matrix(.911728 0 0 .911728 90.45707 67.23363)" fill="url(#e)"/><use xlink:href="#q" class="B"/><use xlink:href="#r" transform="matrix(1.142799 0 0 1.142799 35.23529 157.27704)" fill="url(#f)"/><use xlink:href="#s" class="B"/><use xlink:href="#t" transform="matrix(1.038636 0 0 1.038636 59.852067 116.48993)" fill="url(#g)"/><use xlink:href="#u" class="B"/><use xlink:href="#v" transform="matrix(1.624829 0 0 1.624829 550.517743 -122.151131)" fill="url(#h)"/><g transform="translate(38.003 162)"><use xlink:href="#w" class="B R S"/><use xlink:href="#x" fill="url(#M)"/><use xlink:href="#y" class="B"/><use xlink:href="#z" transform="matrix(1.056604 0 0 1.056604 -24.19818 21.86331)" fill="url(#N)"/><g class="B"><use xlink:href="#AA"/><use xlink:href="#AB"/><use xlink:href="#y" x="7" y="3"/></g><use xlink:href="#z" transform="matrix(1.056604 0 0 1.056604 -17.19818 24.86331)" fill="url(#O)"/><use xlink:href="#y" x="-7" y="3" class="B"/><use xlink:href="#z" transform="matrix(1.056604 0 0 1.056604 -31.19818 24.86331)" fill="url(#P)"/><use xlink:href="#AC" class="B"/><use xlink:href="#AD" fill="url(#Q)" transform="translate(-1)"/><use xlink:href="#z" transform="matrix(.90566 0 0 .90566 9.830296 -35.68884)" fill="url(#R)"/><use xlink:href="#AE" class="E O"/><use xlink:href="#AF" class="B"/><use xlink:href="#z" transform="matrix(1.207547 0 0 1.207547 -64.226448 95.415288)" fill="url(#S)"/></g><g transform="translate(23 158)"><use xlink:href="#w" class="B R S"/><use xlink:href="#x" fill="url(#M)"/><use xlink:href="#y" class="B"/><use xlink:href="#z" transform="matrix(1.056604 0 0 1.056604 -24.19818 21.86331)" fill="url(#N)"/><g class="B"><use xlink:href="#AA"/><use xlink:href="#AB"/><use xlink:href="#y" x="7" y="3"/></g><use xlink:href="#z" transform="matrix(1.056604 0 0 1.056604 -17.19818 24.86331)" fill="url(#O)"/><use xlink:href="#y" x="-7" y="3" class="B"/><use xlink:href="#z" transform="matrix(1.056604 0 0 1.056604 -31.19818 24.86331)" fill="url(#P)"/><use xlink:href="#AC" class="B"/><use xlink:href="#AD" fill="url(#Q)" transform="translate(-1)"/><use xlink:href="#z" transform="matrix(.90566 0 0 .90566 9.830296 -35.68884)" fill="url(#R)"/><use xlink:href="#AE" class="E O"/><use xlink:href="#AF" class="B"/><use xlink:href="#z" transform="matrix(1.207547 0 0 1.207547 -64.226448 95.415288)" fill="url(#S)"/></g></g><text xml:space="preserve" x="146.647" y="172.853" class="D L"><tspan x="146.647" y="172.853">c9+uijz0QCNhH8Zz</tspan></text><text xml:space="preserve" x="82.416" y="209.167" class="D N"><tspan x="82.416" y="209.167">justrelax7777777</tspan></text><text xml:space="preserve" x="28.172" y="209.394" class="D N"><tspan x="28.172" y="209.394">justrelax</tspan></text></g></svg>