<svg xmlns="http://www.w3.org/2000/svg" xmlns:xlink="http://www.w3.org/1999/xlink" width="711.999" height="544.585" viewBox="0 0 188.383 144.088" xmlns:v="https://vecta.io/nano"><style><![CDATA[.B{fill:#c4c5c2}.C{stroke:#000}.D{fill-rule:evenodd}.E{font-family:sans-serif}.F{fill:#000}.G{overflow:visible}.H{fill-opacity:1}.I{stroke-width:1pt}.J{stroke-opacity:1}.K{stroke-width:.265}.L{font-size:4.586px}.M{fill:#888a85}.N{fill:#fcffba}.O{fill-opacity:.266}.P{stroke:#888a85}.Q{stroke-miterlimit:2}.R{font-size:4.233px}]]></style><defs><marker id="A" refX="0" refY="0" orient="auto" class="G"><path transform="matrix(-.8 0 0 -.8 -10 0)" d="M0 0l5-5-17.5 5L5 5z" class="C D F H I J"/></marker><marker id="B" refX="0" refY="0" orient="auto" class="G"><path transform="matrix(-.8 0 0 -.8 -10 0)" d="M0 0l5-5-17.5 5L5 5z" class="C D F H I J"/></marker><marker id="C" refX="0" refY="0" orient="auto" class="G"><path transform="matrix(-.8 0 0 -.8 -10 0)" d="M0 0l5-5-17.5 5L5 5z" class="C D F H I J"/></marker><linearGradient xlink:href="#E" id="D" x1="297.505" y1="-290.306" x2="347.918" y2="-273.38"/><linearGradient id="E" gradientUnits="userSpaceOnUse"><stop offset="0" stop-color="#fff"/><stop offset="1" stop-color="#fff" stop-opacity="0"/></linearGradient><linearGradient xlink:href="#E" id="F" x1="240.074" y1="-393.407" x2="245.827" y2="-388.55"/><linearGradient xlink:href="#E" id="G" x1="246.74" y1="-391.314" x2="252.698" y2="-385.352"/><linearGradient xlink:href="#E" id="H" x1="230.876" y1="-390.44" x2="235.257" y2="-386.959"/><linearGradient xlink:href="#E" id="I" x1="238.005" y1="-388.475" x2="245.655" y2="-382.645"/><linearGradient xlink:href="#E" id="J" x1="-156.29" y1="-100.534" x2="-153.098" y2="-96.545"/><linearGradient xlink:href="#E" id="K" x1="271.022" y1="-441.052" x2="285.029" y2="-431.97"/><linearGradient xlink:href="#E" id="L" x1="287.517" y1="-439.753" x2="289.676" y2="-436.322"/><linearGradient xlink:href="#E" id="M" x1="286.512" y1="-441.291" x2="289.854" y2="-436.145"/><linearGradient xlink:href="#E" id="N" x1="285.941" y1="-439.939" x2="289.391" y2="-436.443"/><linearGradient xlink:href="#E" id="O" x1="275.942" y1="-437.105" x2="279.975" y2="-431.918"/><linearGradient xlink:href="#E" id="P" x1="286.666" y1="-439.484" x2="289.766" y2="-436.707"/><linearGradient xlink:href="#E" id="Q" x1="284.802" y1="-441.233" x2="288.9" y2="-436.831"/><marker id="R" refX="0" refY="0" orient="auto" class="G"><path transform="matrix(-.8 0 0 -.8 -10 0)" d="M0 0l5-5-17.5 5L5 5z" class="C D F H I J"/></marker><marker id="S" refX="0" refY="0" orient="auto" class="G"><path transform="matrix(-.8 0 0 -.8 -10 0)" d="M0 0l5-5-17.5 5L5 5z" class="C D F H I J"/></marker><marker id="T" refX="0" refY="0" orient="auto" class="G"><path transform="matrix(-.8 0 0 -.8 -10 0)" d="M0 0l5-5-17.5 5L5 5z" class="C D F H I J"/></marker><path id="U" d="M-321.004 536.935c-20.532-52.573-89.667-132.292-99.351-150.019-1.799-3.281-7.461-7.382-15.875-12.065h0c-50.218-27.834-197.908-74.904-197.908-74.904s-88.582 28.257-151.844 53.922c-22.331 9.049-41.54 17.806-52.546 24.871-4.842 3.096-8.096 5.874-9.366 8.202-10.61 19.447-92.922 113.639-103.875 164.597-1.879 8.705-1.64 16.166 1.376 21.775 3.228 5.953 9.472 11.853 17.727 17.568 8.176 5.689 18.336 11.192 29.501 16.378 39.132 18.283 90.329 32.835 110.622 38.259l-.873 10.239-.106 1.376h318.849l-.979-11.615c31.909-8.546 140.229-39.635 157.85-72.231 4.551-8.52 2.646-21.325-3.201-36.354zm-455.48-80.645L-787.2 582.417l-63.817-37.65zm295.407 126.127l-10.716-126.127 74.533 88.477z"/><path id="V" d="M-420.355 386.916c-12.435-22.781-213.783-86.969-213.783-86.969v357.161h159.411l-.979-11.615c31.909-8.546 140.229-39.635 157.85-72.231 20.69-38.285-90.064-163.565-102.5-186.346zm-60.722 195.501l-10.716-126.127 74.533 88.477z"/><path id="W" d="M-634.138 78.809c-49.662-23.971-152.294 121.126-133.667 175.498 18.627 54.345 85.619 97.843 133.667 108.717 48.048-10.874 115.014-54.345 133.668-108.717 18.627-54.372-84.005-199.469-133.668-175.498z"/><path id="X" d="M-634.138 78.809c49.662-23.971 152.294 121.126 133.668 175.498s-85.619 97.843-133.668 108.717c0 0-64.003-253.365 0-284.215z"/><path id="Y" d="M-793.444 655.76l.873-10.239c-20.294-5.45-71.517-20.003-110.622-38.259l146.897 32.359c4.498 1.746-14.552 8.811-37.148 16.14z"/><path id="Z" d="M-585.482 201.999c-16.219-2.514-32.597-4.339-48.657-3.651-16.06-.688-32.438 1.138-48.657 3.651-30.03 4.868-74.533 14.631-73.501 44.318.529 34.131 38.814 57.626 67.813 79.772 15.478 11.456 34.316 19.447 54.345 21.378 20.029-1.931 38.894-9.922 54.345-21.378 28.998-22.172 67.284-45.641 67.813-79.772 1.032-29.686-43.471-39.423-73.501-44.318z"/><path id="a" d="M-474.833 655.76l-.873-10.239c20.294-5.45 71.517-20.003 110.622-38.259L-511.98 639.62c-4.498 1.746 14.552 8.811 37.147 16.14z"/><path id="b" d="M-920.576 531.643c-14.049 28.099-15.055 47.016-12.118 59.214-8.255-5.715-14.499-11.615-17.727-17.568-3.016-5.583-3.254-13.044-1.376-21.775 10.927-50.959 93.266-145.124 103.875-164.571 1.27-2.328 4.551-5.106 9.366-8.202-3.043 51.356-55.113 99.06-82.021 152.903z"/><path id="c" d="M-347.7 531.643c14.049 28.099 15.055 47.016 12.118 59.214 8.255-5.715 14.499-11.615 17.727-17.568 3.016-5.583 3.254-13.044 1.376-21.775-10.927-50.959-93.266-145.124-103.875-164.571-1.27-2.328-4.551-5.106-9.366-8.202 3.043 51.356 55.113 99.06 82.021 152.903z"/><path id="d" d="M-444.67 703.385c0 2.963-1.191 5.636-3.149 7.594a10.74 10.74 0 0 1-7.594 3.149h-357.452c-5.927 0-10.742-4.815-10.742-10.742a10.65 10.65 0 0 1 1.482-5.45 9.34 9.34 0 0 1 1.667-2.143 10.74 10.74 0 0 1 7.594-3.149h357.452c3.942 0 7.382 2.117 9.26 5.292.926 1.587 1.482 3.466 1.482 5.45z"/><path id="e" d="M-431.15 471.927l-14.684 226.007h-376.608l-14.605-224.816c-.82-12.488 9.102-23.072 21.616-23.072h363.776c11.88 0 21.272 10.028 20.505 21.881z"/><path id="f" d="M-463.376 684.043H-804.9l-13.256-194.786c-.741-10.742 7.779-19.87 18.547-19.87h330.888c10.769 0 19.288 9.128 18.547 19.87z"/><path id="g" d="M-446.178 697.934c.952 1.587 1.482 3.466 1.482 5.45 0 2.963-1.191 5.636-3.149 7.594a10.74 10.74 0 0 1-7.594 3.149h-292.153l12.091-16.166 3.942-5.292 181.187-242.596h98.663c11.906 0 21.325 10.054 20.558 21.934l-14.684 225.954h-.344z"/><path id="h" d="M311.503-296c-2.772 0-5.108 1.574-6.406 3.813-.944-.475-1.965-.812-3.094-.812-3.864 0-7 3.136-7 7s3.136 7 7 7c2.42 0 4.43-1.319 5.688-3.187 1.134.69 2.389 1.188 3.813 1.188.913 0 1.753-.232 2.563-.531.51.868 1.179 1.58 2 2.156-.007.13-.062.243-.062.375 0 3.864 3.136 7 7 7s7-3.136 7-7c0-2.37-1.259-4.358-3.062-5.625.007-.13.063-.243.063-.375 0-3.864-3.136-7-7-7-.623 0-1.175.222-1.75.375-1.195-2.559-3.741-4.375-6.75-4.375z"/><path id="i" d="M311.503-295c-2.78 0-5.135 1.762-6.062 4.219-.985-.709-2.131-1.219-3.437-1.219-3.312 0-6 2.688-6 6s2.688 6 6 6c2.428 0 4.493-1.456 5.438-3.531 1.121.918 2.502 1.531 4.063 1.531 1.075 0 2.044-.319 2.938-.781.398 1 1.101 1.786 1.938 2.438-.18.596-.375 1.19-.375 1.844 0 3.588 2.912 6.5 6.5 6.5s6.5-2.912 6.5-6.5c0-2.361-1.334-4.33-3.219-5.469.063-.347.219-.666.219-1.031 0-3.312-2.688-6-6-6a6.01 6.01 0 0 0-2.406.5c-.854-2.594-3.215-4.5-6.094-4.5z"/><path id="j" d="M329.003-278.5a6.5 6.5 0 1 1-13 0 6.5 6.5 0 1 1 13 0z"/><path id="k" d="M317.003-288.5a5.5 5.5 0 1 1-11 0 5.5 5.5 0 1 1 11 0z"/><path id="l" d="m 250.18322,-389.30136 a 6.23138,6.23138 0 1 1 -12.46276,0 6.23138,6.23138 0 1 1 12.46276,0 z"/><path id="m" d="m 257.25429,-385.7879 a 6.032505,6.032505 0 1 1 -12.06501,0 6.032505,6.032505 0 1 1 12.06501,0 z"/><path id="n" d="M307.003-286a5 5 0 1 1-10 0 5 5 0 1 1 10 0z"/><path id="o" d="m 237.80885,-387.88715 a 4.375225,4.375225 0 1 1 -8.75045,0 4.375225,4.375225 0 1 1 8.75045,0 z"/><path id="p" d="M318.003-282a7 7 0 1 1-14 0 7 7 0 1 1 14 0z"/><path id="q" d="m 248.54804,-383.6666 a 6.739615,6.739615 0 1 1 -13.47923,0 6.739615,6.739615 0 1 1 13.47923,0 z"/><path id="r" d="M303.587-279.6a5.08 5.08 0 0 1-5.078 5.078 5.08 5.08 0 0 1-5.078-5.078 5.08 5.08 0 0 1 5.078-5.078 5.08 5.08 0 0 1 5.078 5.078z"/><path id="s" d="m -151.9375,-96.9375 a 3.125,3.125 0 1 1 -6.25,0 3.125,3.125 0 1 1 6.25,0 z"/><path id="t" d="M280.5-445.5c-2.271 0-4.11 1.55-4.719 3.625-.693-.364-1.445-.625-2.281-.625-2.76 0-5 2.24-5 5 0 .579.163 1.108.344 1.625-1.373.771-2.344 2.189-2.344 3.875 0 2.484 2.016 4.5 4.5 4.5h19c2.484 0 4.5-2.016 4.5-4.5 0-1.686-.97-3.104-2.344-3.875.181-.517.344-1.046.344-1.625 0-2.76-2.24-5-5-5-.837 0-1.588.261-2.281.625-.609-2.075-2.448-3.625-4.719-3.625z"/><path id="u" d="M280.5-445c-2.19 0-3.724 1.336-4.396 3.844-.668-.344-1.548-.833-2.354-.833-2.717 0-4.755 1.939-4.755 4.546 0 .547.267 1.333.442 1.822-1.324.728-2.437 1.89-2.437 3.373 0 2.346 1.546 4.25 4.339 4.25h18.321c2.771 0 4.339-1.904 4.339-4.25 0-1.592-1.112-2.667-2.437-3.395.175-.489.464-1.253.464-1.8 0-2.607-2.116-4.568-4.777-4.568-.807 0-1.642.49-2.31.833-.649-2.422-2.25-3.821-4.44-3.821z"/><path id="v" d="M284-440.5a3.5 3.5 0 0 1-7 0 3.5 3.5 0 0 1 7 0z"/><path id="w" d="m 291.6875,-437.59375 a 3.3125,3.3125 0 1 1 -6.625,0 3.3125,3.3125 0 1 1 6.625,0 z"/><path id="x" d="M274-432a3 3 0 0 1-6 0 3 3 0 0 1 6 0z"/><path id="y" d="M279.469-440.969c-3.579 0-6.469 2.921-6.469 6.5 0 2.371 1.349 4.338 3.25 5.469h6.469c1.901-1.131 3.25-3.129 3.25-5.5 0-3.579-2.921-6.469-6.5-6.469z"/><path id="z" d="M280.5-441c-3.588 0-6.5 2.912-6.5 6.5 0 2.376 1.345 4.366 3.25 5.5h6.5c1.905-1.134 3.25-3.124 3.25-5.5 0-3.588-2.912-6.5-6.5-6.5z"/><path id="AA" d="M292.956-437.334c-.002 2.685-3.269 3.714-3.269 3.714s2.349-1.626 2.337-3.705l.932-.009z"/><path id="AB" d="M288-433a4 4 0 1 1-8 0 4 4 0 1 1 8 0z"/></defs><g transform="translate(-12.92 -72.971)"><g transform="translate(-6.807 -279.313)"><g transform="matrix(.046191 0 0 .046191 168.024 353.76609)"><use xlink:href="#U" fill="#6f6f73"/><use xlink:href="#V" fill="#606063"/><use xlink:href="#W" fill="#525254"/><use xlink:href="#X" fill="#3d3d40"/><use xlink:href="#Y" fill="#626266"/><use xlink:href="#Z" fill="#231f20"/><use xlink:href="#a" fill="#535357"/><g fill="#c2c4c9"><circle cx="-653.294" cy="380.725" r="9.287"/><circle cx="-614.983" cy="380.725" r="9.287"/></g><use xlink:href="#b" fill="#828287"/><use xlink:href="#c" fill="#737378"/><use xlink:href="#d" fill="#262262"/><use xlink:href="#e" fill="#5b53ed"/><use xlink:href="#f" fill="#453fb5"/><use xlink:href="#g" opacity=".5" fill="#3a3496"/></g><path d="M67.764 404.441h22.923v11.575H67.764z" class="C K N O"/><text xml:space="preserve" x="108.262" y="207.899" class="E L"><tspan x="72.096" y="411.509">unpad</tspan></text><g class="C K"><g fill="none"><path d="M67.764 410.228H27.847" marker-end="url(#A)"/><path d="M130.604 410.228H90.687" marker-end="url(#B)"/></g><path d="M130.604 404.441h22.923v11.575h-22.923z" class="N O"/></g><text xml:space="preserve" x="70.359" y="206.992" class="E L"><tspan x="137.583" y="411.896">AES</tspan></text><path d="M153.528 373.263c29.051-.454 22.914 37.301 0 36.975" fill="none" marker-end="url(#C)" class="C K"/><g transform="matrix(.537793 0 0 .537793 4.523185 542.39942)"><use xlink:href="#h" class="M"/><use xlink:href="#i" fill="url(#D)"/><g class="B"><use xlink:href="#j"/><use xlink:href="#k"/></g><use xlink:href="#l" transform="matrix(.88263 0 0 .88263 96.18378 55.10906)" fill="url(#F)"/><use xlink:href="#k" x="8" y="4" class="B"/><use xlink:href="#m" transform="matrix(.911728 0 0 .911728 90.45707 67.23363)" fill="url(#G)"/><use xlink:href="#n" class="B"/><use xlink:href="#o" transform="matrix(1.142799 0 0 1.142799 35.23529 157.27704)" fill="url(#H)"/><use xlink:href="#p" class="B"/><use xlink:href="#q" transform="matrix(1.038636 0 0 1.038636 59.852067 116.48993)" fill="url(#I)"/><use xlink:href="#r" class="B"/><use xlink:href="#s" transform="matrix(1.624829 0 0 1.624829 550.517743 -122.151131)" fill="url(#J)"/><g transform="translate(38.003 162)"><use xlink:href="#t" class="B P Q"/><use xlink:href="#u" fill="url(#K)"/><use xlink:href="#v" class="B"/><use xlink:href="#w" transform="matrix(1.056604 0 0 1.056604 -24.19818 21.86331)" fill="url(#L)"/><g class="B"><path d="M271-438h20v9h-20z"/><use xlink:href="#x"/><use xlink:href="#v" x="7" y="3"/></g><use xlink:href="#w" transform="matrix(1.056604 0 0 1.056604 -17.19818 24.86331)" fill="url(#M)"/><use xlink:href="#v" x="-7" y="3" class="B"/><use xlink:href="#w" transform="matrix(1.056604 0 0 1.056604 -31.19818 24.86331)" fill="url(#N)"/><use xlink:href="#y" class="B"/><use xlink:href="#z" fill="url(#O)" transform="translate(-1)"/><use xlink:href="#w" transform="matrix(.90566 0 0 .90566 9.830296 -35.68884)" fill="url(#P)"/><use xlink:href="#AA" class="D M"/><use xlink:href="#AB" class="B"/><use xlink:href="#w" transform="matrix(1.207547 0 0 1.207547 -64.226448 95.415288)" fill="url(#Q)"/></g><g transform="translate(23 158)"><use xlink:href="#t" class="B P Q"/><use xlink:href="#u" fill="url(#K)"/><use xlink:href="#v" class="B"/><use xlink:href="#w" transform="matrix(1.056604 0 0 1.056604 -24.19818 21.86331)" fill="url(#L)"/><g class="B"><path d="M271-438h20v9h-20z"/><use xlink:href="#x"/><use xlink:href="#v" x="7" y="3"/></g><use xlink:href="#w" transform="matrix(1.056604 0 0 1.056604 -17.19818 24.86331)" fill="url(#M)"/><use xlink:href="#v" x="-7" y="3" class="B"/><use xlink:href="#w" transform="matrix(1.056604 0 0 1.056604 -31.19818 24.86331)" fill="url(#N)"/><use xlink:href="#y" class="B"/><use xlink:href="#z" fill="url(#O)" transform="translate(-1)"/><use xlink:href="#w" transform="matrix(.90566 0 0 .90566 9.830296 -35.68884)" fill="url(#P)"/><use xlink:href="#AA" class="D M"/><use xlink:href="#AB" class="B"/><use xlink:href="#w" transform="matrix(1.207547 0 0 1.207547 -64.226448 95.415288)" fill="url(#Q)"/></g></g><text xml:space="preserve" x="156.696" y="371.743" class="E L"><tspan x="156.696" y="371.743">/JYa2MxsJG9baf+9</tspan></text><text xml:space="preserve" x="91.557" y="407.376" class="E R"><tspan x="91.557" y="407.376">e1myiunlv9klv123</tspan></text><text xml:space="preserve" x="38.221" y="408.284" class="E R"><tspan x="38.221" y="408.284" fill="red">ERROR</tspan></text></g><g transform="translate(-11.968 -285.618)"><g transform="matrix(.046191 0 0 .046191 171.23376 435.29401)"><use xlink:href="#U" fill="#6f6f73"/><use xlink:href="#V" fill="#606063"/><use xlink:href="#W" fill="#525254"/><use xlink:href="#X" fill="#3d3d40"/><use xlink:href="#Y" fill="#626266"/><use xlink:href="#Z" fill="#231f20"/><use xlink:href="#a" fill="#535357"/><g fill="#c2c4c9"><circle cx="-653.294" cy="380.725" r="9.287"/><circle cx="-614.983" cy="380.725" r="9.287"/></g><use xlink:href="#b" fill="#828287"/><use xlink:href="#c" fill="#737378"/><use xlink:href="#d" fill="#262262"/><use xlink:href="#e" fill="#5b53ed"/><use xlink:href="#f" fill="#453fb5"/><use xlink:href="#g" opacity=".5" fill="#3a3496"/></g><path d="M70.973 485.969h22.923v11.575H70.973z" class="C K N O"/><text xml:space="preserve" x="108.262" y="207.899" class="E L"><tspan x="75.305" y="493.037">unpad</tspan></text><g class="C K"><g fill="none"><path d="M70.974 491.756H31.057" marker-end="url(#R)"/><path d="M133.814 491.756H93.897" marker-end="url(#S)"/></g><path d="M133.814 485.969h22.923v11.575h-22.923z" class="N O"/></g><text xml:space="preserve" x="70.359" y="206.992" class="E L"><tspan x="140.793" y="493.424">AES</tspan></text><path d="M156.737 454.791c29.051-.454 22.914 37.301 0 36.975" fill="none" marker-end="url(#T)" class="C K"/><g transform="matrix(.537793 0 0 .537793 7.732946 623.92734)"><use xlink:href="#h" class="M"/><use xlink:href="#i" fill="url(#D)"/><g class="B"><use xlink:href="#j"/><use xlink:href="#k"/></g><use xlink:href="#l" transform="matrix(.88263 0 0 .88263 96.18378 55.10906)" fill="url(#F)"/><use xlink:href="#k" x="8" y="4" class="B"/><use xlink:href="#m" transform="matrix(.911728 0 0 .911728 90.45707 67.23363)" fill="url(#G)"/><use xlink:href="#n" class="B"/><use xlink:href="#o" transform="matrix(1.142799 0 0 1.142799 35.23529 157.27704)" fill="url(#H)"/><use xlink:href="#p" class="B"/><use xlink:href="#q" transform="matrix(1.038636 0 0 1.038636 59.852067 116.48993)" fill="url(#I)"/><use xlink:href="#r" class="B"/><use xlink:href="#s" transform="matrix(1.624829 0 0 1.624829 550.517743 -122.151131)" fill="url(#J)"/><g transform="translate(38.003 162)"><use xlink:href="#t" class="B P Q"/><use xlink:href="#u" fill="url(#K)"/><use xlink:href="#v" class="B"/><use xlink:href="#w" transform="matrix(1.056604 0 0 1.056604 -24.19818 21.86331)" fill="url(#L)"/><g class="B"><path d="M271-438h20v9h-20z"/><use xlink:href="#x"/><use xlink:href="#v" x="7" y="3"/></g><use xlink:href="#w" transform="matrix(1.056604 0 0 1.056604 -17.19818 24.86331)" fill="url(#M)"/><use xlink:href="#v" x="-7" y="3" class="B"/><use xlink:href="#w" transform="matrix(1.056604 0 0 1.056604 -31.19818 24.86331)" fill="url(#N)"/><use xlink:href="#y" class="B"/><use xlink:href="#z" fill="url(#O)" transform="translate(-1)"/><use xlink:href="#w" transform="matrix(.90566 0 0 .90566 9.830296 -35.68884)" fill="url(#P)"/><use xlink:href="#AA" class="D M"/><use xlink:href="#AB" class="B"/><use xlink:href="#w" transform="matrix(1.207547 0 0 1.207547 -64.226448 95.415288)" fill="url(#Q)"/></g><g transform="translate(23 158)"><use xlink:href="#t" class="B P Q"/><use xlink:href="#u" fill="url(#K)"/><use xlink:href="#v" class="B"/><use xlink:href="#w" transform="matrix(1.056604 0 0 1.056604 -24.19818 21.86331)" fill="url(#L)"/><g class="B"><path d="M271-438h20v9h-20z"/><use xlink:href="#x"/><use xlink:href="#v" x="7" y="3"/></g><use xlink:href="#w" transform="matrix(1.056604 0 0 1.056604 -17.19818 24.86331)" fill="url(#M)"/><use xlink:href="#v" x="-7" y="3" class="B"/><use xlink:href="#w" transform="matrix(1.056604 0 0 1.056604 -31.19818 24.86331)" fill="url(#N)"/><use xlink:href="#y" class="B"/><use xlink:href="#z" fill="url(#O)" transform="translate(-1)"/><use xlink:href="#w" transform="matrix(.90566 0 0 .90566 9.830296 -35.68884)" fill="url(#P)"/><use xlink:href="#AA" class="D M"/><use xlink:href="#AB" class="B"/><use xlink:href="#w" transform="matrix(1.207547 0 0 1.207547 -64.226448 95.415288)" fill="url(#Q)"/></g></g><text xml:space="preserve" x="159.906" y="453.271" class="E L"><tspan x="159.906" y="453.271">U9kqLpIW9B+p9b0D</tspan></text><text xml:space="preserve" x="96.051" y="489.546" class="E R"><tspan x="96.051" y="489.546">a4tyiunlv9klvaq1</tspan></text><text xml:space="preserve" x="29.875" y="489.17" class="E F R"><tspan x="29.875" y="489.17">a4tyiunlv9klvaq</tspan></text></g></g></svg>
