<svg xmlns="http://www.w3.org/2000/svg" width="64" height="64"><path d="M9.305 36.848l4.401.043-.153 19.598h29.291V36.962h4.638v24.287h-38.2l.023-24.401z" fill="#919191"/><path fill="#919191" d="M16.482 48.434h22.945v4.882H16.482z"/><path fill="#a78b68" d="M17.02 39.648l22.96 2.216-.48 4.981-22.96-2.216z"/><path fill="#c19653" d="M19.121 29.713l22.2 6.266-1.36 4.815-22.2-6.265z"/><path fill="#d48c28" d="M24.501 18.484L44.246 30.41l-2.587 4.283-19.745-11.926z"/><path fill="#fe8908" d="M35.733 7.849l13.435 18.75-4.068 2.915-13.435-18.75z"/><path fill="#ff7a15" d="M51.34 2.751l3.801 22.752-4.935.825-3.802-22.752z"/></svg>