<svg xmlns="http://www.w3.org/2000/svg" width="418.538" height="150.301" viewBox="0 0 110.738 39.767"><text transform="matrix(1.00575 0 0 .99428 -50.464 -128.283)" style="font-variant:normal;font-weight:400;font-size:5.14623px;font-family:Helvetica;-inkscape-font-specification:Helvetica;writing-mode:lr-tb;fill:#000;fill-opacity:1;fill-rule:nonzero;stroke:none;stroke-width:.350761" x="64.937" y="132.813"><tspan x="64.937" y="132.813" style="stroke-width:.350761">M</tspan><tspan x="65.156" y="167.961" style="stroke-width:.350761">C</tspan></text><path d="m62.499 146.574.366-.361-.366-.362h.31l.366.362-.366.361h-.31" style="fill:#fff;fill-opacity:1;fill-rule:nonzero;stroke:none;stroke-width:.0352777" transform="translate(-50.464 -128.283)"/><path d="M1664.21 4188.83h205.14" style="fill:none;stroke:#000;stroke-width:18.2351;stroke-linecap:butt;stroke-linejoin:miter;stroke-miterlimit:4;stroke-dasharray:none;stroke-opacity:1" transform="matrix(.03548 0 0 -.03508 -53.874 164.855)"/><path d="m61.665 147.298 1.098-1.085-1.098-1.085h.931l1.098 1.085-1.098 1.085h-.93" style="fill:#000;fill-opacity:1;fill-rule:nonzero;stroke:none;stroke-width:.0352777" transform="translate(-50.464 -128.283)"/><text transform="matrix(.35278 0 0 .34876 -.083 19.715)" style="font-variant:normal;font-weight:400;font-size:14.6716px;font-family:Helvetica;-inkscape-font-specification:Helvetica;writing-mode:lr-tb;fill:#000;fill-opacity:1;fill-rule:nonzero;stroke:none"><tspan x="0" y="0">T</tspan></text><text transform="matrix(.35278 0 0 .34876 2.26 20.733)" style="font-variant:normal;font-weight:400;font-size:7.33584px;font-family:Helvetica;-inkscape-font-specification:Helvetica;writing-mode:lr-tb;fill:#000;fill-opacity:1;fill-rule:nonzero;stroke:none"><tspan x="0" y="0">0</tspan></text><path d="M68.217 155.02c0 .354-.29.64-.647.64a.644.644 0 0 1-.647-.64c0-.353.29-.639.647-.639.358 0 .647.286.647.64" style="fill:#000;fill-opacity:1;fill-rule:nonzero;stroke:none;stroke-width:.0352777" transform="translate(-50.464 -128.283)"/><path d="M2018.79 3937.72c0-10.07-8.16-18.24-18.23-18.24s-18.24 8.17-18.24 18.24c0 10.07 8.17 18.23 18.24 18.23 10.07 0 18.23-8.16 18.23-18.23z" style="fill:none;stroke:#000;stroke-width:18.2351;stroke-linecap:butt;stroke-linejoin:miter;stroke-miterlimit:4;stroke-dasharray:none;stroke-opacity:1" transform="matrix(.03548 0 0 -.03508 -53.874 164.855)"/><path d="M67.628 133.44v7.675M67.263 140.703l.365.362.366-.362v.307l-.366.361-.365-.36v-.308" style="fill:#000;fill-opacity:1;fill-rule:nonzero;stroke:none;stroke-width:.0352777" transform="translate(-50.464 -128.283)"/><path d="M2002.19 4552.98v-218.82" style="fill:none;stroke:#000;stroke-width:18.2351;stroke-linecap:butt;stroke-linejoin:miter;stroke-miterlimit:4;stroke-dasharray:none;stroke-opacity:1" transform="matrix(.03548 0 0 -.03508 -53.874 164.855)"/><path d="m66.531 139.88 1.097 1.085 1.098-1.085v.92l-1.098 1.085-1.097-1.085v-.92" style="fill:#000;fill-opacity:1;fill-rule:nonzero;stroke:none;stroke-width:.0352777" transform="translate(-50.464 -128.283)"/><path d="m67.16 159.842.365.488.366-.488v.414l-.366.487-.366-.487v-.414" style="fill:#fff;fill-opacity:1;fill-rule:nonzero;stroke:none;stroke-width:.0352777" transform="translate(-50.464 -128.283)"/><path d="M1999.28 4079.37v-294.94" style="fill:none;stroke:#000;stroke-width:21.1703;stroke-linecap:butt;stroke-linejoin:miter;stroke-miterlimit:4;stroke-dasharray:none;stroke-opacity:1" transform="matrix(.03548 0 0 -.03508 -53.874 164.855)"/><path d="m66.428 158.732 1.097 1.463 1.097-1.463v1.24l-1.097 1.463-1.097-1.463v-1.24" style="fill:#000;fill-opacity:1;fill-rule:nonzero;stroke:none;stroke-width:.0352777" transform="translate(-50.464 -128.283)"/><path d="M2109.2 4084.74h-218.82v218.82h218.82z" style="fill:none;stroke:#000;stroke-width:18.2351;stroke-linecap:butt;stroke-linejoin:miter;stroke-miterlimit:4;stroke-dasharray:none;stroke-opacity:1" transform="matrix(.03548 0 0 -.03508 -53.874 164.855)"/><text transform="matrix(.35278 0 0 .34876 14.706 19.235)" style="font-variant:normal;font-weight:400;font-size:12.8377px;font-family:Helvetica;-inkscape-font-specification:Helvetica;writing-mode:lr-tb;fill:#000;fill-opacity:1;fill-rule:nonzero;stroke:none"><tspan x="0" y="0">E</tspan></text><text transform="matrix(.35278 0 0 .34876 17.59 20.648)" style="font-variant:normal;font-weight:400;font-size:8.55848px;font-family:Helvetica;-inkscape-font-specification:Helvetica;writing-mode:lr-tb;fill:#000;fill-opacity:1;fill-rule:nonzero;stroke:none"><tspan x="0" y="0">K</tspan></text><path d="m85.724 146.392.396-.361-.396-.362h.336l.395.362-.395.361h-.336" style="fill:#fff;fill-opacity:1;fill-rule:nonzero;stroke:none;stroke-width:.0352777" transform="translate(-50.464 -128.283)"/><path d="M2000.56 3937.72h288.21v254.78l14.44 1.52h221.7" style="fill:none;stroke:#000;stroke-width:18.9566;stroke-linecap:butt;stroke-linejoin:miter;stroke-miterlimit:4;stroke-dasharray:none;stroke-opacity:1" transform="matrix(.03548 0 0 -.03508 -53.874 164.855)"/><path d="m84.824 147.116 1.186-1.085-1.186-1.085h1.006l1.186 1.085-1.186 1.085h-1.006M91.041 133.48v7.675M90.675 140.743l.366.361.366-.361v.307l-.366.361-.366-.361v-.307" style="fill:#000;fill-opacity:1;fill-rule:nonzero;stroke:none;stroke-width:.0352777" transform="translate(-50.464 -128.283)"/><path d="M2662.08 4551.85v-218.82" style="fill:none;stroke:#000;stroke-width:18.2351;stroke-linecap:butt;stroke-linejoin:miter;stroke-miterlimit:4;stroke-dasharray:none;stroke-opacity:1" transform="matrix(.03548 0 0 -.03508 -53.874 164.855)"/><path d="m89.944 139.92 1.097 1.084 1.097-1.085v.92l-1.097 1.085-1.097-1.085v-.92" style="fill:#000;fill-opacity:1;fill-rule:nonzero;stroke:none;stroke-width:.0352777" transform="translate(-50.464 -128.283)"/><path d="m90.572 159.882.366.487.365-.487v.413l-.365.488-.366-.488v-.413" style="fill:#fff;fill-opacity:1;fill-rule:nonzero;stroke:none;stroke-width:.0352777" transform="translate(-50.464 -128.283)"/><path d="M2659.16 4078.24V3783.3" style="fill:none;stroke:#000;stroke-width:21.1703;stroke-linecap:butt;stroke-linejoin:miter;stroke-miterlimit:4;stroke-dasharray:none;stroke-opacity:1" transform="matrix(.03548 0 0 -.03508 -53.874 164.855)"/><path d="m89.84 158.772 1.098 1.462 1.097-1.462v1.24l-1.097 1.462-1.098-1.462v-1.24" style="fill:#000;fill-opacity:1;fill-rule:nonzero;stroke:none;stroke-width:.0352777" transform="translate(-50.464 -128.283)"/><path d="M2769.08 4083.61h-218.82v218.82h218.82z" style="fill:none;stroke:#000;stroke-width:18.2351;stroke-linecap:butt;stroke-linejoin:miter;stroke-miterlimit:4;stroke-dasharray:none;stroke-opacity:1" transform="matrix(.03548 0 0 -.03508 -53.874 164.855)"/><text transform="matrix(.35278 0 0 .34876 38.119 19.275)" style="font-variant:normal;font-weight:400;font-size:12.8377px;font-family:Helvetica;-inkscape-font-specification:Helvetica;writing-mode:lr-tb;fill:#000;fill-opacity:1;fill-rule:nonzero;stroke:none"><tspan x="0" y="0">E</tspan></text><text transform="matrix(.35278 0 0 .34876 41.003 20.688)" style="font-variant:normal;font-weight:400;font-size:8.55848px;font-family:Helvetica;-inkscape-font-specification:Helvetica;writing-mode:lr-tb;fill:#000;fill-opacity:1;fill-rule:nonzero;stroke:none"><tspan x="0" y="0">K</tspan></text><path d="m109.137 146.432.395-.362-.395-.361h.335l.396.361-.396.362h-.335" style="fill:#fff;fill-opacity:1;fill-rule:nonzero;stroke:none;stroke-width:.0352777" transform="translate(-50.464 -128.283)"/><path d="M2660.44 3936.59h288.22v254.78l14.43 1.52h221.7" style="fill:none;stroke:#000;stroke-width:18.9566;stroke-linecap:butt;stroke-linejoin:miter;stroke-miterlimit:4;stroke-dasharray:none;stroke-opacity:1" transform="matrix(.03548 0 0 -.03508 -53.874 164.855)"/><path d="m108.237 147.155 1.186-1.085-1.186-1.084h1.006l1.185 1.084-1.185 1.085h-1.006M114.009 133.48v7.675M113.643 140.743l.366.361.366-.361v.307l-.366.361-.366-.361v-.307" style="fill:#000;fill-opacity:1;fill-rule:nonzero;stroke:none;stroke-width:.0352777" transform="translate(-50.464 -128.283)"/><path d="M3309.42 4551.85v-218.82" style="fill:none;stroke:#000;stroke-width:18.2351;stroke-linecap:butt;stroke-linejoin:miter;stroke-miterlimit:4;stroke-dasharray:none;stroke-opacity:1" transform="matrix(.03548 0 0 -.03508 -53.874 164.855)"/><path d="m112.911 139.92 1.098 1.084 1.097-1.085v.92l-1.097 1.085-1.098-1.085v-.92" style="fill:#000;fill-opacity:1;fill-rule:nonzero;stroke:none;stroke-width:.0352777" transform="translate(-50.464 -128.283)"/><path d="m113.54 159.882.365.487.366-.487v.413l-.366.488-.365-.488v-.413" style="fill:#fff;fill-opacity:1;fill-rule:nonzero;stroke:none;stroke-width:.0352777" transform="translate(-50.464 -128.283)"/><path d="M3306.51 4078.24V3783.3" style="fill:none;stroke:#000;stroke-width:21.1703;stroke-linecap:butt;stroke-linejoin:miter;stroke-miterlimit:4;stroke-dasharray:none;stroke-opacity:1" transform="matrix(.03548 0 0 -.03508 -53.874 164.855)"/><path d="m112.808 158.772 1.097 1.462 1.098-1.462v1.24l-1.098 1.462-1.097-1.462v-1.24" style="fill:#000;fill-opacity:1;fill-rule:nonzero;stroke:none;stroke-width:.0352777" transform="translate(-50.464 -128.283)"/><path d="M3416.43 4083.61h-218.82v218.82h218.82z" style="fill:none;stroke:#000;stroke-width:18.2351;stroke-linecap:butt;stroke-linejoin:miter;stroke-miterlimit:4;stroke-dasharray:none;stroke-opacity:1" transform="matrix(.03548 0 0 -.03508 -53.874 164.855)"/><text transform="matrix(.35278 0 0 .34876 61.087 19.275)" style="font-variant:normal;font-weight:400;font-size:12.8377px;font-family:Helvetica;-inkscape-font-specification:Helvetica;writing-mode:lr-tb;fill:#000;fill-opacity:1;fill-rule:nonzero;stroke:none"><tspan x="0" y="0">E</tspan></text><text transform="matrix(.35278 0 0 .34876 63.971 20.688)" style="font-variant:normal;font-weight:400;font-size:8.55848px;font-family:Helvetica;-inkscape-font-specification:Helvetica;writing-mode:lr-tb;fill:#000;fill-opacity:1;fill-rule:nonzero;stroke:none"><tspan x="0" y="0">K</tspan></text><path d="m132.105 146.432.395-.362-.395-.361h.335l.396.361-.396.362h-.335" style="fill:#fff;fill-opacity:1;fill-rule:nonzero;stroke:none;stroke-width:.0352777" transform="translate(-50.464 -128.283)"/><path d="M3307.79 3936.59H3596v254.78l14.44 1.52h221.7" style="fill:none;stroke:#000;stroke-width:18.9566;stroke-linecap:butt;stroke-linejoin:miter;stroke-miterlimit:4;stroke-dasharray:none;stroke-opacity:1" transform="matrix(.03548 0 0 -.03508 -53.874 164.855)"/><path d="m131.204 147.155 1.187-1.085-1.187-1.084h1.006l1.186 1.084-1.186 1.085h-1.006M91.58 154.985c0 .353-.29.64-.646.64a.643.643 0 0 1-.647-.64c0-.353.29-.64.647-.64.357 0 .647.287.647.64" style="fill:#000;fill-opacity:1;fill-rule:nonzero;stroke:none;stroke-width:.0352777" transform="translate(-50.464 -128.283)"/><path d="M2677.28 3938.73c0-10.07-8.17-18.24-18.24-18.24-10.07 0-18.23 8.17-18.23 18.24 0 10.07 8.16 18.23 18.23 18.23s18.24-8.16 18.24-18.23z" style="fill:none;stroke:#000;stroke-width:18.2351;stroke-linecap:butt;stroke-linejoin:miter;stroke-miterlimit:4;stroke-dasharray:none;stroke-opacity:1" transform="matrix(.03548 0 0 -.03508 -53.874 164.855)"/><path d="M114.584 155.056c0 .354-.29.64-.647.64a.643.643 0 0 1-.647-.64c0-.353.29-.64.647-.64.358 0 .647.287.647.64" style="fill:#000;fill-opacity:1;fill-rule:nonzero;stroke:none;stroke-width:.0352777" transform="translate(-50.464 -128.283)"/><path d="M3325.64 3936.7c0-10.07-8.17-18.23-18.24-18.23-10.07 0-18.23 8.16-18.23 18.23s8.16 18.24 18.23 18.24 18.24-8.17 18.24-18.24z" style="fill:none;stroke:#000;stroke-width:18.2351;stroke-linecap:butt;stroke-linejoin:miter;stroke-miterlimit:4;stroke-dasharray:none;stroke-opacity:1" transform="matrix(.03548 0 0 -.03508 -53.874 164.855)"/><path d="M135.97 146.137c0 .354-.289.64-.646.64a.643.643 0 0 1-.647-.64c0-.353.29-.64.647-.64.357 0 .647.287.647.64" style="fill:#000;fill-opacity:1;fill-rule:nonzero;stroke:none;stroke-width:.0352777" transform="translate(-50.464 -128.283)"/><path d="M3928.41 4190.98c0-10.07-8.17-18.23-18.24-18.23-10.07 0-18.23 8.16-18.23 18.23s8.16 18.24 18.23 18.24 18.24-8.17 18.24-18.24z" style="fill:none;stroke:#000;stroke-width:18.2351;stroke-linecap:butt;stroke-linejoin:miter;stroke-miterlimit:4;stroke-dasharray:none;stroke-opacity:1" transform="matrix(.03548 0 0 -.03508 -53.874 164.855)"/><path d="M139.53 146.137c0 .354-.29.64-.648.64a.643.643 0 0 1-.647-.64c0-.353.29-.64.647-.64.357 0 .647.287.647.64" style="fill:#000;fill-opacity:1;fill-rule:nonzero;stroke:none;stroke-width:.0352777" transform="translate(-50.464 -128.283)"/><path d="M4028.7 4190.98c0-10.07-8.16-18.23-18.23-18.23s-18.24 8.16-18.24 18.23 8.17 18.24 18.24 18.24c10.07 0 18.23-8.17 18.23-18.24z" style="fill:none;stroke:#000;stroke-width:18.2351;stroke-linecap:butt;stroke-linejoin:miter;stroke-miterlimit:4;stroke-dasharray:none;stroke-opacity:1" transform="matrix(.03548 0 0 -.03508 -53.874 164.855)"/><path d="M157.083 133.515v7.675M156.717 140.778l.366.362.365-.362v.307l-.365.362-.366-.362v-.307" style="fill:#000;fill-opacity:1;fill-rule:nonzero;stroke:none;stroke-width:.0352777" transform="translate(-50.464 -128.283)"/><path d="M4523.45 4550.84v-218.82" style="fill:none;stroke:#000;stroke-width:18.2351;stroke-linecap:butt;stroke-linejoin:miter;stroke-miterlimit:4;stroke-dasharray:none;stroke-opacity:1" transform="matrix(.03548 0 0 -.03508 -53.874 164.855)"/><path d="m155.985 139.955 1.098 1.085 1.097-1.085v.92l-1.097 1.085-1.098-1.085v-.92" style="fill:#000;fill-opacity:1;fill-rule:nonzero;stroke:none;stroke-width:.0352777" transform="translate(-50.464 -128.283)"/><path d="m156.613 159.917.366.488.366-.488v.414l-.366.487-.366-.487v-.414" style="fill:#fff;fill-opacity:1;fill-rule:nonzero;stroke:none;stroke-width:.0352777" transform="translate(-50.464 -128.283)"/><path d="M4520.54 4077.23v-294.94" style="fill:none;stroke:#000;stroke-width:21.1703;stroke-linecap:butt;stroke-linejoin:miter;stroke-miterlimit:4;stroke-dasharray:none;stroke-opacity:1" transform="matrix(.03548 0 0 -.03508 -53.874 164.855)"/><path d="m155.882 158.807 1.097 1.463 1.097-1.463v1.24l-1.097 1.463-1.097-1.463v-1.24" style="fill:#000;fill-opacity:1;fill-rule:nonzero;stroke:none;stroke-width:.0352777" transform="translate(-50.464 -128.283)"/><path d="M4630.46 4082.6h-218.82v218.82h218.82z" style="fill:none;stroke:#000;stroke-width:18.2351;stroke-linecap:butt;stroke-linejoin:miter;stroke-miterlimit:4;stroke-dasharray:none;stroke-opacity:1" transform="matrix(.03548 0 0 -.03508 -53.874 164.855)"/><path d="m151.702 146.5.366-.363-.366-.361h.31l.366.361-.366.362h-.31" style="fill:#fff;fill-opacity:1;fill-rule:nonzero;stroke:none;stroke-width:.0352777" transform="translate(-50.464 -128.283)"/><path d="M4178.38 4190.98h205.15" style="fill:none;stroke:#000;stroke-width:18.2351;stroke-linecap:butt;stroke-linejoin:miter;stroke-miterlimit:4;stroke-dasharray:none;stroke-opacity:1" transform="matrix(.03548 0 0 -.03508 -53.874 164.855)"/><path d="m150.868 147.222 1.098-1.085-1.098-1.084h.931l1.098 1.084-1.098 1.085h-.93M143.16 146.102c0 .353-.29.64-.648.64a.643.643 0 0 1-.647-.64c0-.354.29-.64.647-.64.358 0 .647.286.647.64" style="fill:#000;fill-opacity:1;fill-rule:nonzero;stroke:none;stroke-width:.0352777" transform="translate(-50.464 -128.283)"/><path d="M4131.02 4191.99c0-10.07-8.17-18.23-18.24-18.23-10.07 0-18.23 8.16-18.23 18.23s8.16 18.24 18.23 18.24 18.24-8.17 18.24-18.24z" style="fill:none;stroke:#000;stroke-width:18.2351;stroke-linecap:butt;stroke-linejoin:miter;stroke-miterlimit:4;stroke-dasharray:none;stroke-opacity:1" transform="matrix(.03548 0 0 -.03508 -53.874 164.855)"/><text transform="matrix(.35278 0 0 .34876 103.909 19.404)" style="font-variant:normal;font-weight:400;font-size:12.8377px;font-family:Helvetica;-inkscape-font-specification:Helvetica;writing-mode:lr-tb;fill:#000;fill-opacity:1;fill-rule:nonzero;stroke:none"><tspan x="0" y="0">E</tspan></text><text transform="matrix(.35278 0 0 .34876 106.793 20.817)" style="font-variant:normal;font-weight:400;font-size:8.55848px;font-family:Helvetica;-inkscape-font-specification:Helvetica;writing-mode:lr-tb;fill:#000;fill-opacity:1;fill-rule:nonzero;stroke:none"><tspan x="0" y="0">K</tspan></text><text transform="matrix(.35278 0 0 .34876 38.353 3.67)" style="font-variant:normal;font-weight:400;font-size:14.6716px;font-family:Helvetica;-inkscape-font-specification:Helvetica;writing-mode:lr-tb;fill:#000;fill-opacity:1;fill-rule:nonzero;stroke:none"><tspan x="0 66.02256" y="0">MM</tspan><tspan x="186.147" y=".611">M</tspan><tspan x="0.72627854 67.054527" y="100.256">CC</tspan><tspan x="187.79" y="99.645">C</tspan></text><text transform="matrix(.35278 0 0 .34876 19.226 4.849)" style="font-variant:normal;font-weight:400;font-size:7.33584px;font-family:Helvetica;-inkscape-font-specification:Helvetica;writing-mode:lr-tb;fill:#000;fill-opacity:1;fill-rule:nonzero;stroke:none"><tspan x="0" y="0">1</tspan><tspan x="-2.445" y="99.983">1</tspan><tspan x="66.94" y=".949">2</tspan><tspan x="65.411" y="99.983">2</tspan><tspan x="133.268" y="2.171">3</tspan><tspan x="130.823" y="99.983">3</tspan><tspan x="251.765" y="3.088">m</tspan><tspan x="252.071" y="99.983">m</tspan></text><path d="M65.225 143.843c.48-.478.953-.673 1.563-.286.23.146.361.308.64.366.34.07.657-.277.87-.48.088-.084-.053-.388 0-.44-.456.435-.85.646-1.388.21-.615-.499-1.16-.331-1.685.19-.087.087.054.386 0 .44M88.57 143.843c.48-.478.953-.673 1.563-.286.23.146.361.308.64.366.34.07.657-.277.87-.48.088-.084-.053-.388 0-.44-.456.435-.85.646-1.388.21-.615-.5-1.16-.331-1.685.19-.087.087.054.386 0 .44M111.646 143.843c.48-.478.953-.673 1.563-.286.229.146.361.308.64.366.34.07.657-.277.87-.48.088-.084-.053-.388 0-.44-.456.435-.85.646-1.389.21-.614-.5-1.16-.331-1.684.19-.087.087.054.386 0 .44M154.382 143.95c.481-.478.953-.674 1.563-.287.23.146.362.308.64.367.341.07.658-.277.87-.48.089-.084-.052-.389 0-.44-.456.435-.85.646-1.388.21-.615-.5-1.16-.331-1.685.19-.087.087.054.386 0 .44" style="fill:#000;fill-opacity:1;fill-rule:nonzero;stroke:none;stroke-width:.0352777" transform="translate(-50.464 -128.283)"/></svg>